<svg width="24" height="24" viewBox="0 0 24 24" fill="none" xmlns="http://www.w3.org/2000/svg">
<g clip-path="url(#clip0_57780_6613)">
<path d="M12.0124 3.84769C11.8615 3.84685 11.7118 3.86255 11.5721 3.89387C11.4324 3.9252 11.3055 3.9715 11.1988 4.03009L0.332347 9.99289C0.226984 10.0507 0.143402 10.1193 0.0863765 10.1948C0.0293511 10.2703 0 10.3513 0 10.433C0 10.5148 0.0293511 10.5957 0.0863765 10.6713C0.143402 10.7468 0.226984 10.8154 0.332347 10.8732L11.1983 16.836C11.3037 16.8938 11.4287 16.9397 11.5663 16.971C11.7039 17.0023 11.8515 17.0184 12.0004 17.0184C12.1494 17.0184 12.2969 17.0023 12.4345 16.971C12.5722 16.9397 12.6972 16.8938 12.8025 16.836L23.6687 10.8737C23.7741 10.8159 23.8577 10.7473 23.9147 10.6718C23.9717 10.5962 24.0011 10.5153 24.0011 10.4335C24.0011 10.3518 23.9717 10.2708 23.9147 10.1953C23.8577 10.1198 23.7741 10.0512 23.6687 9.99337L12.8027 4.03009C12.593 3.91487 12.3092 3.84939 12.0124 3.84769ZM1.13515 12.685L0.332587 13.1251C0.227224 13.1829 0.143642 13.2515 0.0866165 13.3271C0.0295911 13.4026 0.00024 13.4835 0.00024 13.5653C0.00024 13.647 0.0295911 13.728 0.0866165 13.8035C0.143642 13.879 0.227224 13.9477 0.332587 14.0054L11.1986 19.9685C11.3039 20.0263 11.4289 20.0722 11.5666 20.1035C11.7042 20.1348 11.8517 20.1509 12.0007 20.1509C12.1496 20.1509 12.2972 20.1348 12.4348 20.1035C12.5724 20.0722 12.6974 20.0263 12.8027 19.9685L23.6687 14.0057C23.7741 13.9479 23.8576 13.8792 23.9146 13.8037C23.9716 13.7282 24.0009 13.6472 24.0009 13.5655C24.0008 13.4837 23.9714 13.4028 23.9143 13.3273C23.8573 13.2517 23.7737 13.1831 23.6683 13.1254L22.8662 12.6852L21.2623 13.565L21.2632 13.5655L12.0007 18.6485L2.73763 13.5653L2.73859 13.5648L1.13515 12.685Z" fill="#007BFF"/>
</g>
<defs>
<clipPath id="clip0_57780_6613">
<rect width="24" height="24" fill="white"/>
</clipPath>
</defs>
</svg>
