<svg width="24" height="22" viewBox="0 0 24 22" fill="none" xmlns="http://www.w3.org/2000/svg">
<path d="M21.3333 0.333984C22.0406 0.333984 22.7189 0.614936 23.219 1.11503C23.719 1.61513 24 2.29341 24 3.00065V19.0007C24 19.7079 23.719 20.3862 23.219 20.8863C22.7189 21.3864 22.0406 21.6673 21.3333 21.6673H2.66667C1.95942 21.6673 1.28115 21.3864 0.781048 20.8863C0.280951 20.3862 0 19.7079 0 19.0007V3.00065C0 2.29341 0.280951 1.61513 0.781048 1.11503C1.28115 0.614936 1.95942 0.333984 2.66667 0.333984H21.3333ZM21.3333 11.0007H2.66667V19.0007H21.3333V11.0007ZM21.3333 3.00065H2.66667V8.33398H21.3333V3.00065ZM5.33333 4.33398C5.68696 4.33398 6.02609 4.47446 6.27614 4.72451C6.52619 4.97456 6.66667 5.3137 6.66667 5.66732C6.66667 6.02094 6.52619 6.36008 6.27614 6.61013C6.02609 6.86018 5.68696 7.00065 5.33333 7.00065C4.97971 7.00065 4.64057 6.86018 4.39052 6.61013C4.14048 6.36008 4 6.02094 4 5.66732C4 5.3137 4.14048 4.97456 4.39052 4.72451C4.64057 4.47446 4.97971 4.33398 5.33333 4.33398ZM9.33333 4.33398C9.68696 4.33398 10.0261 4.47446 10.2761 4.72451C10.5262 4.97456 10.6667 5.3137 10.6667 5.66732C10.6667 6.02094 10.5262 6.36008 10.2761 6.61013C10.0261 6.86018 9.68696 7.00065 9.33333 7.00065C8.97971 7.00065 8.64057 6.86018 8.39052 6.61013C8.14048 6.36008 8 6.02094 8 5.66732C8 5.3137 8.14048 4.97456 8.39052 4.72451C8.64057 4.47446 8.97971 4.33398 9.33333 4.33398ZM13.3333 4.33398C13.687 4.33398 14.0261 4.47446 14.2761 4.72451C14.5262 4.97456 14.6667 5.3137 14.6667 5.66732C14.6667 6.02094 14.5262 6.36008 14.2761 6.61013C14.0261 6.86018 13.687 7.00065 13.3333 7.00065C12.9797 7.00065 12.6406 6.86018 12.3905 6.61013C12.1405 6.36008 12 6.02094 12 5.66732C12 5.3137 12.1405 4.97456 12.3905 4.72451C12.6406 4.47446 12.9797 4.33398 13.3333 4.33398Z" fill="#004085"/>
</svg>
