<svg width="27" height="24" viewBox="0 0 27 24" fill="none" xmlns="http://www.w3.org/2000/svg">
<path d="M12.3984 0.244531C13.0969 -0.0789062 13.9031 -0.0789062 14.6016 0.244531L24.8484 4.97891C25.2469 5.16172 25.5 5.56016 25.5 6.00078C25.5 6.44141 25.2469 6.83984 24.8484 7.02266L14.6016 11.757C13.9031 12.0805 13.0969 12.0805 12.3984 11.757L2.15156 7.02266C1.75313 6.83516 1.5 6.43672 1.5 6.00078C1.5 5.56484 1.75313 5.16172 2.15156 4.97891L12.3984 0.244531ZM22.3547 9.82578L24.8484 10.9789C25.2469 11.1617 25.5 11.5602 25.5 12.0008C25.5 12.4414 25.2469 12.8398 24.8484 13.0227L14.6016 17.757C13.9031 18.0805 13.0969 18.0805 12.3984 17.757L2.15156 13.0227C1.75313 12.8352 1.5 12.4367 1.5 12.0008C1.5 11.5648 1.75313 11.1617 2.15156 10.9789L4.64531 9.82578L11.7703 13.1164C12.3126 13.3666 12.9028 13.4961 13.5 13.4961C14.0972 13.4961 14.6874 13.3666 15.2297 13.1164L22.3547 9.82578ZM15.2297 19.1164L22.3547 15.8258L24.8484 16.9789C25.2469 17.1617 25.5 17.5602 25.5 18.0008C25.5 18.4414 25.2469 18.8398 24.8484 19.0227L14.6016 23.757C13.9031 24.0805 13.0969 24.0805 12.3984 23.757L2.15156 19.0227C1.75313 18.8352 1.5 18.4367 1.5 18.0008C1.5 17.5648 1.75313 17.1617 2.15156 16.9789L4.64531 15.8258L11.7703 19.1164C12.3126 19.3666 12.9028 19.4961 13.5 19.4961C14.0972 19.4961 14.6874 19.3666 15.2297 19.1164Z" fill="#F6C648"/>
</svg>
