<svg width="33" height="32" viewBox="0 0 33 32" fill="none" xmlns="http://www.w3.org/2000/svg">
<rect x="0.5" width="32" height="32" rx="5.33333" fill="white"/>
<g clip-path="url(#clip0_57780_5913)">
<path d="M25.1387 13.9927C24.854 9.58465 21.7887 5.33398 16.1667 5.33398C11.0247 5.33398 7.05933 9.15598 6.84933 14.2567C4.036 15.132 2.5 18.1427 2.5 20.334C2.5 23.708 5.304 26.6673 8.5 26.6673H12.8333C12.9217 26.6673 13.0065 26.6322 13.069 26.5697C13.1315 26.5072 13.1667 26.4224 13.1667 26.334C13.1667 26.2456 13.1315 26.1608 13.069 26.0983C13.0065 26.0358 12.9217 26.0007 12.8333 26.0007H8.5C5.65867 26.0007 3.16667 23.3527 3.16667 20.334C3.16667 18.3 4.94933 14.6673 8.5 14.6673H9.5C9.58841 14.6673 9.67319 14.6322 9.7357 14.5697C9.79821 14.5072 9.83333 14.4224 9.83333 14.334C9.83333 14.2456 9.79821 14.1608 9.7357 14.0983C9.67319 14.0358 9.58841 14.0007 9.5 14.0007H8.5C8.16067 14.0007 7.84 14.0387 7.52733 14.0933C7.78867 10.1 10.824 6.00065 16.1667 6.00065C21.892 6.00065 24.5 10.4933 24.5 14.6673V15.6673C24.5 15.7557 24.5351 15.8405 24.5976 15.903C24.6601 15.9655 24.7449 16.0007 24.8333 16.0007C24.9217 16.0007 25.0065 15.9655 25.069 15.903C25.1315 15.8405 25.1667 15.7557 25.1667 15.6673V14.6613C27.1793 14.882 29.8333 17.042 29.8333 20.334C29.8333 22.8847 27.3727 26.0007 24.5 26.0007H19.5C17.3413 26.0007 16.5 25.1593 16.5 23.0007V13.856L19.2187 16.5693C19.2494 16.6012 19.2861 16.6266 19.3268 16.6442C19.3674 16.6617 19.4111 16.6709 19.4554 16.6714C19.4996 16.6718 19.5435 16.6635 19.5845 16.6468C19.6255 16.6301 19.6628 16.6054 19.6941 16.5741C19.7255 16.5429 19.7503 16.5057 19.7671 16.4647C19.7839 16.4238 19.7924 16.3799 19.7921 16.3357C19.7917 16.2914 19.7826 16.2476 19.7652 16.207C19.7478 16.1663 19.7225 16.1294 19.6907 16.0987L16.7167 13.1307C16.3207 12.736 16.0133 12.736 15.618 13.1307L12.644 16.0987C12.5833 16.1615 12.5497 16.2457 12.5504 16.3331C12.5512 16.4205 12.5863 16.5041 12.6481 16.5659C12.7099 16.6277 12.7935 16.6628 12.8809 16.6635C12.9683 16.6643 13.0525 16.6307 13.1153 16.57L15.8333 13.856V23.0007C15.8333 25.5367 16.964 26.6673 19.5 26.6673H24.5C27.7313 26.6673 30.5 23.1847 30.5 20.334C30.5 16.8893 27.6847 14.1953 25.1387 13.9927Z" fill="#007BFF"/>
</g>
<defs>
<clipPath id="clip0_57780_5913">
<rect width="28" height="21.3333" fill="white" transform="translate(2.5 5.33398)"/>
</clipPath>
</defs>
</svg>
