<svg width="25" height="25" viewBox="0 0 25 25" fill="none" xmlns="http://www.w3.org/2000/svg">
<path d="M0 13.6364V11.3636H6.81818V13.6364H0ZM7.67045 9.26136L5.28409 6.875L6.875 5.28409L9.26136 7.67045L7.67045 9.26136ZM11.3636 6.81818V0H13.6364V6.81818H11.3636ZM17.3295 9.26136L15.7386 7.67045L18.125 5.28409L19.7159 6.875L17.3295 9.26136ZM18.1818 13.6364V11.3636H25V13.6364H18.1818ZM12.5 15.9091C11.553 15.9091 10.7481 15.5777 10.0852 14.9148C9.42235 14.2519 9.09091 13.447 9.09091 12.5C9.09091 11.553 9.42235 10.7481 10.0852 10.0852C10.7481 9.42235 11.553 9.09091 12.5 9.09091C13.447 9.09091 14.2519 9.42235 14.9148 10.0852C15.5777 10.7481 15.9091 11.553 15.9091 12.5C15.9091 13.447 15.5777 14.2519 14.9148 14.9148C14.2519 15.5777 13.447 15.9091 12.5 15.9091ZM18.125 19.7159L15.7386 17.3295L17.3295 15.7386L19.7159 18.125L18.125 19.7159ZM6.875 19.7159L5.28409 18.125L7.67045 15.7386L9.26136 17.3295L6.875 19.7159ZM11.3636 25V18.1818H13.6364V25H11.3636Z" fill="#212121"/>
</svg>
