<svg width="28" height="32" viewBox="0 0 28 32" fill="none" xmlns="http://www.w3.org/2000/svg">
<path fill-rule="evenodd" clip-rule="evenodd" d="M0.132812 3.2C0.132813 2.35131 0.469955 1.53737 1.07007 0.937258C1.67019 0.337142 2.48412 0 3.33281 0L20.8411 0L27.8661 7.02507V28.8C27.8661 29.6487 27.529 30.4626 26.9289 31.0627C26.3288 31.6629 25.5148 32 24.6661 32H3.33281C2.48412 32 1.67019 31.6629 1.07007 31.0627C0.469955 30.4626 0.132813 29.6487 0.132812 28.8V3.2ZM5.46615 12.8H2.26615V23.4667H4.39948V19.2H5.46615C6.31484 19.2 7.12877 18.8629 7.72889 18.2627C8.32901 17.6626 8.66615 16.8487 8.66615 16C8.66615 15.1513 8.32901 14.3374 7.72889 13.7373C7.12877 13.1371 6.31484 12.8 5.46615 12.8ZM13.9995 12.8H10.7995V23.4667H13.9995C14.8482 23.4667 15.6621 23.1295 16.2622 22.5294C16.8623 21.9293 17.1995 21.1154 17.1995 20.2667V16C17.1995 15.1513 16.8623 14.3374 16.2622 13.7373C15.6621 13.1371 14.8482 12.8 13.9995 12.8ZM19.3328 23.4667V12.8H25.7328V14.9333H21.4661V17.0667H23.5995V19.2H21.4661V23.4667H19.3328Z" fill="#B3261E"/>
</svg>
