<svg width="24" height="24" viewBox="0 0 24 24" fill="none" xmlns="http://www.w3.org/2000/svg">
<path d="M2.50048 8.9L11.5005 14.1C11.7005 14.2 11.8005 14.2 12.0005 14.2C12.2005 14.2 12.3005 14.2 12.5005 14.1L21.5005 8.9C21.7005 8.8 21.8005 8.7 21.9005 8.5C22.1005 8 22.0005 7.4 21.5005 7.1L12.5005 1.9C12.2005 1.7 11.8005 1.7 11.5005 1.9L2.50048 7.1C2.30048 7.2 2.20048 7.3 2.10048 7.5C1.90048 8 2.00048 8.6 2.50048 8.9ZM21.5005 11.1L21.3005 11L12.5005 16.1C12.2005 16.3 11.8005 16.3 11.5005 16.1L2.70048 11L2.50048 11.1C2.00048 11.4 1.90048 12 2.10048 12.5C2.20048 12.7 2.30048 12.8 2.50048 12.9L11.5005 18.1C11.8005 18.3 12.2005 18.3 12.5005 18.1L21.5005 12.9C22.0005 12.6 22.1005 12 21.9005 11.5C21.8005 11.3 21.7005 11.2 21.5005 11.1ZM21.5005 15.1L21.3005 15L12.5005 20.1C12.2005 20.3 11.8005 20.3 11.5005 20.1L2.70048 15L2.50048 15.1C2.00048 15.4 1.90048 16 2.10048 16.5C2.20048 16.7 2.30048 16.8 2.50048 16.9L11.5005 22.1C11.8005 22.3 12.2005 22.3 12.5005 22.1L21.5005 16.9C22.0005 16.6 22.1005 16 21.9005 15.5C21.8005 15.3 21.7005 15.2 21.5005 15.1Z" fill="#004085"/>
</svg>
