<svg width="525" height="70" viewBox="0 0 525 70" fill="none" xmlns="http://www.w3.org/2000/svg">
<circle cx="31.7938" cy="31.7938" r="31.7938" transform="matrix(-1 0 0 1 98.3828 3.20615)" stroke="url(#paint0_linear_57214_17078)" stroke-width="5.08701"/>
<circle cx="31.7938" cy="31.7938" r="31.7938" transform="matrix(-1 0 0 1 66.5859 3.20615)" stroke="url(#paint1_linear_57214_17078)" stroke-width="5.08701"/>
<path d="M40.5156 35.9247V34.0749H46.0651V35.9247H40.5156ZM46.7588 32.3638L44.8165 30.4215L46.1113 29.1266L48.0537 31.0689L46.7588 32.3638ZM49.7647 30.3752V24.8257H51.6146V30.3752H49.7647ZM54.6205 32.3638L53.3257 31.0689L55.268 29.1266L56.5628 30.4215L54.6205 32.3638ZM55.3142 35.9247V34.0749H60.8637V35.9247H55.3142ZM50.6897 37.7745C49.9189 37.7745 49.2637 37.5047 48.7242 36.9652C48.1847 36.4257 47.9149 35.7705 47.9149 34.9998C47.9149 34.229 48.1847 33.5739 48.7242 33.0343C49.2637 32.4948 49.9189 32.225 50.6897 32.225C51.4604 32.225 52.1156 32.4948 52.6551 33.0343C53.1946 33.5739 53.4644 34.229 53.4644 34.9998C53.4644 35.7705 53.1946 36.4257 52.6551 36.9652C52.1156 37.5047 51.4604 37.7745 50.6897 37.7745ZM55.268 40.873L53.3257 38.9306L54.6205 37.6358L56.5628 39.5781L55.268 40.873ZM46.1113 40.873L44.8165 39.5781L46.7588 37.6358L48.0537 38.9306L46.1113 40.873ZM49.7647 45.1738V39.6243H51.6146V45.1738H49.7647Z" fill="#F6C648"/>
<path d="M143.754 58.1271L125.632 11.5229C125.458 11.0379 124.623 11.0379 124.449 11.5229L106.385 58.1271C106.211 58.4958 106.443 58.845 106.987 58.845H115.155C115.388 58.845 115.679 58.7286 115.737 58.4958L125.05 31.8953L134.46 58.4958C134.519 58.7286 134.81 58.845 135.004 58.845H143.23C143.638 58.845 143.929 58.4958 143.754 58.1271Z" fill="#004085"/>
<path d="M177.969 49.9592H152.223V58.3022C152.223 58.5544 152.514 58.8454 152.882 58.8454H177.969C178.396 58.8454 178.629 58.5544 178.629 58.3022V50.5607C178.629 50.2696 178.396 49.9592 177.969 49.9592ZM161.342 40.8401V11.6979C161.342 11.4651 161.109 11.1547 160.74 11.1547H152.882C152.514 11.1547 152.223 11.4651 152.223 11.6979V40.8401H161.342Z" fill="#004085"/>
<path d="M205.976 50.6771H201.223V11.1547H192.104V50.6771H187.214C186.846 50.6771 186.555 50.9099 186.555 51.2203V58.3022C186.555 58.5544 186.846 58.8454 187.214 58.8454H205.976C206.403 58.8454 206.636 58.5544 206.636 58.3022V51.2203C206.636 50.9099 206.403 50.6771 205.976 50.6771Z" fill="#004085"/>
<path d="M250.571 19.9245V11.6979C250.571 11.4651 250.338 11.1547 249.911 11.1547H242.17C230.295 11.1547 214.211 14.6277 214.211 35C214.211 56.1679 230.489 58.8454 242.17 58.8454H249.911C250.338 58.8454 250.571 58.5544 250.571 58.3022V29.1018H232.274V38.2208H241.452V50.1338C231.072 50.6771 223.388 46.331 223.388 35C223.388 20.2737 235.67 19.6917 241.452 19.9245H250.571Z" fill="#004085"/>
<path d="M298.437 11.1547H290.734C290.327 11.1547 290.036 11.4651 290.036 11.6979V42.7609L268.034 11.3487C267.975 11.2129 267.607 11.1547 267.49 11.1547H259.574C259.264 11.1547 258.973 11.4651 258.973 11.6979V47.3981H268.092V27.2585L290.036 58.6708C290.094 58.7872 290.443 58.8454 290.56 58.8454H298.437C298.844 58.8454 299.077 58.5544 299.077 58.3022V11.6979C299.077 11.4651 298.844 11.1547 298.437 11.1547Z" fill="#004085"/>
<path d="M317.517 28.4421V58.3022C317.517 58.5544 317.749 58.8454 318.176 58.8454H325.86C326.267 58.8454 326.577 58.5544 326.577 58.3022V28.4421H317.517ZM308.339 19.323H335.697C336.104 19.323 336.356 19.0902 336.356 18.7992V11.6979C336.356 11.4651 336.104 11.1547 335.697 11.1547H308.339C307.971 11.1547 307.68 11.4651 307.68 11.6979V18.7992C307.68 19.0902 307.971 19.323 308.339 19.323Z" fill="#007BFF"/>
<path d="M376.874 58.0693C373.905 51.4532 370.684 44.8952 367.696 38.1626C372.469 36.4358 376.466 32.6136 376.466 25.3571C376.466 11.2905 363.059 11.1547 360.362 11.1547H344.937C344.627 11.1547 344.336 11.4651 344.336 11.6979V19.8081H360.362C361.798 19.8081 367.405 20.0991 367.405 25.3571C367.405 30.5957 362.341 30.8286 360.362 30.8286H344.336V58.3022C344.336 58.5544 344.627 58.8454 344.937 58.8454H352.737C353.106 58.8454 353.397 58.5544 353.397 58.3022V39.5984H358.519L367.231 58.4962C367.289 58.6708 367.638 58.8454 367.813 58.8454H376.35C376.815 58.8454 377.068 58.4962 376.874 58.0693Z" fill="#007BFF"/>
<path d="M422.59 58.1274L404.468 11.5232C404.294 11.0381 403.459 11.0381 403.285 11.5232L385.221 58.1274C385.047 58.496 385.279 58.8453 385.823 58.8453H393.991C394.224 58.8453 394.515 58.7289 394.573 58.496L403.886 31.8955L413.296 58.496C413.354 58.7289 413.646 58.8453 413.84 58.8453H422.066C422.474 58.8453 422.765 58.496 422.59 58.1274Z" fill="#007BFF"/>
<path d="M450.48 50.6771H445.727V11.1547H436.608V50.6771H431.718C431.35 50.6771 431.059 50.9099 431.059 51.2203V58.3022C431.059 58.5544 431.35 58.8454 431.718 58.8454H450.48C450.907 58.8454 451.14 58.5544 451.14 58.3022V51.2203C451.14 50.9099 450.907 50.6771 450.48 50.6771Z" fill="#007BFF"/>
<path d="M468.552 28.4421V58.3022C468.552 58.5544 468.785 58.8454 469.211 58.8454H476.895C477.302 58.8454 477.613 58.5544 477.613 58.3022V28.4421H468.552ZM459.375 19.323H486.732C487.139 19.323 487.391 19.0902 487.391 18.7992V11.6979C487.391 11.4651 487.139 11.1547 486.732 11.1547H459.375C459.006 11.1547 458.715 11.4651 458.715 11.6979V18.7992C458.715 19.0902 459.006 19.323 459.375 19.323Z" fill="#007BFF"/>
<path d="M517.237 32.3807C513.842 30.7703 510.505 30.7703 510.214 30.7703C507.168 30.7703 504.257 28.9853 504.257 25.5317C504.257 21.7095 506.935 19.7499 510.214 19.7499C513.318 19.7499 515.937 21.3603 516.054 24.7556C516.054 24.9303 516.345 25.2213 516.714 25.2213H524.164C524.571 25.2213 524.882 24.9303 524.824 24.7556C524.688 16.6455 518.382 11.1547 510.214 11.1547C502.589 11.1547 495.371 16.5873 495.371 25.5317C495.371 31.0614 498.165 35.3105 503.113 37.5611C506.586 39.1715 509.787 39.1715 510.214 39.1715C512.891 39.2879 516.17 41.4416 516.17 44.9534C516.17 48.116 513.376 50.2696 510.214 50.2696C510.214 50.2696 510.214 50.2696 510.156 50.2696V58.8454C510.214 58.8454 510.214 58.8454 510.214 58.8454C517.839 58.8454 524.998 53.8978 524.998 44.9534C524.998 39.3461 522.243 34.709 517.237 32.3807Z" fill="#007BFF"/>
<defs>
<linearGradient id="paint0_linear_57214_17078" x1="37.7552" y1="31.7938" x2="47.6908" y2="31.7938" gradientUnits="userSpaceOnUse">
<stop stop-color="#007AFF"/>
<stop offset="1" stop-color="#F6C648"/>
</linearGradient>
<linearGradient id="paint1_linear_57214_17078" x1="25.8325" y1="31.7938" x2="15.8969" y2="31.7938" gradientUnits="userSpaceOnUse">
<stop stop-color="#004085"/>
<stop offset="1" stop-color="#F6C648"/>
</linearGradient>
</defs>
</svg>
