<svg width="470" height="330" viewBox="0 0 470 330" fill="none" xmlns="http://www.w3.org/2000/svg">
<path opacity="0.1" d="M309.148 0C255.878 0 208.657 25.5754 179.397 64.9978C163.984 58.5809 147.067 55.0501 129.29 55.0501C57.875 55.0501 0 112.249 0 182.774C0 253.298 57.875 310.497 129.29 310.497C159.379 310.497 187.073 300.335 209.056 283.295C236.535 304.91 271.322 317.805 309.148 317.805C397.971 317.805 470 246.666 470 158.887C470 71.1077 397.971 0 309.148 0Z" fill="#2A94F4"/>
<path opacity="0.1" d="M228.921 329.656C353.655 329.656 454.771 318.178 454.771 304.02C454.771 289.861 353.655 278.383 228.921 278.383C104.187 278.383 3.07031 289.861 3.07031 304.02C3.07031 318.178 104.187 329.656 228.921 329.656Z" fill="#2A94F4"/>
<path d="M58.8269 58.8258C58.8269 58.8258 61.6208 57.045 60.8225 52.808C60.0243 48.571 57.9058 43.1059 51.3968 44.4569C44.8877 45.8078 45.1641 46.9131 42.6464 44.2419C40.1288 41.6015 31.4399 47.6192 33.4049 50.5053C34.3259 51.8869 34.7251 54.5274 30.9179 56.1239C27.1108 57.7205 26.7116 67.2997 34.111 66.2558C35.9839 65.9795 35.8611 68.8349 34.8479 69.9402C32.6066 72.3964 37.9796 78.6905 42.0938 74.1772C46.2387 69.6639 58.8269 58.8258 58.8269 58.8258Z" fill="#004085"/>
<path d="M82.1299 313.292H406.138C417.835 313.292 427.292 303.805 427.292 292.138V112.803C427.292 101.105 417.805 91.6484 406.138 91.6484H82.1299C70.4321 91.6484 60.9756 101.136 60.9756 112.803V292.138C60.9756 303.805 70.4628 313.292 82.1299 313.292Z" fill="#FFBE55"/>
<path d="M427.309 173.342L60.9616 173.342V121.638L427.309 121.638V173.342Z" fill="#004085"/>
<path d="M336.386 216.154L78.6354 216.154V203.321L336.386 203.321V216.154Z" fill="#F7F7F7"/>
<path d="M267.897 236.586L78.6443 236.586V226.884L267.897 226.884V236.586Z" fill="#F7F7F7"/>
<path d="M267.897 257.029H78.6443V247.327L267.897 247.327V257.029Z" fill="#F7F7F7"/>
<path d="M56.9848 289.097L55.7567 299.966H48.1424V287.654L56.9848 289.097ZM27.3258 289.097L26.0977 299.966H18.4834V287.654L27.3258 289.097Z" fill="#FCD2B1"/>
<path d="M51.9798 78.2297C51.7342 81.8526 50.2298 85.015 48.6332 85.1685H44.0892C42.4926 85.015 40.9575 81.8833 40.7426 78.2297C40.3741 72.2426 41.1724 70.1241 40.7733 64.1371C40.5276 60.5449 53.3614 56.6763 53.1158 60.2685C52.7474 66.2556 52.379 72.2426 51.9798 78.2297ZM75.9588 77.0016C75.9588 77.0016 83.7573 78.2297 86.9504 79.028C95.8236 81.2078 99.1702 85.322 101.319 87.287C103.469 89.252 98.7403 89.4976 96.3455 91.2784C93.9507 93.0591 74.5157 87.9011 70.4323 85.5369C66.3795 83.1421 73.3183 77.0016 75.9588 77.0016Z" fill="#F7D9C1"/>
<path d="M47.3437 83.3555C52.9009 82.1581 51.9798 76.7544 51.9798 76.7544C51.9798 76.7544 65.6426 73.807 73.0727 75.557C80.5028 77.3071 83.8494 78.2589 84.5556 78.5045C85.2617 78.7501 78.8141 79.5791 76.6649 87.3469C74.5157 95.1147 73.9631 96.3735 73.9631 96.3735L68.9892 95.6367C68.9892 95.6367 65.704 158.332 64.5066 164.35C63.3092 170.367 38.2249 172.394 27.8166 166.468C27.8166 166.468 26.8955 141.445 26.8955 107.304L26.4043 79.3335C26.4043 79.3335 38.0714 78.2589 40.7118 78.2589C40.7426 78.2282 40.6197 84.7986 47.3437 83.3555Z" fill="#2A94F4"/>
<path d="M100.03 86.0604C97.2976 84.0341 94.8413 84.4332 85.6612 87.2885C73.4414 91.0957 69.3886 92.6308 67.5158 93.4291C65.6429 94.2581 64.5069 96.8985 63.5551 99.9688C62.6033 103.039 64.2306 105.004 64.2306 105.649C64.2306 106.048 66.7482 107.215 68.6211 107.276C69.7571 107.307 70.2176 105.649 69.2351 101.32C67.8842 95.3634 88.3937 94.9949 91.2491 94.5958C94.0124 94.1967 106.447 90.8501 100.03 86.0604ZM3.10107 130.242C3.10107 122.781 14.7375 99.5697 14.7375 99.5697C14.7375 99.5083 14.7682 99.4776 14.7682 99.4162V99.3854C14.7682 99.3547 14.7989 99.324 14.7989 99.2933C14.7989 99.2933 14.7989 99.2626 14.8296 99.2626C14.8296 99.2319 14.8603 99.2319 14.8603 99.2012L14.891 99.1705L14.9217 99.1398C14.9217 99.1398 14.9524 99.1398 14.9524 99.1091C14.9831 99.1091 14.9831 99.0784 15.0138 99.0784H15.2901C15.3208 99.0784 15.3208 99.0784 15.3515 99.1091C15.3822 99.1091 15.3822 99.1091 15.4129 99.1398C15.4436 99.1398 15.4743 99.1705 15.4743 99.1705C15.505 99.1705 15.505 99.2012 15.5357 99.2012C15.5665 99.2012 15.5972 99.2319 15.6279 99.2319C15.6586 99.2319 15.6893 99.2626 15.6893 99.2626C15.72 99.2933 15.7507 99.2933 15.7814 99.324C15.8121 99.3547 15.8428 99.3547 15.8428 99.3854C15.8735 99.4162 15.9042 99.4162 15.9349 99.4469C15.9656 99.4776 15.9963 99.4776 16.027 99.5083C16.0577 99.539 16.0884 99.5697 16.1191 99.5697C16.1498 99.6004 16.1805 99.6004 16.2112 99.6311L16.3033 99.7232C16.334 99.7539 16.3647 99.7846 16.3954 99.7846L16.4875 99.8767L16.5796 99.9688C16.6103 99.9995 16.641 100.03 16.7025 100.061L16.7946 100.153L16.9174 100.276L17.0095 100.368L17.1323 100.491L17.2244 100.583C17.2551 100.644 17.3165 100.675 17.3472 100.736L17.4393 100.828C17.47 100.89 17.5314 100.921 17.5621 100.982L17.6542 101.074C17.7157 101.136 17.7464 101.197 17.8078 101.258L17.8999 101.35C17.9613 101.412 17.992 101.473 18.0534 101.535C18.0841 101.565 18.0841 101.596 18.1148 101.627C18.1762 101.688 18.2376 101.78 18.299 101.842C18.3297 101.872 18.3297 101.903 18.3604 101.903C18.4218 101.995 18.4832 102.057 18.5446 102.149C18.5446 102.179 18.5753 102.179 18.5753 102.21C18.6367 102.302 18.7288 102.394 18.7903 102.517C21.7377 106.478 23.2422 110.377 22.1062 112.127C20.571 114.522 12.0049 126.65 13.9699 131.009C15.9349 135.4 27.909 153.269 27.909 153.269L26.0975 158.857C26.0668 158.918 3.10107 140.619 3.10107 130.242Z" fill="#FFE3CA"/>
<path d="M29.29 79.9506C29.29 79.9506 25.2986 75.5908 19.6493 86.4289C16.272 92.9072 13.4166 99.6004 11.1753 105.557C11.1753 105.557 19.8642 120.294 23.7021 114C24.8074 112.189 27.7242 107.89 28.5531 105.894C33.4042 93.9204 29.29 79.9506 29.29 79.9506Z" fill="#2A94F4"/>
<path d="M56.4624 50.5059C57.7519 52.4401 58.3352 58.6728 57.9054 61.3132C56.3089 71.4145 52.2254 78.1384 40.9574 69.6337C38.5319 67.7915 38.2863 64.23 37.8871 63.7081C37.488 63.1861 34.5712 62.3878 34.8475 58.3965C35.1239 54.4051 37.8564 56.4622 38.3784 59.2869L39.7907 61.6817C39.9135 61.8659 40.0977 61.9887 40.3126 62.0194C40.7425 62.0501 41.1109 61.651 41.0188 61.2211L40.067 56.9841C40.067 56.9841 44.0584 58.6114 45.5628 54.9885C47.0673 51.3655 51.949 58.1816 53.9754 53.3919L56.4624 50.5059Z" fill="#FFE3CA"/>
<path d="M47.006 298.893H48.142C48.142 298.893 52.3483 300.95 55.8791 298.893H57.4143L58.2126 301.227C58.2126 301.227 59.7784 304.635 66.0418 302.823C70.2481 301.595 72.428 306.078 72.5508 310.315H47.006V298.893ZM17.2549 298.893H18.3909C18.3909 298.893 22.5972 300.95 26.128 298.893H27.6632L28.4614 301.227C28.4614 301.227 30.0273 304.635 36.2907 302.823C40.497 301.595 42.6769 306.078 42.7997 310.315H17.2549V298.893ZM65.6119 155.818C65.6119 155.818 66.0111 222.873 64.9365 239.207C63.8619 255.541 58.0283 291.525 58.0283 291.525H46.8525C46.8525 291.525 49.9228 241.203 49.9228 236.413C49.9228 231.624 45.5323 188.793 41.2953 187.933C37.3039 187.135 37.396 222.167 37.1811 236.505C36.9661 250.844 27.8474 291.494 27.8474 291.494H17.2856C17.2856 291.494 23.0577 252.686 22.0752 234.387C21.5533 224.408 20.9085 208.075 21.062 191.649C21.1849 177.955 27.6325 157.169 27.6325 157.169L65.6119 155.818Z" fill="#004085"/>
<path d="M27.4175 150.167C28.4 150.535 28.3386 150.474 28.3386 150.474C28.3386 150.474 37.6723 156.184 31.9309 162.386C29.9659 164.505 27.2333 162.939 26.2201 160.544L25.6675 159.224C25.6675 159.193 26.4658 149.767 27.4175 150.167Z" fill="#FFE3CA"/>
</svg>
