<svg width="24" height="27" viewBox="0 0 24 27" fill="none" xmlns="http://www.w3.org/2000/svg">
<path fill-rule="evenodd" clip-rule="evenodd" d="M15.9699 24.3028C18.2616 23.6659 20.6609 23.3446 22.9883 23.0502C23.4896 22.9885 23.955 23.3329 23.9909 23.818C24.0625 24.3035 23.7042 24.7475 23.2387 24.8092C20.9829 25.0926 18.6556 25.3958 16.4714 26.009C16.0059 26.142 15.5044 25.8682 15.3611 25.3972C15.2179 24.9266 15.5044 24.4362 15.9699 24.3028Z" fill="#3B3B45"/>
<path fill-rule="evenodd" clip-rule="evenodd" d="M9.02487 15.2726C12.713 11.545 16.8666 8.29715 20.4831 4.4695C20.8054 4.11202 21.3783 4.09287 21.7364 4.42659C22.0945 4.76066 22.1301 5.32241 21.7721 5.67989C18.1555 9.51853 14.0019 12.777 10.3138 16.5156C9.95572 16.8646 9.38294 16.8695 9.02487 16.5262C8.70261 16.1833 8.6668 15.6216 9.02487 15.2726Z" fill="#EEB2AA"/>
<path fill-rule="evenodd" clip-rule="evenodd" d="M2.11102 0.934781C2.0036 3.0683 1.89638 5.20183 1.78896 7.3357C1.78896 7.8244 1.35907 8.20174 0.857769 8.17798C0.35647 8.15386 -0.00139141 7.73787 -0.00139141 7.24882C0.10603 5.11175 0.213241 2.97503 0.320662 0.838317C0.35647 0.349621 0.786224 -0.0252353 1.28752 0.00136285C1.75302 0.027961 2.14682 0.446439 2.11102 0.934781Z" fill="#3B3B45"/>
</svg>
