<svg width="66" height="79" viewBox="0 0 66 79" fill="none" xmlns="http://www.w3.org/2000/svg">
<path d="M15.0044 27.3017H8.94456C6.7352 27.2997 4.61679 26.2457 3.05454 24.3711C1.49229 22.4964 0.61391 19.9544 0.612305 17.3032C0.621872 14.655 1.50281 12.1185 3.06334 10.2459C4.62387 8.37326 6.73766 7.31617 8.94456 7.30469H27.124C27.7267 7.30469 28.3047 7.59198 28.7309 8.10337C29.1571 8.61475 29.3965 9.30834 29.3965 10.0315C29.3965 10.7548 29.1571 11.4483 28.7309 11.9597C28.3047 12.4711 27.7267 12.7584 27.124 12.7584H8.94456C8.45234 12.7535 7.96435 12.8678 7.50983 13.0946C7.05532 13.3214 6.64363 13.6559 6.29945 14.0782C5.93652 14.4945 5.64806 14.9951 5.45167 15.5496C5.25528 16.1041 5.15508 16.7007 5.15717 17.3032C5.15878 18.5079 5.55832 19.6628 6.26824 20.5147C6.97817 21.3666 7.94058 21.846 8.94456 21.848H15.0044C15.6071 21.848 16.1851 22.1352 16.6112 22.6466C17.0374 23.158 17.2768 23.8516 17.2768 24.5748C17.2768 25.298 17.0374 25.9916 16.6112 26.503C16.1851 27.0144 15.6071 27.3017 15.0044 27.3017ZM51.3633 12.7584H42.6978C42.0951 12.7584 41.5171 12.4711 41.0909 11.9597C40.6648 11.4483 40.4254 10.7548 40.4254 10.0315C40.4254 9.30834 40.6648 8.61475 41.0909 8.10337C41.5171 7.59198 42.0951 7.30469 42.6978 7.30469H51.3633C51.966 7.30469 52.544 7.59198 52.9702 8.10337C53.3964 8.61475 53.6358 9.30834 53.6358 10.0315C53.6358 10.7548 53.3964 11.4483 52.9702 11.9597C52.544 12.4711 51.966 12.7584 51.3633 12.7584Z" fill="#004085"/>
<path d="M51.3618 27.3046H15.0029C14.5537 27.3041 14.1147 27.1439 13.7414 26.8443C13.3681 26.5446 13.0771 26.1189 12.9053 25.6209C12.7335 25.1229 12.6885 24.575 12.776 24.0464C12.8635 23.5177 13.0796 23.0321 13.397 22.6507L29.5464 3.26819C30.4018 2.24125 31.4333 1.45034 32.5693 0.950519C33.7053 0.450702 34.9185 0.253991 36.1243 0.374078C37.3301 0.494166 38.4996 0.928168 39.5514 1.64587C40.6032 2.36357 41.512 3.34773 42.2145 4.52982L53.2101 22.9925C53.4528 23.4001 53.5972 23.8801 53.6275 24.3798C53.6578 24.8794 53.5728 25.3794 53.3819 25.8249C53.1909 26.2704 52.9014 26.6442 52.545 26.9052C52.1887 27.1662 51.7793 27.3044 51.3618 27.3046ZM20.49 21.8509H46.9472L38.521 7.69662C38.2012 7.16023 37.7879 6.71381 37.3099 6.38833C36.8319 6.06285 36.3005 5.86613 35.7528 5.81182C35.205 5.7575 34.6539 5.8469 34.1379 6.07381C33.6218 6.30071 33.1531 6.65968 32.7642 7.12579L20.49 21.8509Z" fill="#007BFF"/>
<path d="M60.4513 60.0282H45.3017C44.699 60.0282 44.121 59.7409 43.6949 59.2296C43.2687 58.7182 43.0293 58.0246 43.0293 57.3014V42.7581C43.0293 42.0349 43.2687 41.3413 43.6949 40.8299C44.121 40.3185 44.699 40.0312 45.3017 40.0312H60.4513C61.8571 40.0332 63.2048 40.7041 64.1988 41.897C65.1929 43.0898 65.752 44.707 65.7536 46.3939V53.6656C65.752 55.3525 65.1929 56.9697 64.1988 58.1625C63.2048 59.3553 61.8571 60.0263 60.4513 60.0282ZM47.5742 54.5745H60.4513C60.6522 54.5745 60.8449 54.4788 60.9869 54.3083C61.129 54.1378 61.2088 53.9066 61.2088 53.6656V46.3939C61.2088 46.1529 61.129 45.9217 60.9869 45.7512C60.8449 45.5807 60.6522 45.485 60.4513 45.485H47.5742V54.5745Z" fill="#004085"/>
<path d="M51.3633 78.2069H8.94456C6.7352 78.2049 4.61679 77.1509 3.05454 75.2762C1.49229 73.4016 0.61391 70.8595 0.612305 68.2084V17.3069C0.612305 16.5837 0.851721 15.8901 1.27789 15.3788C1.70405 14.8674 2.28205 14.5801 2.88474 14.5801C3.48743 14.5801 4.06543 14.8674 4.49159 15.3788C4.91776 15.8901 5.15717 16.5837 5.15717 17.3069V68.2084C5.15878 69.4131 5.55832 70.568 6.26824 71.4199C6.97817 72.2718 7.94058 72.7512 8.94456 72.7531H51.3633C52.3673 72.7512 53.3297 72.2718 54.0396 71.4199C54.7496 70.568 55.1491 69.4131 55.1507 68.2084V64.5725C55.1507 63.8493 55.3901 63.1558 55.8163 62.6444C56.2425 62.133 56.8205 61.8457 57.4232 61.8457C58.0258 61.8457 58.6038 62.133 59.03 62.6444C59.4562 63.1558 59.6956 63.8493 59.6956 64.5725V68.2084C59.694 70.8595 58.8156 73.4016 57.2534 75.2762C55.6911 77.1509 53.5727 78.2049 51.3633 78.2069Z" fill="#004085"/>
<path d="M57.4219 45.4824C56.8192 45.4824 56.2412 45.1951 55.8151 44.6837C55.3889 44.1723 55.1495 43.4788 55.1495 42.7556V28.2123C55.1495 27.9712 55.0697 27.74 54.9276 27.5696C54.7856 27.3991 54.5929 27.3033 54.392 27.3033H8.94333C8.34065 27.3033 7.76264 27.016 7.33648 26.5047C6.91031 25.9933 6.6709 25.2997 6.6709 24.5765C6.6709 23.8533 6.91031 23.1597 7.33648 22.6483C7.76264 22.1369 8.34065 21.8496 8.94333 21.8496H54.392C55.7978 21.8515 57.1455 22.5225 58.1396 23.7153C59.1336 24.9081 59.6928 26.5254 59.6944 28.2123V42.7556C59.6944 43.4788 59.4549 44.1723 59.0288 44.6837C58.6026 45.1951 58.0246 45.4824 57.4219 45.4824Z" fill="#004085"/>
</svg>
