<svg width="154" height="137" viewBox="0 0 154 137" fill="none" xmlns="http://www.w3.org/2000/svg">
<path fill-rule="evenodd" clip-rule="evenodd" d="M59.1038 91.09C67.8359 105.313 79.45 118.762 94.4323 126.091C99.8834 128.758 105.61 130.049 111.46 131.422C111.87 131.519 112.284 131.264 112.382 130.852C112.478 130.439 112.222 130.026 111.809 129.93C106.072 128.582 100.452 127.329 95.1063 124.714C80.3365 117.489 68.9213 104.192 60.333 90.1637L60.5381 90.0142C62.7699 88.3968 64.0034 84.8678 64.3403 80.6113C64.824 74.5102 63.5492 66.9183 61.3701 61.8734C60.3904 59.6067 59.214 57.8462 57.9556 56.8936C56.9749 56.1503 55.9306 55.8643 54.8645 56.0924C52.5929 56.5799 51.3164 58.9119 50.9588 62.2639C50.2089 69.274 53.2284 80.8187 55.8066 85.4508C56.6122 86.897 57.4459 88.3431 58.3098 89.781C57.925 90.0762 57.547 90.3636 57.1668 90.6265C56.0814 91.3724 54.9587 91.9243 53.4403 91.8703C51.0739 91.7834 48.8056 90.6952 46.7258 89.1635C43.4815 86.7707 40.7042 83.2867 38.7591 80.5488C27.9276 65.3001 27.3899 49.3881 30.2604 35.3832C33.1617 21.24 39.5262 9.02169 42.4164 1.31544C42.5659 0.919345 42.3636 0.478633 41.9675 0.32918C41.5714 0.179728 41.1289 0.381017 40.9812 0.778118C38.0718 8.53385 31.6786 20.8382 28.7598 35.0761C25.8101 49.4524 26.3905 65.7829 37.5078 81.4366C39.5337 84.2887 42.4368 87.906 45.8153 90.3972C48.1549 92.1208 50.7222 93.3048 53.3854 93.4022C55.7753 93.4887 57.3762 92.3949 59.1038 91.09ZM59.5368 88.8465L59.6398 88.7731C61.5908 87.3595 62.5175 84.2126 62.8114 80.4906C63.2763 74.628 62.0569 67.3315 59.9611 62.4814C59.2436 60.8181 58.4278 59.45 57.5322 58.5554C56.7925 57.8184 56.0148 57.4137 55.1867 57.5927C54.4037 57.7582 53.8309 58.278 53.4108 59.0259C52.916 59.9031 52.628 61.072 52.4825 62.4259C51.7626 69.162 54.6683 80.2541 57.1461 84.7048C57.9167 86.0865 58.7126 87.4688 59.5368 88.8465Z" fill="white"/>
<path fill-rule="evenodd" clip-rule="evenodd" d="M114.33 130.34C114.108 130.592 113.707 130.838 113.273 131.098C112.239 131.718 110.956 132.273 110.362 132.559C109.98 132.744 109.823 133.203 110.006 133.583C110.191 133.965 110.649 134.125 111.031 133.94C111.758 133.588 113.466 132.845 114.602 132.068C115.211 131.651 115.663 131.201 115.852 130.8C116.176 130.118 115.896 129.413 114.859 128.847C113.632 128.178 111.036 127.488 109.577 125.673C109.312 125.344 108.827 125.292 108.499 125.557C108.169 125.823 108.116 126.306 108.382 126.636C109.775 128.365 112.058 129.238 113.546 129.911C113.828 130.039 114.144 130.226 114.33 130.34Z" fill="white"/>
</svg>
