<svg width="111" height="112" viewBox="0 0 111 112" fill="none" xmlns="http://www.w3.org/2000/svg">
<g filter="url(#filter0_d_60039_16236)">
<path d="M43.75 16C43.75 14.2051 45.2051 12.75 47 12.75H63C63.1212 12.75 63.2375 12.7982 63.3232 12.8839L74.1161 23.6768C74.2018 23.7625 74.25 23.8788 74.25 24V48C74.25 49.7949 72.7949 51.25 71 51.25H47C45.2051 51.25 43.75 49.7949 43.75 48V16Z" stroke="#D0D5DD" stroke-width="1.5"/>
<path d="M63 12.5V20C63 22.2091 64.7909 24 67 24H74.5" stroke="#D0D5DD" stroke-width="1.5"/>
<path d="M36 32C36 30.8954 36.8954 30 38 30H62C63.1046 30 64 30.8954 64 32V44C64 45.1046 63.1046 46 62 46H38C36.8954 46 36 45.1046 36 44V32Z" fill="#7F56D9"/>
<path d="M46.2726 37.2734H44.7172C44.6888 37.0722 44.6308 36.8935 44.5432 36.7372C44.4556 36.5786 44.3432 36.4437 44.2059 36.3324C44.0686 36.2211 43.9099 36.1359 43.73 36.0767C43.5525 36.0175 43.3595 35.9879 43.1512 35.9879C42.7748 35.9879 42.4469 36.0814 42.1675 36.2685C41.8882 36.4531 41.6715 36.723 41.5177 37.0781C41.3638 37.4309 41.2868 37.8594 41.2868 38.3636C41.2868 38.8821 41.3638 39.3177 41.5177 39.6705C41.6739 40.0232 41.8917 40.2895 42.1711 40.4695C42.4504 40.6494 42.7736 40.7393 43.1405 40.7393C43.3465 40.7393 43.5371 40.7121 43.7123 40.6577C43.8898 40.6032 44.0473 40.5239 44.1846 40.4197C44.3219 40.3132 44.4355 40.1842 44.5255 40.0327C44.6178 39.8812 44.6817 39.7083 44.7172 39.5142L46.2726 39.5213C46.2324 39.8551 46.1318 40.1771 45.9708 40.4872C45.8122 40.795 45.5979 41.0708 45.328 41.3146C45.0605 41.5561 44.7409 41.7479 44.3692 41.8899C43.9999 42.0296 43.5821 42.0994 43.1157 42.0994C42.467 42.0994 41.887 41.9527 41.3756 41.6591C40.8666 41.3655 40.4642 40.9406 40.1682 40.3842C39.8747 39.8279 39.7279 39.1544 39.7279 38.3636C39.7279 37.5705 39.877 36.8958 40.1753 36.3395C40.4736 35.7831 40.8785 35.3594 41.3898 35.0682C41.9012 34.7746 42.4765 34.6278 43.1157 34.6278C43.5371 34.6278 43.9277 34.687 44.2876 34.8054C44.6498 34.9238 44.9706 35.0966 45.2499 35.3239C45.5293 35.5488 45.7565 35.8246 45.9317 36.1513C46.1093 36.478 46.2229 36.852 46.2726 37.2734ZM51.3206 36.8189C51.2922 36.5324 51.1702 36.3099 50.9548 36.1513C50.7394 35.9927 50.447 35.9134 50.0777 35.9134C49.8267 35.9134 49.6148 35.9489 49.442 36.0199C49.2692 36.0885 49.1366 36.1844 49.0443 36.3075C48.9543 36.4306 48.9094 36.5703 48.9094 36.7266C48.9046 36.8568 48.9318 36.9704 48.991 37.0675C49.0526 37.1645 49.1366 37.2486 49.2432 37.3196C49.3497 37.3883 49.4728 37.4486 49.6125 37.5007C49.7522 37.5504 49.9013 37.593 50.0599 37.6286L50.7133 37.7848C51.0306 37.8558 51.3218 37.9505 51.5869 38.0689C51.8521 38.1873 52.0817 38.3329 52.2758 38.5057C52.47 38.6785 52.6203 38.8821 52.7268 39.1165C52.8357 39.3509 52.8914 39.6196 52.8937 39.9226C52.8914 40.3677 52.7777 40.7536 52.5528 41.0803C52.3303 41.4046 52.0083 41.6567 51.5869 41.8366C51.1679 42.0142 50.6624 42.103 50.0706 42.103C49.4835 42.103 48.9721 42.013 48.5365 41.8331C48.1032 41.6532 47.7647 41.3868 47.5209 41.0341C47.2794 40.679 47.1527 40.2398 47.1409 39.7166H48.6288C48.6454 39.9605 48.7152 40.1641 48.8383 40.3274C48.9638 40.4884 49.1307 40.6103 49.339 40.6932C49.5497 40.7737 49.7877 40.8139 50.0528 40.8139C50.3132 40.8139 50.5393 40.776 50.7311 40.7003C50.9252 40.6245 51.0756 40.5192 51.1821 40.3842C51.2886 40.2493 51.3419 40.0942 51.3419 39.919C51.3419 39.7557 51.2934 39.6184 51.1963 39.5071C51.1016 39.3958 50.9619 39.3011 50.7773 39.223C50.595 39.1449 50.3712 39.0739 50.1061 39.0099L49.3142 38.8111C48.701 38.6619 48.2169 38.4287 47.8618 38.1115C47.5067 37.7943 47.3303 37.367 47.3327 36.8295C47.3303 36.3892 47.4475 36.0045 47.6842 35.6754C47.9233 35.3464 48.2512 35.0895 48.6679 34.9048C49.0845 34.7202 49.558 34.6278 50.0883 34.6278C50.6281 34.6278 51.0992 34.7202 51.5017 34.9048C51.9065 35.0895 52.2214 35.3464 52.4463 35.6754C52.6712 36.0045 52.7872 36.3857 52.7943 36.8189H51.3206ZM55.2419 34.7273L56.9997 40.2528H57.0672L58.8286 34.7273H60.5331L58.026 42H56.0445L53.5338 34.7273H55.2419Z" fill="white"/>
</g>
<defs>
<filter id="filter0_d_60039_16236" x="0" y="0" width="112" height="112" filterUnits="userSpaceOnUse" color-interpolation-filters="sRGB">
<feFlood flood-opacity="0" result="BackgroundImageFix"/>
<feColorMatrix in="SourceAlpha" type="matrix" values="0 0 0 0 0 0 0 0 0 0 0 0 0 0 0 0 0 0 127 0" result="hardAlpha"/>
<feMorphology radius="12" operator="erode" in="SourceAlpha" result="effect1_dropShadow_60039_16236"/>
<feOffset dy="24"/>
<feGaussianBlur stdDeviation="24"/>
<feComposite in2="hardAlpha" operator="out"/>
<feColorMatrix type="matrix" values="0 0 0 0 0.0625882 0 0 0 0 0.0926346 0 0 0 0 0.15702 0 0 0 0.18 0"/>
<feBlend mode="normal" in2="BackgroundImageFix" result="effect1_dropShadow_60039_16236"/>
<feBlend mode="normal" in="SourceGraphic" in2="effect1_dropShadow_60039_16236" result="shape"/>
</filter>
</defs>
</svg>
