<svg width="128" height="143" viewBox="0 0 128 143" fill="none" xmlns="http://www.w3.org/2000/svg">
<path d="M111.61 4.36479C134.318 16.2213 87.6356 71.0749 87.6356 71.0749C87.6356 71.0749 118.014 51.6823 124.7 71.5603C129.877 86.9544 101.749 106.072 83.9767 116.366C83.9767 116.366 93.6714 126.972 88.229 136.066C77.965 153.217 -6.59535 115.484 3.74979 93.6665C8.62518 83.3843 23.371 88.9887 23.371 88.9887C26.6792 58.9007 37.9716 6.16927 63.1621 22.6139C72.0713 13.115 80.4088 15.9574 84.2754 20.2028C92.5324 8.22392 102.285 -0.504051 111.61 4.36479Z" fill="#333333"/>
<path d="M63.6562 61.2822C63.6562 61.2822 72.4252 37.3945 84.2754 20.2028M47.7911 53.9072C52.5957 37.8554 57.9757 28.1436 63.1621 22.6139M22.3141 101.616C22.4817 98.3158 22.8236 93.9671 23.371 88.9887M69.5362 124.245C69.5362 124.245 76.0956 120.931 83.9767 116.366M53.8467 72.7129C49.2018 79.2152 46.4929 87.6608 45.2611 93.5598M72.3377 80.7006C67.6234 86.7424 64.8688 92.6803 61.868 99.3698M83.9767 116.366C101.749 106.072 129.877 86.9544 124.7 71.5603C118.014 51.6823 87.6356 71.0749 87.6356 71.0749C87.6356 71.0749 134.318 16.2213 111.61 4.36479C102.285 -0.504051 92.5324 8.22392 84.2754 20.2028M83.9767 116.366C83.9767 116.366 93.6714 126.972 88.229 136.066C77.965 153.217 -6.59535 115.484 3.74979 93.6665C8.62518 83.3843 23.371 88.9887 23.371 88.9887M23.371 88.9887C26.6792 58.9007 37.9716 6.16927 63.1621 22.6139M63.1621 22.6139C72.0713 13.115 80.4088 15.9574 84.2754 20.2028" stroke="#757575" stroke-width="4"/>
</svg>
