<svg width="105" height="104" viewBox="0 0 105 104" fill="none" xmlns="http://www.w3.org/2000/svg">
<rect x="0.5" width="104" height="104" rx="52" fill="url(#paint0_linear_60039_14520)"/>
<g filter="url(#filter0_dd_60039_14520)">
<path d="M36.5 36C36.5 33.7909 38.2909 32 40.5 32H56.5L68.5 44V68C68.5 70.2091 66.7091 72 64.5 72H40.5C38.2909 72 36.5 70.2091 36.5 68V36Z" fill="#004085"/>
<path opacity="0.3" d="M56.5 32L68.5 44H60.5C58.2909 44 56.5 42.2091 56.5 40V32Z" fill="white"/>
<path d="M53.1666 52.6667L52.4229 51.1793C52.2089 50.7512 52.1018 50.5372 51.9422 50.3808C51.801 50.2425 51.6308 50.1373 51.444 50.0729C51.2327 50 50.9934 50 50.5148 50H47.9666C47.2198 50 46.8465 50 46.5613 50.1453C46.3104 50.2732 46.1064 50.4771 45.9786 50.728C45.8333 51.0132 45.8333 51.3866 45.8333 52.1333V52.6667M45.8333 52.6667H55.9666C57.0867 52.6667 57.6467 52.6667 58.0746 52.8847C58.4509 53.0764 58.7569 53.3824 58.9486 53.7587C59.1666 54.1865 59.1666 54.7466 59.1666 55.8667V58.8C59.1666 59.9201 59.1666 60.4802 58.9486 60.908C58.7569 61.2843 58.4509 61.5903 58.0746 61.782C57.6467 62 57.0867 62 55.9666 62H49.0333C47.9131 62 47.3531 62 46.9253 61.782C46.5489 61.5903 46.243 61.2843 46.0512 60.908C45.8333 60.4802 45.8333 59.9201 45.8333 58.8V52.6667Z" stroke="white" stroke-width="1.5" stroke-linecap="round" stroke-linejoin="round"/>
</g>
<defs>
<filter id="filter0_dd_60039_14520" x="29.5" y="30" width="46" height="46" filterUnits="userSpaceOnUse" color-interpolation-filters="sRGB">
<feFlood flood-opacity="0" result="BackgroundImageFix"/>
<feColorMatrix in="SourceAlpha" type="matrix" values="0 0 0 0 0 0 0 0 0 0 0 0 0 0 0 0 0 0 127 0" result="hardAlpha"/>
<feOffset dy="1"/>
<feGaussianBlur stdDeviation="1"/>
<feComposite in2="hardAlpha" operator="out"/>
<feColorMatrix type="matrix" values="0 0 0 0 0.0627451 0 0 0 0 0.0941176 0 0 0 0 0.156863 0 0 0 0.06 0"/>
<feBlend mode="normal" in2="BackgroundImageFix" result="effect1_dropShadow_60039_14520"/>
<feColorMatrix in="SourceAlpha" type="matrix" values="0 0 0 0 0 0 0 0 0 0 0 0 0 0 0 0 0 0 127 0" result="hardAlpha"/>
<feOffset dy="1"/>
<feGaussianBlur stdDeviation="1.5"/>
<feComposite in2="hardAlpha" operator="out"/>
<feColorMatrix type="matrix" values="0 0 0 0 0.0627451 0 0 0 0 0.0941176 0 0 0 0 0.156863 0 0 0 0.1 0"/>
<feBlend mode="normal" in2="effect1_dropShadow_60039_14520" result="effect2_dropShadow_60039_14520"/>
<feBlend mode="normal" in="SourceGraphic" in2="effect2_dropShadow_60039_14520" result="shape"/>
</filter>
<linearGradient id="paint0_linear_60039_14520" x1="52.5" y1="0" x2="52.5" y2="104" gradientUnits="userSpaceOnUse">
<stop stop-color="#F9FAFB"/>
<stop offset="1" stop-color="#EDF0F3"/>
</linearGradient>
</defs>
</svg>
