<svg width="440" height="336" viewBox="0 0 440 336" fill="none" xmlns="http://www.w3.org/2000/svg">
<path d="M215.494 95.9334C241.061 79.0849 276.989 82.5191 299.59 107.528C311.948 121.206 316.967 140.021 329.795 153.406C344.236 168.464 361.496 183.111 368.042 203.658C374.998 225.497 368.893 250.535 353.336 267.237C334.403 287.549 306.576 281.444 280.276 281.121C172.58 279.771 92.5343 207.885 194.389 119.269C202.902 111.813 207.04 101.481 215.494 95.9334Z" fill="#CCE9FF"/>
<path d="M310.95 158.779H276.607C274.67 158.779 273.084 157.194 273.084 155.256V132.948C273.084 131.011 274.67 129.426 276.607 129.426H310.95C312.887 129.426 314.472 131.011 314.472 132.948V155.256C314.472 157.194 312.887 158.779 310.95 158.779Z" fill="white"/>
<path d="M271.206 133.565V155.609C271.206 158.662 273.672 161.128 276.724 161.128H309.776C312.829 161.128 315.294 158.662 315.294 155.609V133.565C315.294 130.513 312.829 128.047 309.776 128.047H276.724C273.672 128.047 271.206 130.513 271.206 133.565ZM274.083 156.167C274.053 155.991 273.965 155.815 273.965 155.639V133.595C273.965 133.301 274.053 133.037 274.141 132.802L285.794 142.811L274.083 156.167ZM309.776 130.806C309.952 130.806 310.128 130.865 310.304 130.923L293.25 145.541L276.196 130.923C276.372 130.894 276.519 130.806 276.724 130.806H309.776ZM300.706 142.753L312.359 132.743C312.447 133.008 312.535 133.272 312.535 133.536V155.58C312.535 155.785 312.476 155.932 312.418 156.108L300.706 142.753ZM276.724 158.368C276.431 158.368 276.196 158.28 275.932 158.222L287.879 144.573L292.34 148.418C292.604 148.653 292.927 148.741 293.25 148.741C293.573 148.741 293.896 148.623 294.16 148.418L298.622 144.573L310.568 158.222C310.304 158.31 310.069 158.368 309.776 158.368H276.724Z" fill="#FFBE55"/>
<path d="M327.682 221.888H301.851C299.914 221.888 298.329 220.303 298.329 218.366V202.104C298.329 200.167 299.914 198.582 301.851 198.582H327.682C329.619 198.582 331.204 200.167 331.204 202.104V218.366C331.204 220.303 329.619 221.888 327.682 221.888Z" fill="white"/>
<path d="M297.39 201.721V219.157C297.39 221.564 299.327 223.53 301.763 223.53H327.917C330.324 223.53 332.29 221.593 332.29 219.157V201.721C332.29 199.314 330.353 197.348 327.917 197.348H301.763C299.356 197.377 297.39 199.314 297.39 201.721ZM299.65 219.597C299.62 219.45 299.562 219.333 299.562 219.157V201.721C299.562 201.486 299.62 201.281 299.679 201.075L308.896 208.971L299.65 219.597ZM327.917 199.549C328.064 199.549 328.181 199.608 328.328 199.637L314.855 211.202L301.382 199.637C301.528 199.608 301.646 199.549 301.793 199.549H327.917ZM320.725 209.001L329.942 201.105C330.001 201.31 330.06 201.516 330.06 201.751V219.186C330.06 219.333 330.001 219.48 329.971 219.626L320.725 209.001ZM301.763 221.329C301.528 221.329 301.352 221.27 301.147 221.212L310.598 210.41L314.15 213.433C314.356 213.609 314.62 213.697 314.855 213.697C315.119 213.697 315.354 213.609 315.559 213.433L319.111 210.41L328.563 221.212C328.357 221.27 328.152 221.329 327.946 221.329H301.763Z" fill="#2A94F4"/>
<path d="M340.421 129.836V141.636C340.421 143.279 341.742 144.6 343.386 144.6H361.085C362.729 144.6 364.05 143.279 364.05 141.636V129.836C364.05 128.192 362.729 126.871 361.085 126.871H343.386C341.742 126.871 340.421 128.192 340.421 129.836ZM341.977 141.929C341.947 141.841 341.918 141.753 341.918 141.636V129.836C341.918 129.689 341.947 129.542 342.006 129.395L348.258 134.738L341.977 141.929ZM361.085 128.368C361.173 128.368 361.262 128.397 361.35 128.427L352.221 136.264L343.092 128.427C343.18 128.397 343.268 128.368 343.356 128.368H361.085ZM356.242 134.767L362.494 129.425C362.524 129.572 362.582 129.689 362.582 129.865V141.665C362.582 141.753 362.553 141.87 362.524 141.958L356.242 134.767ZM343.386 143.103C343.239 143.103 343.092 143.074 342.975 143.015L349.374 135.706L351.78 137.761C351.927 137.878 352.103 137.937 352.25 137.937C352.426 137.937 352.602 137.878 352.72 137.761L355.127 135.706L361.526 143.015C361.379 143.045 361.262 143.103 361.115 143.103H343.386Z" fill="#CCE9FF"/>
<path d="M345.293 190.773H334.725C332.788 190.773 331.203 189.188 331.203 187.251V180.97C331.203 179.032 332.788 177.447 334.725 177.447H345.293C347.23 177.447 348.815 179.032 348.815 180.97V187.251C348.815 189.188 347.23 190.773 345.293 190.773Z" fill="white"/>
<path d="M330.764 179.5V188.659C330.764 189.921 331.791 190.948 333.053 190.948H346.79C348.053 190.948 349.08 189.921 349.08 188.659V179.5C349.08 178.238 348.053 177.211 346.79 177.211H333.053C331.791 177.24 330.764 178.238 330.764 179.5ZM331.967 188.893C331.938 188.805 331.908 188.747 331.908 188.659V179.5C331.908 179.383 331.938 179.266 331.967 179.178L336.81 183.316L331.967 188.893ZM346.79 178.385C346.878 178.385 346.937 178.414 346.996 178.414L339.922 184.49L332.848 178.414C332.906 178.414 332.994 178.385 333.053 178.385H346.79ZM343.004 183.316L347.847 179.178C347.876 179.295 347.906 179.383 347.906 179.5V188.659C347.906 188.747 347.876 188.805 347.847 188.893L343.004 183.316ZM333.053 189.803C332.936 189.803 332.818 189.774 332.73 189.745L337.691 184.08L339.54 185.665C339.658 185.753 339.775 185.811 339.922 185.811C340.069 185.811 340.186 185.753 340.303 185.665L342.153 184.08L347.113 189.745C346.996 189.774 346.908 189.803 346.79 189.803H333.053Z" fill="#FFBE55"/>
<path d="M309.893 104.063V113.573C309.893 114.894 310.95 115.951 312.271 115.951H326.507C327.828 115.951 328.884 114.894 328.884 113.573V104.063C328.884 102.742 327.828 101.686 326.507 101.686H312.271C310.979 101.686 309.893 102.742 309.893 104.063ZM311.155 113.808C311.126 113.72 311.097 113.662 311.097 113.573V104.063C311.097 103.946 311.126 103.828 311.155 103.711L316.175 108.026L311.155 113.808ZM326.536 102.889C326.624 102.889 326.683 102.918 326.771 102.948L319.433 109.259L312.095 102.948C312.183 102.918 312.241 102.889 312.329 102.889H326.536ZM322.632 108.026L327.652 103.711C327.681 103.828 327.71 103.946 327.71 104.063V113.573C327.71 113.662 327.681 113.72 327.652 113.808L322.632 108.026ZM312.271 114.748C312.153 114.748 312.036 114.718 311.918 114.689L317.055 108.818L318.992 110.462C319.11 110.55 319.227 110.609 319.374 110.609C319.521 110.609 319.638 110.55 319.756 110.462L321.693 108.818L326.83 114.689C326.712 114.718 326.624 114.748 326.478 114.748H312.271Z" fill="#2A94F4"/>
<path d="M286.059 163.855C286.545 163.855 286.939 163.461 286.939 162.974C286.939 162.488 286.545 162.094 286.059 162.094C285.572 162.094 285.178 162.488 285.178 162.974C285.178 163.461 285.572 163.855 286.059 163.855Z" fill="#6B6B6B"/>
<path d="M283.27 165.355C283.756 165.355 284.15 164.961 284.15 164.474C284.15 163.988 283.756 163.594 283.27 163.594C282.783 163.594 282.389 163.988 282.389 164.474C282.389 164.961 282.783 165.355 283.27 165.355Z" fill="#6B6B6B"/>
<path d="M280.54 166.939C281.027 166.939 281.421 166.545 281.421 166.058C281.421 165.572 281.027 165.178 280.54 165.178C280.054 165.178 279.66 165.572 279.66 166.058C279.66 166.545 280.054 166.939 280.54 166.939Z" fill="#6B6B6B"/>
<path d="M278.339 169.199C278.825 169.199 279.22 168.804 279.22 168.318C279.22 167.832 278.825 167.438 278.339 167.438C277.853 167.438 277.458 167.832 277.458 168.318C277.458 168.804 277.853 169.199 278.339 169.199Z" fill="#6B6B6B"/>
<path d="M276.46 171.722C276.947 171.722 277.341 171.328 277.341 170.842C277.341 170.355 276.947 169.961 276.46 169.961C275.974 169.961 275.58 170.355 275.58 170.842C275.58 171.328 275.974 171.722 276.46 171.722Z" fill="#6B6B6B"/>
<path d="M275.022 174.542C275.509 174.542 275.903 174.148 275.903 173.662C275.903 173.176 275.509 172.781 275.022 172.781C274.536 172.781 274.142 173.176 274.142 173.662C274.142 174.148 274.536 174.542 275.022 174.542Z" fill="#6B6B6B"/>
<path d="M274.112 177.564C274.598 177.564 274.993 177.17 274.993 176.683C274.993 176.197 274.598 175.803 274.112 175.803C273.626 175.803 273.231 176.197 273.231 176.683C273.231 177.17 273.626 177.564 274.112 177.564Z" fill="#6B6B6B"/>
<path d="M290.902 190.039C291.388 190.039 291.783 189.644 291.783 189.158C291.783 188.672 291.388 188.277 290.902 188.277C290.416 188.277 290.021 188.672 290.021 189.158C290.021 189.644 290.416 190.039 290.902 190.039Z" fill="#6B6B6B"/>
<path d="M287.732 190.039C288.218 190.039 288.613 189.644 288.613 189.158C288.613 188.672 288.218 188.277 287.732 188.277C287.246 188.277 286.852 188.672 286.852 189.158C286.852 189.644 287.246 190.039 287.732 190.039Z" fill="#6B6B6B"/>
<path d="M284.562 190.039C285.049 190.039 285.443 189.644 285.443 189.158C285.443 188.672 285.049 188.277 284.562 188.277C284.076 188.277 283.682 188.672 283.682 189.158C283.682 189.644 284.076 190.039 284.562 190.039Z" fill="#6B6B6B"/>
<path d="M281.392 190.039C281.878 190.039 282.272 189.644 282.272 189.158C282.272 188.672 281.878 188.277 281.392 188.277C280.905 188.277 280.511 188.672 280.511 189.158C280.511 189.644 280.905 190.039 281.392 190.039Z" fill="#6B6B6B"/>
<path d="M278.222 190.039C278.708 190.039 279.102 189.644 279.102 189.158C279.102 188.672 278.708 188.277 278.222 188.277C277.736 188.277 277.341 188.672 277.341 189.158C277.341 189.644 277.736 190.039 278.222 190.039Z" fill="#6B6B6B"/>
<path d="M327.593 184.933C328.08 184.933 328.474 184.539 328.474 184.052C328.474 183.566 328.08 183.172 327.593 183.172C327.107 183.172 326.713 183.566 326.713 184.052C326.713 184.539 327.107 184.933 327.593 184.933Z" fill="#6B6B6B"/>
<path d="M324.423 184.843C324.909 184.843 325.304 184.449 325.304 183.963C325.304 183.476 324.909 183.082 324.423 183.082C323.937 183.082 323.542 183.476 323.542 183.963C323.542 184.449 323.937 184.843 324.423 184.843Z" fill="#6B6B6B"/>
<path d="M321.253 184.755C321.739 184.755 322.134 184.361 322.134 183.875C322.134 183.388 321.739 182.994 321.253 182.994C320.767 182.994 320.373 183.388 320.373 183.875C320.373 184.361 320.767 184.755 321.253 184.755Z" fill="#6B6B6B"/>
<path d="M318.171 185.519C318.657 185.519 319.052 185.125 319.052 184.638C319.052 184.152 318.657 183.758 318.171 183.758C317.685 183.758 317.291 184.152 317.291 184.638C317.291 185.125 317.685 185.519 318.171 185.519Z" fill="#6B6B6B"/>
<path d="M315.118 186.369C315.604 186.369 315.998 185.974 315.998 185.488C315.998 185.002 315.604 184.607 315.118 184.607C314.632 184.607 314.237 185.002 314.237 185.488C314.237 185.974 314.632 186.369 315.118 186.369Z" fill="#6B6B6B"/>
<path d="M312.506 188.13C312.992 188.13 313.386 187.736 313.386 187.25C313.386 186.763 312.992 186.369 312.506 186.369C312.019 186.369 311.625 186.763 311.625 187.25C311.625 187.736 312.019 188.13 312.506 188.13Z" fill="#6B6B6B"/>
<path d="M310.128 190.187C310.614 190.187 311.009 189.793 311.009 189.306C311.009 188.82 310.614 188.426 310.128 188.426C309.642 188.426 309.248 188.82 309.248 189.306C309.248 189.793 309.642 190.187 310.128 190.187Z" fill="#6B6B6B"/>
<path d="M308.22 192.71C308.707 192.71 309.101 192.316 309.101 191.83C309.101 191.343 308.707 190.949 308.22 190.949C307.734 190.949 307.34 191.343 307.34 191.83C307.34 192.316 307.734 192.71 308.22 192.71Z" fill="#6B6B6B"/>
<path d="M306.87 195.558C307.356 195.558 307.75 195.164 307.75 194.677C307.75 194.191 307.356 193.797 306.87 193.797C306.384 193.797 305.989 194.191 305.989 194.677C305.989 195.164 306.384 195.558 306.87 195.558Z" fill="#6B6B6B"/>
<path d="M342.358 148.24C342.844 148.24 343.239 147.845 343.239 147.359C343.239 146.873 342.844 146.479 342.358 146.479C341.872 146.479 341.478 146.873 341.478 147.359C341.478 147.845 341.872 148.24 342.358 148.24Z" fill="#6B6B6B"/>
<path d="M339.745 150.06C340.232 150.06 340.626 149.666 340.626 149.179C340.626 148.693 340.232 148.299 339.745 148.299C339.259 148.299 338.865 148.693 338.865 149.179C338.865 149.666 339.259 150.06 339.745 150.06Z" fill="#6B6B6B"/>
<path d="M336.84 151.265C337.326 151.265 337.72 150.871 337.72 150.384C337.72 149.898 337.326 149.504 336.84 149.504C336.353 149.504 335.959 149.898 335.959 150.384C335.959 150.871 336.353 151.265 336.84 151.265Z" fill="#6B6B6B"/>
<path d="M333.875 152.41C334.361 152.41 334.755 152.015 334.755 151.529C334.755 151.043 334.361 150.648 333.875 150.648C333.388 150.648 332.994 151.043 332.994 151.529C332.994 152.015 333.388 152.41 333.875 152.41Z" fill="#6B6B6B"/>
<path d="M330.793 153.083C331.279 153.083 331.673 152.689 331.673 152.203C331.673 151.717 331.279 151.322 330.793 151.322C330.306 151.322 329.912 151.717 329.912 152.203C329.912 152.689 330.306 153.083 330.793 153.083Z" fill="#6B6B6B"/>
<path d="M327.681 153.701C328.168 153.701 328.562 153.306 328.562 152.82C328.562 152.334 328.168 151.939 327.681 151.939C327.195 151.939 326.801 152.334 326.801 152.82C326.801 153.306 327.195 153.701 327.681 153.701Z" fill="#6B6B6B"/>
<path d="M324.511 153.964C324.998 153.964 325.392 153.57 325.392 153.084C325.392 152.597 324.998 152.203 324.511 152.203C324.025 152.203 323.631 152.597 323.631 153.084C323.631 153.57 324.025 153.964 324.511 153.964Z" fill="#6B6B6B"/>
<path d="M321.341 154.081C321.827 154.081 322.222 153.687 322.222 153.201C322.222 152.715 321.827 152.32 321.341 152.32C320.855 152.32 320.46 152.715 320.46 153.201C320.46 153.687 320.855 154.081 321.341 154.081Z" fill="#6B6B6B"/>
<path d="M318.171 153.994C318.657 153.994 319.052 153.599 319.052 153.113C319.052 152.627 318.657 152.232 318.171 152.232C317.685 152.232 317.291 152.627 317.291 153.113C317.291 153.599 317.685 153.994 318.171 153.994Z" fill="#6B6B6B"/>
<path d="M306.196 111.08C306.682 111.08 307.076 110.685 307.076 110.199C307.076 109.713 306.682 109.318 306.196 109.318C305.709 109.318 305.315 109.713 305.315 110.199C305.315 110.685 305.709 111.08 306.196 111.08Z" fill="#6B6B6B"/>
<path d="M303.142 111.902C303.629 111.902 304.023 111.508 304.023 111.021C304.023 110.535 303.629 110.141 303.142 110.141C302.656 110.141 302.262 110.535 302.262 111.021C302.262 111.508 302.656 111.902 303.142 111.902Z" fill="#6B6B6B"/>
<path d="M300.618 113.751C301.104 113.751 301.498 113.357 301.498 112.871C301.498 112.384 301.104 111.99 300.618 111.99C300.132 111.99 299.737 112.384 299.737 112.871C299.737 113.357 300.132 113.751 300.618 113.751Z" fill="#6B6B6B"/>
<path d="M298.739 116.187C299.226 116.187 299.62 115.793 299.62 115.306C299.62 114.82 299.226 114.426 298.739 114.426C298.253 114.426 297.859 114.82 297.859 115.306C297.859 115.793 298.253 116.187 298.739 116.187Z" fill="#6B6B6B"/>
<path d="M297.624 119.152C298.11 119.152 298.504 118.758 298.504 118.271C298.504 117.785 298.11 117.391 297.624 117.391C297.137 117.391 296.743 117.785 296.743 118.271C296.743 118.758 297.137 119.152 297.624 119.152Z" fill="#6B6B6B"/>
<path d="M297.272 122.292C297.758 122.292 298.152 121.898 298.152 121.412C298.152 120.926 297.758 120.531 297.272 120.531C296.785 120.531 296.391 120.926 296.391 121.412C296.391 121.898 296.785 122.292 297.272 122.292Z" fill="#6B6B6B"/>
<path d="M297.507 125.462C297.993 125.462 298.387 125.068 298.387 124.582C298.387 124.095 297.993 123.701 297.507 123.701C297.02 123.701 296.626 124.095 296.626 124.582C296.626 125.068 297.02 125.462 297.507 125.462Z" fill="#6B6B6B"/>
<path d="M246.315 282.353C246.55 282.265 246.755 282.207 246.99 282.118C246.99 282.118 246.902 281.942 246.755 281.59C244.348 276.6 224.329 237.15 185.73 229.577C185.437 229.518 185.114 229.459 184.82 229.401C179.918 228.52 174.752 228.138 169.292 228.403C169.292 228.403 161.631 228.549 152.209 235.183C152.004 235.33 151.798 235.477 151.563 235.623C147.336 238.706 142.787 243.138 138.413 249.419L138.149 249.772C138.149 249.772 138.208 249.948 138.354 250.271C139.705 253.382 147.571 269.966 166.181 280.856C166.416 281.003 166.68 281.15 166.915 281.267C183.793 290.924 209.242 295.797 246.315 282.353Z" fill="#0B4870"/>
<path d="M246.902 282.53L246.99 282.119L247.078 281.708L246.755 281.62L138.413 249.479L138.149 249.831C138.149 249.831 138.208 250.007 138.354 250.33L246.315 282.354L246.902 282.53Z" fill="white"/>
<path d="M166.944 281.355L183.118 263.215L182.589 262.569L166.21 280.944C166.445 281.091 166.68 281.208 166.944 281.355ZM202.901 269.056L203.811 269.173L185.73 229.606C185.436 229.547 185.114 229.488 184.82 229.43L202.901 269.056ZM162.336 257.315L162.981 256.904L152.179 235.212C151.974 235.359 151.769 235.506 151.534 235.653L162.336 257.315Z" fill="white"/>
<path d="M244.788 280.62L245.141 280.884C245.141 280.884 245.199 280.767 245.346 280.591C247.225 277.626 261.608 253.498 252.596 230.221C252.538 230.045 252.45 229.84 252.391 229.663C251.217 226.728 249.661 223.822 247.665 220.975C247.665 220.975 244.994 216.924 238.243 214.106C238.096 214.048 237.949 213.989 237.773 213.93C234.691 212.697 230.758 211.758 225.914 211.553H225.621C225.621 211.553 225.562 211.641 225.415 211.846C224.212 213.607 217.96 223.441 218.429 237.148C218.429 237.325 218.429 237.501 218.459 237.677C219.016 249.976 225.034 265.269 244.788 280.62Z" fill="#2A94F4"/>
<path d="M244.906 281.005L245.17 280.917L245.434 280.829L245.376 280.624L225.915 211.615H225.621C225.621 211.615 225.562 211.703 225.416 211.909L244.789 280.683L244.906 281.005Z" fill="white"/>
<path d="M218.458 237.678L233.663 240.232L233.81 239.733L218.399 237.15C218.429 237.326 218.429 237.502 218.458 237.678ZM237.244 252.824L237.479 253.353L252.596 230.252C252.537 230.076 252.449 229.87 252.39 229.694L237.244 252.824ZM229.788 227.082L230.229 227.287L238.213 214.137C238.066 214.078 237.919 214.02 237.743 213.961L229.788 227.082Z" fill="white"/>
<path d="M245.023 282.209C245.229 282.238 245.434 282.238 245.61 282.267V281.827C245.61 277.483 244.7 242.817 218.048 224.266C217.842 224.119 217.637 223.972 217.402 223.826C213.997 221.536 210.181 219.481 205.925 217.808C205.925 217.808 200.025 215.284 190.456 216.752C190.25 216.781 190.016 216.81 189.81 216.84C185.466 217.573 180.388 219.129 174.781 222.064C174.664 222.123 174.576 222.182 174.458 222.241C174.458 222.241 174.458 222.387 174.429 222.681C174.312 225.323 174.282 239.706 184.527 253.766C184.673 253.942 184.791 254.118 184.938 254.323C194.272 266.828 211.913 278.98 245.023 282.209Z" fill="#FFBE55"/>
<path d="M245.405 282.529L245.61 282.265L245.816 282.001L245.61 281.825L174.781 222.062C174.664 222.121 174.576 222.18 174.459 222.239C174.459 222.239 174.459 222.385 174.429 222.679L244.994 282.207L245.405 282.529Z" fill="white"/>
<path d="M184.937 254.292L203.841 247.042L203.665 246.396L184.526 253.735C184.673 253.94 184.791 254.116 184.937 254.292ZM216.815 257.932L217.46 258.343L218.077 224.235C217.871 224.088 217.666 223.942 217.431 223.795L216.815 257.932ZM190.162 235.771L190.808 235.712L190.456 216.721C190.25 216.75 190.015 216.779 189.81 216.809L190.162 235.771Z" fill="white"/>
<path d="M262.136 283.909L261.05 292.421L257.381 293.742L258.35 283.527L262.136 283.909ZM245.405 283.909L244.319 292.421L240.65 293.742L241.619 283.527L245.405 283.909Z" fill="#DBA17B"/>
<path d="M250.159 178.59L244.377 185.957L249.895 188.951L256.089 181.29L250.159 178.59Z" fill="#CC9271"/>
<path d="M264.984 179.121C264.807 178.006 264.69 176.861 264.602 175.716C264.543 174.806 264.573 173.896 264.602 172.986C264.69 172.076 264.69 171.167 264.631 170.315C264.631 170.345 264.602 170.374 264.602 170.403C264.543 169.64 264.426 168.877 264.22 168.143C263.633 166.294 262.43 164.562 260.551 163.916C256.794 162.654 252.215 166.177 250.307 171.812C248.399 177.448 249.896 183.054 253.653 184.317C256.324 185.227 259.406 183.7 261.637 180.736C262.518 180.706 263.398 180.648 264.25 180.413C264.543 180.325 264.837 180.207 264.984 179.943C265.072 179.679 265.042 179.385 264.984 179.121Z" fill="#DBA17B"/>
<path d="M268.095 169.844C269.298 169.433 270.326 168.405 270.561 167.172C270.795 165.91 270.091 164.501 268.888 164.09C267.978 163.767 266.892 164.032 266.07 163.562C265.571 163.268 265.248 162.769 264.896 162.329C262.958 159.864 259.759 158.455 256.647 158.689C253.536 158.924 250.571 160.773 249.016 163.474C247.695 165.763 247.372 168.493 247.607 171.106C247.841 173.718 248.634 176.272 249.397 178.767C250.689 176.213 251.98 173.659 253.272 171.135C253.565 170.577 253.859 169.99 254.387 169.667C254.916 169.345 255.737 169.374 256.031 169.902C256.236 170.254 256.178 170.695 256.178 171.076C256.178 171.487 256.236 171.957 256.589 172.133C256.97 172.339 257.469 172.104 257.821 171.84C258.585 171.282 259.26 170.607 259.876 169.873C260.258 169.403 260.639 168.816 261.197 168.581C261.813 168.317 262.342 168.611 262.9 168.934C263.663 169.374 264.455 169.785 265.336 169.961C266.246 170.137 267.214 170.137 268.095 169.844ZM264.22 223.236C265.365 230.575 266.451 243.343 267.596 250.681C269.269 261.454 263.956 277.569 261.99 288.282C260.551 288.106 259.289 287.666 257.851 287.49C258.32 269.32 257.499 246.161 256.324 228.021C258.878 228.344 261.667 222.914 264.22 223.236Z" fill="#0B4870"/>
<path d="M246.403 228.345C247.9 228.433 249.367 227.083 250.864 227.201C252.684 227.318 254.651 227.67 256.383 228.199C258.115 228.727 260.14 227.112 261.842 226.525C262.195 229.461 261.578 234.685 261.021 237.591C259.729 244.401 258.232 251.152 256.5 257.845C255.561 261.543 252.772 265.095 251.305 268.617C250.688 270.114 250.101 271.67 249.544 273.196C248.369 276.367 246.344 285.29 245.17 288.46C243.732 288.343 242.264 288.313 240.826 288.196C240.972 284.996 242.235 275.78 242.352 272.58C242.587 267.238 245.258 261.631 247.371 256.7C246.315 251.593 246.285 246.045 246.315 240.82C246.344 236.212 246.373 232.924 246.403 228.345Z" fill="#0E538C"/>
<path d="M266.686 208.62C267.214 208.708 267.83 208.679 268.241 208.327C268.447 208.151 268.594 207.886 268.74 207.681C269.239 207.094 270.091 206.8 270.824 206.977C272.351 207.358 273.085 209.295 274.611 209.618C274.846 209.677 275.081 209.677 275.316 209.765C275.55 209.853 275.756 210 275.785 210.235C275.844 210.528 275.638 210.763 275.433 210.998C275.169 211.291 274.875 211.585 274.611 211.878C274.494 211.996 274.347 212.143 274.2 212.201C273.877 212.348 273.466 212.201 273.202 212.407C272.967 212.583 272.909 212.935 272.644 213.111C272.263 213.346 271.734 212.994 271.294 213.17C271.059 213.258 270.913 213.464 270.736 213.581C270.414 213.786 269.973 213.757 269.592 213.64C269.21 213.493 268.887 213.258 268.564 213.082C268.124 212.847 267.654 212.671 267.185 212.524C265.893 212.201 264.514 212.289 263.163 212.407C263.105 211.35 263.075 210.293 263.017 209.237C263.017 209.061 263.017 208.855 263.105 208.679C263.281 208.356 263.75 208.356 264.132 208.444C264.602 208.562 264.836 208.532 265.277 208.444C265.717 208.356 266.245 208.562 266.686 208.62Z" fill="#DBA17B"/>
<path d="M270.15 212.67C270.003 212.435 270.062 212.112 270.297 211.966L278.75 206.389C278.985 206.242 279.308 206.301 279.455 206.535C279.602 206.77 279.543 207.093 279.308 207.24L270.854 212.817C270.619 212.964 270.297 212.905 270.15 212.67Z" fill="#0B4870"/>
<path d="M263.398 288.02C263.515 287.756 263.838 287.667 264.044 287.844C264.954 288.607 267.39 290.339 272.233 291.454C272.233 291.454 273.407 291.689 274.258 293.068H256.294V289.898C256.294 289.546 256.705 289.37 256.97 289.575L257.674 290.162C257.997 290.456 258.437 290.603 258.848 290.603L261.431 290.632C261.989 290.632 262.488 290.309 262.693 289.781L263.398 288.02Z" fill="#CCE9FF"/>
<path d="M274.28 294.926H256.316V293.077H274.28V294.926Z" fill="#0E538C"/>
<path d="M245.845 289.017C246.021 288.811 246.374 288.841 246.52 289.076C247.107 290.103 248.839 292.539 252.978 295.269C252.978 295.269 254.005 295.915 254.358 297.47L237.45 291.394L238.536 288.4C238.654 288.078 239.094 288.019 239.27 288.342L239.71 289.134C239.916 289.516 240.268 289.809 240.679 289.956L243.086 290.837C243.614 291.042 244.201 290.866 244.554 290.455L245.845 289.017Z" fill="#CCE9FF"/>
<path d="M253.698 299.221L236.796 293.137L237.422 291.397L254.325 297.481L253.698 299.221Z" fill="#0E538C"/>
<path d="M263.662 207.121C264.954 211.436 265.922 218.217 266.539 222.678C266.686 223.735 266.598 227.727 265.864 228.49C265.423 228.96 254.064 230.222 249.338 231.778C248.692 231.983 245.61 233.187 244.994 232.923C244.113 232.541 243.644 228.666 243.849 227.757C246.579 215.986 246.579 224.645 242.587 201.486C241.794 196.848 240.268 192.562 241.853 188.13C242.381 186.662 246.373 182.377 246.373 182.377C246.373 182.377 247.724 183.815 249.103 184.637C250.248 185.312 251.745 186.516 252.714 186.751C257.146 187.778 262.107 201.926 263.662 207.121Z" fill="#2A94F4"/>
<path d="M258.173 238.528C258.555 239.35 258.731 240.26 258.819 241.141C258.936 242.696 258.76 244.252 258.32 245.72C257.674 245.573 257.146 244.986 257.058 244.311C257.351 244.78 257.087 245.485 256.559 245.632C256.031 245.778 255.443 245.279 255.473 244.722C255.326 245.191 254.798 245.544 254.328 245.456C253.829 245.367 253.447 244.898 253.477 244.399C253.682 244.546 253.624 244.898 253.447 245.045C253.242 245.191 252.948 245.162 252.743 245.045C252.538 244.927 252.391 244.692 252.303 244.458C252.156 244.047 252.097 243.606 252.068 243.166C251.921 241.287 251.804 239.379 251.657 237.501C251.628 237.237 251.628 236.973 251.745 236.738C251.98 236.297 252.596 236.239 253.125 236.268L255.15 236.356C255.59 236.385 256.06 236.356 256.471 236.503C257.205 236.855 257.821 237.824 258.173 238.528Z" fill="#DBA17B"/>
<path d="M250.835 194.441C250.6 198.404 250.366 202.396 250.101 206.359C249.955 208.56 249.837 210.791 250.16 212.963C250.424 214.783 250.982 216.544 251.54 218.276C253.565 224.557 255.59 230.839 257.645 237.12C255.473 236.974 253.272 236.827 251.099 236.68C249.368 229.958 246.021 217.953 245.728 216.867C243.321 209.323 242.47 201.31 243.233 193.443L250.835 194.441Z" fill="#2A94F4"/>
<path d="M240.796 155.843C240.796 148.065 232.254 141.754 221.717 141.754C211.179 141.754 202.637 148.065 202.637 155.843C202.637 163.622 211.179 169.933 221.717 169.933C223.713 169.933 225.65 169.698 227.44 169.287L234.338 174.923V166.41C238.301 163.827 240.796 160.041 240.796 155.843Z" fill="#FFBE55"/>
<path d="M229.789 142.194C229.789 135.883 222.861 130.746 214.29 130.746C205.719 130.746 198.792 135.853 198.792 142.194C198.792 148.505 205.719 153.641 214.29 153.641C215.905 153.641 217.49 153.465 218.958 153.113L224.535 157.692V150.794C227.763 148.651 229.789 145.599 229.789 142.194Z" fill="white"/>
<path d="M222.304 138.084H205.573C205.338 138.084 205.132 137.878 205.132 137.643C205.132 137.409 205.338 137.203 205.573 137.203H222.304C222.539 137.203 222.744 137.409 222.744 137.643C222.744 137.878 222.539 138.084 222.304 138.084ZM222.304 141.254H205.573C205.338 141.254 205.132 141.048 205.132 140.814C205.132 140.579 205.338 140.373 205.573 140.373H222.304C222.539 140.373 222.744 140.579 222.744 140.814C222.744 141.048 222.539 141.254 222.304 141.254ZM222.304 144.453H205.573C205.338 144.453 205.132 144.248 205.132 144.013C205.132 143.778 205.338 143.573 205.573 143.573H222.304C222.539 143.573 222.744 143.778 222.744 144.013C222.744 144.248 222.539 144.453 222.304 144.453ZM222.304 147.623H205.573C205.338 147.623 205.132 147.418 205.132 147.183C205.132 146.948 205.338 146.743 205.573 146.743H222.304C222.539 146.743 222.744 146.948 222.744 147.183C222.744 147.418 222.539 147.623 222.304 147.623Z" fill="#FFBE55"/>
<path d="M147.137 17.7432C195.183 -10.985 262.701 -5.12922 305.175 37.5126C328.398 60.8355 337.831 92.917 361.937 115.739C389.076 141.415 421.511 166.389 433.812 201.423C446.886 238.66 435.412 281.352 406.176 309.83C370.597 344.464 318.304 334.053 268.879 333.503C66.4903 331.201 -83.9358 208.63 107.476 57.5322C123.472 44.8198 131.25 27.2025 147.137 17.7432Z" fill="#CCE9FF"/>
<path d="M324.376 82.3764H259.997C256.366 82.3764 253.395 79.6579 253.395 76.3354V38.0761C253.395 34.7536 256.366 32.0352 259.997 32.0352H324.376C328.008 32.0352 330.979 34.7536 330.979 38.0761V76.3354C330.979 79.6579 328.008 82.3764 324.376 82.3764Z" fill="white"/>
<path d="M249.836 39.4515V76.9183C249.836 82.1068 254.493 86.2975 260.26 86.2975H322.691C328.457 86.2975 333.115 82.1068 333.115 76.9183V39.4515C333.115 34.263 328.457 30.0723 322.691 30.0723H260.26C254.493 30.0723 249.836 34.263 249.836 39.4515ZM255.27 77.8662C255.214 77.5669 255.048 77.2675 255.048 76.9682V39.5013C255.048 39.0024 255.214 38.5534 255.38 38.1543L277.392 55.1666L255.27 77.8662ZM322.691 34.7619C323.024 34.7619 323.356 34.8616 323.689 34.9614L291.475 59.8063L259.262 34.9614C259.594 34.9115 259.872 34.7619 260.26 34.7619H322.691ZM305.558 55.0668L327.57 38.0546C327.736 38.5036 327.903 38.9526 327.903 39.4016V76.8684C327.903 77.2176 327.792 77.4671 327.681 77.7664L305.558 55.0668ZM260.26 81.6079C259.705 81.6079 259.262 81.4582 258.763 81.3585L281.329 58.1599L289.756 64.6954C290.255 65.0945 290.865 65.2442 291.475 65.2442C292.085 65.2442 292.695 65.0447 293.194 64.6954L301.622 58.1599L324.188 81.3585C323.689 81.5081 323.245 81.6079 322.691 81.6079H260.26Z" fill="#FFBE55"/>
<path d="M356.374 190.252H307.719C304.07 190.252 301.084 187.539 301.084 184.224V156.398C301.084 153.083 304.07 150.371 307.719 150.371H356.374C360.023 150.371 363.009 153.083 363.009 156.398V184.224C363.009 187.539 360.023 190.252 356.374 190.252Z" fill="white"/>
<path d="M298.949 155.834V185.439C298.949 189.526 302.584 192.865 307.155 192.865H356.227C360.743 192.865 364.433 189.576 364.433 185.439V155.834C364.433 151.747 360.798 148.408 356.227 148.408H307.155C302.639 148.458 298.949 151.747 298.949 155.834ZM303.19 186.187C303.134 185.938 303.024 185.738 303.024 185.439V155.834C303.024 155.436 303.134 155.087 303.245 154.738L320.538 168.145L303.19 186.187ZM356.227 152.146C356.502 152.146 356.722 152.246 356.998 152.296L331.718 171.933L306.439 152.296C306.714 152.246 306.935 152.146 307.21 152.146H356.227ZM342.733 168.195L360.027 154.788C360.137 155.137 360.247 155.485 360.247 155.884V185.489C360.247 185.738 360.137 185.987 360.082 186.237L342.733 168.195ZM307.155 189.127C306.714 189.127 306.384 189.028 305.998 188.928L323.732 170.587L330.397 175.72C330.782 176.019 331.278 176.169 331.718 176.169C332.214 176.169 332.655 176.019 333.04 175.72L339.704 170.587L357.438 188.928C357.053 189.028 356.667 189.127 356.282 189.127H307.155Z" fill="#2A94F4"/>
<path d="M380.092 33.1422V53.1583C380.092 55.9466 382.559 58.1872 385.629 58.1872H418.686C421.756 58.1872 424.223 55.9466 424.223 53.1583V33.1422C424.223 30.3539 421.756 28.1133 418.686 28.1133H385.629C382.559 28.1133 380.092 30.3539 380.092 33.1422ZM382.998 53.6562C382.943 53.5069 382.888 53.3575 382.888 53.1583V33.1422C382.888 32.8932 382.943 32.6443 383.053 32.3953L394.729 41.4574L382.998 53.6562ZM418.686 30.6526C418.85 30.6526 419.015 30.7024 419.179 30.7522L402.13 44.0465L385.081 30.7522C385.245 30.7024 385.41 30.6526 385.574 30.6526H418.686ZM409.641 41.5071L421.317 32.4451C421.372 32.6941 421.482 32.8932 421.482 33.192V53.2081C421.482 53.3575 421.427 53.5566 421.372 53.706L409.641 41.5071ZM385.629 55.6479C385.355 55.6479 385.081 55.5981 384.862 55.4985L396.813 43.1005L401.308 46.5859C401.582 46.785 401.911 46.8846 402.185 46.8846C402.514 46.8846 402.843 46.785 403.062 46.5859L407.557 43.1005L419.508 55.4985C419.234 55.5483 419.015 55.6479 418.741 55.6479H385.629Z" fill="#CCE9FF"/>
<path d="M389.203 136.641H369.558C365.956 136.641 363.009 133.997 363.009 130.765V120.288C363.009 117.056 365.956 114.412 369.558 114.412H389.203C392.805 114.412 395.751 117.056 395.751 120.288V130.765C395.751 133.997 392.805 136.641 389.203 136.641Z" fill="white"/>
<path d="M361.586 117.681V133.371C361.586 135.534 363.542 137.294 365.946 137.294H392.104C394.507 137.294 396.463 135.534 396.463 133.371V117.681C396.463 115.518 394.507 113.758 392.104 113.758H365.946C363.542 113.808 361.586 115.518 361.586 117.681ZM363.878 133.774C363.822 133.623 363.766 133.522 363.766 133.371V117.681C363.766 117.479 363.822 117.278 363.878 117.127L373.1 124.218L363.878 133.774ZM392.104 115.769C392.271 115.769 392.383 115.82 392.495 115.82L379.025 126.23L365.554 115.82C365.666 115.82 365.834 115.769 365.946 115.769H392.104ZM384.893 124.218L394.116 117.127C394.172 117.328 394.228 117.479 394.228 117.681V133.371C394.228 133.522 394.172 133.623 394.116 133.774L384.893 124.218ZM365.946 135.333C365.722 135.333 365.498 135.282 365.331 135.232L374.777 125.526L378.298 128.242C378.522 128.392 378.745 128.493 379.025 128.493C379.304 128.493 379.528 128.392 379.751 128.242L383.272 125.526L392.718 135.232C392.495 135.282 392.327 135.333 392.104 135.333H365.946Z" fill="#FFBE55"/>
<path d="M277.951 90.8749C278.934 90.8749 279.731 90.2895 279.731 89.5673C279.731 88.8452 278.934 88.2598 277.951 88.2598C276.969 88.2598 276.172 88.8452 276.172 89.5673C276.172 90.2895 276.969 90.8749 277.951 90.8749Z" fill="#6B6B6B"/>
<path d="M272.613 93.4896C273.399 93.4896 274.037 92.7578 274.037 91.8552C274.037 90.9525 273.399 90.2207 272.613 90.2207C271.827 90.2207 271.189 90.9525 271.189 91.8552C271.189 92.7578 271.827 93.4896 272.613 93.4896Z" fill="#6B6B6B"/>
<path d="M267.631 96.1054C268.417 96.1054 269.054 95.5199 269.054 94.7978C269.054 94.0757 268.417 93.4902 267.631 93.4902C266.844 93.4902 266.207 94.0757 266.207 94.7978C266.207 95.5199 266.844 96.1054 267.631 96.1054Z" fill="#6B6B6B"/>
<path d="M263.36 100.027C264.146 100.027 264.783 99.4418 264.783 98.7197C264.783 97.9975 264.146 97.4121 263.36 97.4121C262.573 97.4121 261.936 97.9975 261.936 98.7197C261.936 99.4418 262.573 100.027 263.36 100.027Z" fill="#6B6B6B"/>
<path d="M259.801 104.605C260.587 104.605 261.225 103.873 261.225 102.97C261.225 102.068 260.587 101.336 259.801 101.336C259.015 101.336 258.377 102.068 258.377 102.97C258.377 103.873 259.015 104.605 259.801 104.605Z" fill="#6B6B6B"/>
<path d="M257.31 109.183C258.292 109.183 259.089 108.451 259.089 107.549C259.089 106.646 258.292 105.914 257.31 105.914C256.327 105.914 255.53 106.646 255.53 107.549C255.53 108.451 256.327 109.183 257.31 109.183Z" fill="#6B6B6B"/>
<path d="M255.53 114.411C256.316 114.411 256.954 113.68 256.954 112.777C256.954 111.874 256.316 111.143 255.53 111.143C254.744 111.143 254.106 111.874 254.106 112.777C254.106 113.68 254.744 114.411 255.53 114.411Z" fill="#6B6B6B"/>
<path d="M287.204 135.334C288.187 135.334 288.984 134.748 288.984 134.026C288.984 133.304 288.187 132.719 287.204 132.719C286.221 132.719 285.425 133.304 285.425 134.026C285.425 134.748 286.221 135.334 287.204 135.334Z" fill="#6B6B6B"/>
<path d="M281.154 135.334C281.94 135.334 282.578 134.748 282.578 134.026C282.578 133.304 281.94 132.719 281.154 132.719C280.368 132.719 279.73 133.304 279.73 134.026C279.73 134.748 280.368 135.334 281.154 135.334Z" fill="#6B6B6B"/>
<path d="M275.104 135.334C276.086 135.334 276.883 134.748 276.883 134.026C276.883 133.304 276.086 132.719 275.104 132.719C274.121 132.719 273.324 133.304 273.324 134.026C273.324 134.748 274.121 135.334 275.104 135.334Z" fill="#6B6B6B"/>
<path d="M269.054 135.334C269.84 135.334 270.478 134.748 270.478 134.026C270.478 133.304 269.84 132.719 269.054 132.719C268.268 132.719 267.63 133.304 267.63 134.026C267.63 134.748 268.268 135.334 269.054 135.334Z" fill="#6B6B6B"/>
<path d="M263.004 135.334C263.987 135.334 264.784 134.748 264.784 134.026C264.784 133.304 263.987 132.719 263.004 132.719C262.021 132.719 261.225 133.304 261.225 134.026C261.225 134.748 262.021 135.334 263.004 135.334Z" fill="#6B6B6B"/>
<path d="M355.891 126.834C356.678 126.834 357.315 126.248 357.315 125.526C357.315 124.804 356.678 124.219 355.891 124.219C355.105 124.219 354.468 124.804 354.468 125.526C354.468 126.248 355.105 126.834 355.891 126.834Z" fill="#6B6B6B"/>
<path d="M349.841 126.835C350.824 126.835 351.621 126.104 351.621 125.201C351.621 124.298 350.824 123.566 349.841 123.566C348.859 123.566 348.062 124.298 348.062 125.201C348.062 126.104 348.859 126.835 349.841 126.835Z" fill="#6B6B6B"/>
<path d="M344.147 126.835C345.13 126.835 345.927 126.104 345.927 125.201C345.927 124.298 345.13 123.566 344.147 123.566C343.164 123.566 342.368 124.298 342.368 125.201C342.368 126.104 343.164 126.835 344.147 126.835Z" fill="#6B6B6B"/>
<path d="M338.453 128.142C339.436 128.142 340.232 127.41 340.232 126.508C340.232 125.605 339.436 124.873 338.453 124.873C337.47 124.873 336.673 125.605 336.673 126.508C336.673 127.41 337.47 128.142 338.453 128.142Z" fill="#6B6B6B"/>
<path d="M332.403 129.451C333.189 129.451 333.826 128.719 333.826 127.816C333.826 126.913 333.189 126.182 332.403 126.182C331.616 126.182 330.979 126.913 330.979 127.816C330.979 128.719 331.616 129.451 332.403 129.451Z" fill="#6B6B6B"/>
<path d="M327.776 132.064C328.759 132.064 329.555 131.479 329.555 130.757C329.555 130.035 328.759 129.449 327.776 129.449C326.793 129.449 325.997 130.035 325.997 130.757C325.997 131.479 326.793 132.064 327.776 132.064Z" fill="#6B6B6B"/>
<path d="M323.149 135.988C323.935 135.988 324.573 135.256 324.573 134.353C324.573 133.451 323.935 132.719 323.149 132.719C322.363 132.719 321.726 133.451 321.726 134.353C321.726 135.256 322.363 135.988 323.149 135.988Z" fill="#6B6B6B"/>
<path d="M319.591 139.908C320.377 139.908 321.014 139.323 321.014 138.601C321.014 137.878 320.377 137.293 319.591 137.293C318.804 137.293 318.167 137.878 318.167 138.601C318.167 139.323 318.804 139.908 319.591 139.908Z" fill="#6B6B6B"/>
<path d="M317.099 145.14C318.082 145.14 318.879 144.408 318.879 143.506C318.879 142.603 318.082 141.871 317.099 141.871C316.117 141.871 315.32 142.603 315.32 143.506C315.32 144.408 316.117 145.14 317.099 145.14Z" fill="#6B6B6B"/>
<path d="M383.651 64.0702C384.437 64.0702 385.075 63.4848 385.075 62.7626C385.075 62.0405 384.437 61.4551 383.651 61.4551C382.865 61.4551 382.228 62.0405 382.228 62.7626C382.228 63.4848 382.865 64.0702 383.651 64.0702Z" fill="#6B6B6B"/>
<path d="M378.669 67.3397C379.455 67.3397 380.092 66.7543 380.092 66.0322C380.092 65.31 379.455 64.7246 378.669 64.7246C377.882 64.7246 377.245 65.31 377.245 66.0322C377.245 66.7543 377.882 67.3397 378.669 67.3397Z" fill="#6B6B6B"/>
<path d="M373.33 69.3007C374.313 69.3007 375.11 68.7153 375.11 67.9931C375.11 67.271 374.313 66.6855 373.33 66.6855C372.347 66.6855 371.551 67.271 371.551 67.9931C371.551 68.7153 372.347 69.3007 373.33 69.3007Z" fill="#6B6B6B"/>
<path d="M367.636 71.2636C368.619 71.2636 369.415 70.6781 369.415 69.956C369.415 69.2338 368.619 68.6484 367.636 68.6484C366.653 68.6484 365.856 69.2338 365.856 69.956C365.856 70.6781 366.653 71.2636 367.636 71.2636Z" fill="#6B6B6B"/>
<path d="M361.942 72.5697C362.924 72.5697 363.721 71.8379 363.721 70.9352C363.721 70.0326 362.924 69.3008 361.942 69.3008C360.959 69.3008 360.162 70.0326 360.162 70.9352C360.162 71.8379 360.959 72.5697 361.942 72.5697Z" fill="#6B6B6B"/>
<path d="M356.247 73.8783C357.23 73.8783 358.027 73.1465 358.027 72.2438C358.027 71.3411 357.23 70.6094 356.247 70.6094C355.264 70.6094 354.468 71.3411 354.468 72.2438C354.468 73.1465 355.264 73.8783 356.247 73.8783Z" fill="#6B6B6B"/>
<path d="M350.197 73.8768C350.983 73.8768 351.621 73.2914 351.621 72.5693C351.621 71.8471 350.983 71.2617 350.197 71.2617C349.411 71.2617 348.773 71.8471 348.773 72.5693C348.773 73.2914 349.411 73.8768 350.197 73.8768Z" fill="#6B6B6B"/>
<path d="M344.147 74.5306C345.13 74.5306 345.927 73.7989 345.927 72.8962C345.927 71.9935 345.13 71.2617 344.147 71.2617C343.164 71.2617 342.368 71.9935 342.368 72.8962C342.368 73.7989 343.164 74.5306 344.147 74.5306Z" fill="#6B6B6B"/>
<path d="M338.453 73.8768C339.436 73.8768 340.232 73.2914 340.232 72.5693C340.232 71.8471 339.436 71.2617 338.453 71.2617C337.47 71.2617 336.673 71.8471 336.673 72.5693C336.673 73.2914 337.47 73.8768 338.453 73.8768Z" fill="#6B6B6B"/>
<path d="M203.015 293.146C203.455 292.996 203.841 292.895 204.282 292.744C204.282 292.744 204.116 292.443 203.841 291.841C199.323 283.304 161.751 215.816 89.3044 202.86C88.7535 202.76 88.1474 202.66 87.5965 202.559C78.3961 201.053 68.6999 200.4 58.4528 200.852C58.4528 200.852 44.0737 201.103 26.3891 212.451C26.0035 212.702 25.6179 212.954 25.1771 213.205C17.2438 218.477 8.70456 226.06 0.49583 236.805L0 237.408C0 237.408 0.110185 237.709 0.385646 238.262C2.91988 243.584 17.6846 271.956 52.613 290.585C53.0537 290.836 53.5496 291.087 53.9903 291.288C85.6683 307.809 133.433 316.144 203.015 293.146Z" fill="#0B4870"/>
<path d="M204.662 293.549L204.828 292.842L204.993 292.135L204.386 291.983L0.497156 236.67L0 237.276C0 237.276 0.110479 237.579 0.386676 238.135L203.557 293.246L204.662 293.549Z" fill="white"/>
<path d="M53.867 291.586L84.2559 260.524L83.2631 259.418L52.4882 290.883C52.9294 291.134 53.3706 291.335 53.867 291.586ZM121.428 270.526L123.138 270.727L89.1644 202.973C88.6129 202.873 88.0062 202.772 87.4547 202.672L121.428 270.526ZM45.2081 250.421L46.4215 249.718L26.1255 212.574C25.7394 212.825 25.3533 213.076 24.9121 213.328L45.2081 250.421Z" fill="white"/>
<path d="M200.458 289.832L201.12 290.28C201.12 290.28 201.23 290.081 201.506 289.782C205.034 284.75 232.051 243.796 215.124 204.287C215.014 203.988 214.849 203.639 214.738 203.34C212.533 198.358 209.611 193.425 205.861 188.593C205.861 188.593 200.844 181.717 188.163 176.934C187.887 176.835 187.611 176.735 187.28 176.635C181.491 174.543 174.103 172.948 165.005 172.6H164.454C164.454 172.6 164.343 172.749 164.068 173.098C161.807 176.087 150.063 192.778 150.945 216.045C150.945 216.344 150.945 216.643 151 216.942C152.048 237.817 163.351 263.775 200.458 289.832Z" fill="#2A94F4"/>
<path d="M200.439 290.934L200.937 290.784L201.434 290.634L201.324 290.283L164.65 172.6H164.097C164.097 172.6 163.987 172.75 163.71 173.1L200.218 290.383L200.439 290.934Z" fill="white"/>
<path d="M151.008 217.066L179.491 221.431L179.766 220.578L150.898 216.162C150.953 216.464 150.953 216.765 151.008 217.066ZM186.2 242.958L186.64 243.861L214.958 204.371C214.848 204.069 214.683 203.718 214.573 203.417L186.2 242.958ZM172.233 198.951L173.058 199.303L188.015 176.823C187.74 176.722 187.465 176.622 187.135 176.521L172.233 198.951Z" fill="white"/>
<path d="M201.043 292.794C201.429 292.844 201.815 292.844 202.146 292.894V292.143C202.146 284.739 200.436 225.652 150.347 194.033C149.961 193.783 149.575 193.533 149.133 193.282C142.734 189.38 135.563 185.878 127.564 183.026C127.564 183.026 116.476 178.723 98.4928 181.225C98.1066 181.275 97.6653 181.325 97.2792 181.375C89.1149 182.626 79.5715 185.278 69.0351 190.281C68.8145 190.381 68.649 190.481 68.4283 190.581C68.4283 190.581 68.4283 190.831 68.3732 191.331C68.1525 195.834 68.0973 220.349 87.3496 244.314C87.6254 244.614 87.8461 244.914 88.1219 245.264C105.664 266.578 138.818 287.29 201.043 292.794Z" fill="#FFBE55"/>
<path d="M201.376 293.548L201.761 293.096L202.146 292.645L201.761 292.344L68.9913 190.25C68.7712 190.35 68.6062 190.451 68.3861 190.551C68.3861 190.551 68.3861 190.802 68.3311 191.303L200.606 292.996L201.376 293.548Z" fill="white"/>
<path d="M87.6138 245.425L123.306 233.012L122.974 231.906L86.8379 244.47C87.115 244.822 87.3367 245.123 87.6138 245.425ZM147.803 251.656L149.023 252.36L150.187 193.963C149.799 193.712 149.411 193.46 148.967 193.209L147.803 251.656ZM97.4791 213.713L98.6984 213.613L98.0334 181.098C97.6454 181.148 97.202 181.198 96.8141 181.248L97.4791 213.713Z" fill="white"/>
<path d="M232.753 295.515L230.738 310.225L223.931 312.508L225.728 294.855L232.753 295.515ZM201.715 295.515L199.7 310.225L192.893 312.508L194.69 294.855L201.715 295.515Z" fill="#DBA17B"/>
<path d="M210.194 116.373L199.299 128.925L209.696 134.025L221.365 120.974L210.194 116.373Z" fill="#CC9271"/>
<path d="M238.343 116.969C238.013 115.086 237.793 113.154 237.627 111.222C237.517 109.687 237.572 108.151 237.627 106.615C237.793 105.079 237.793 103.544 237.682 102.107C237.682 102.157 237.627 102.206 237.627 102.256C237.517 100.968 237.297 99.6796 236.912 98.4411C235.811 95.3201 233.554 92.3973 230.031 91.3074C222.985 89.1772 214.397 95.122 210.819 104.634C207.241 114.145 210.048 123.607 217.094 125.737C222.104 127.273 227.884 124.697 232.068 119.694C233.719 119.644 235.37 119.545 236.967 119.149C237.517 119 238.068 118.802 238.343 118.356C238.508 117.91 238.453 117.415 238.343 116.969Z" fill="#DBA17B"/>
<path d="M244.399 101.436C246.664 100.736 248.597 98.9841 249.039 96.8823C249.481 94.7305 248.155 92.3285 245.89 91.6279C244.178 91.0775 242.134 91.5278 240.587 90.7272C239.648 90.2267 239.04 89.376 238.377 88.6254C234.731 84.4219 228.709 82.0199 222.853 82.4202C216.997 82.8206 211.417 85.9732 208.489 90.577C206.003 94.4803 205.396 99.1342 205.838 103.588C206.28 108.042 207.771 112.395 209.208 116.649C211.638 112.295 214.069 107.942 216.5 103.638C217.052 102.687 217.605 101.686 218.599 101.136C219.594 100.585 221.141 100.635 221.693 101.536C222.08 102.137 221.969 102.887 221.969 103.538C221.969 104.238 222.08 105.039 222.743 105.339C223.461 105.69 224.4 105.289 225.063 104.839C226.499 103.888 227.77 102.737 228.93 101.486C229.648 100.685 230.366 99.6847 231.416 99.2843C232.576 98.8339 233.571 99.3344 234.62 99.8848C236.057 100.635 237.548 101.336 239.206 101.636C240.918 101.937 242.741 101.937 244.399 101.436ZM237.106 192.462C239.261 204.973 241.305 226.741 243.46 239.251C246.608 257.617 236.609 285.09 232.908 303.355C230.201 303.055 227.825 302.304 225.118 302.004C226.002 271.028 224.455 231.545 222.245 200.619C227.052 201.17 232.3 191.912 237.106 192.462Z" fill="#0B4870"/>
<path d="M203.419 201.189C206.244 201.338 209.014 199.044 211.839 199.243C215.274 199.443 218.985 200.041 222.254 200.939C225.522 201.837 229.345 199.093 232.558 198.096C233.223 203.084 232.059 211.964 231.007 216.903C228.569 228.476 225.744 239.95 222.475 251.324C220.703 257.609 215.44 263.646 212.67 269.632C211.507 272.176 210.399 274.82 209.346 277.414C207.13 282.802 203.308 297.967 201.092 303.355C198.377 303.155 195.608 303.105 192.893 302.906C193.17 297.468 195.552 281.804 195.774 276.366C196.217 267.287 201.258 257.759 205.247 249.378C203.252 240.698 203.197 231.27 203.252 222.39C203.308 214.558 203.363 208.971 203.419 201.189Z" fill="#0E538C"/>
<path d="M241.633 167.028C242.604 167.18 243.737 167.129 244.493 166.52C244.87 166.216 245.14 165.759 245.41 165.404C246.327 164.388 247.892 163.881 249.241 164.185C252.046 164.845 253.395 168.195 256.201 168.753C256.632 168.855 257.064 168.855 257.496 169.007C257.927 169.159 258.305 169.413 258.359 169.819C258.467 170.327 258.089 170.733 257.711 171.139C257.226 171.646 256.686 172.154 256.201 172.661C255.985 172.864 255.715 173.118 255.445 173.22C254.852 173.473 254.096 173.22 253.611 173.575C253.179 173.88 253.071 174.489 252.586 174.793C251.884 175.199 250.913 174.59 250.104 174.895C249.672 175.047 249.402 175.402 249.079 175.605C248.485 175.96 247.676 175.91 246.974 175.707C246.273 175.453 245.68 175.047 245.086 174.742C244.277 174.336 243.413 174.032 242.55 173.778C240.176 173.22 237.64 173.372 235.158 173.575C235.051 171.748 234.997 169.921 234.889 168.094C234.889 167.789 234.889 167.434 235.051 167.129C235.374 166.571 236.238 166.571 236.939 166.723C237.802 166.926 238.234 166.875 239.043 166.723C239.852 166.571 240.824 166.926 241.633 167.028Z" fill="#DBA17B"/>
<path d="M247.851 174.177C247.575 173.781 247.685 173.236 248.127 172.989L264.02 163.58C264.461 163.333 265.068 163.432 265.344 163.828C265.62 164.224 265.51 164.769 265.068 165.016L249.175 174.425C248.734 174.672 248.127 174.573 247.851 174.177Z" fill="#0B4870"/>
<path d="M235.305 302.508C235.523 302.053 236.125 301.901 236.507 302.205C238.202 303.519 242.739 306.5 251.758 308.42C251.758 308.42 253.945 308.825 255.53 311.2H222.076V305.742C222.076 305.136 222.841 304.832 223.333 305.186L224.645 306.197C225.247 306.702 226.067 306.955 226.832 306.955L231.642 307.005C232.681 307.005 233.61 306.45 233.993 305.54L235.305 302.508Z" fill="#CCE9FF"/>
<path d="M255.53 314.469H222.076V311.2H255.53V314.469Z" fill="#0E538C"/>
<path d="M202.391 304.258C202.725 303.898 203.392 303.95 203.67 304.361C204.782 306.158 208.063 310.419 215.904 315.195C215.904 315.195 217.85 316.324 218.518 319.046L186.487 308.417L188.545 303.18C188.767 302.615 189.601 302.512 189.935 303.077L190.769 304.463C191.158 305.131 191.826 305.644 192.604 305.901L197.164 307.441C198.165 307.801 199.277 307.493 199.944 306.774L202.391 304.258Z" fill="#CCE9FF"/>
<path d="M217.103 321.797L185.345 311.423L186.522 308.456L218.279 318.83L217.103 321.797Z" fill="#0E538C"/>
<path d="M235.79 164.474C238.211 171.835 240.027 183.403 241.183 191.015C241.458 192.818 241.293 199.629 239.917 200.931C239.091 201.732 217.795 203.885 208.935 206.54C207.724 206.89 201.946 208.943 200.79 208.493C199.139 207.842 198.259 201.231 198.644 199.679C203.762 179.597 203.762 194.371 196.278 154.859C194.792 146.946 191.93 139.635 194.902 132.073C195.893 129.569 203.377 122.258 203.377 122.258C203.377 122.258 205.908 124.712 208.495 126.114C210.641 127.266 213.447 129.319 215.263 129.719C223.573 131.472 232.873 155.61 235.79 164.474Z" fill="#2A94F4"/>
<path d="M225.782 218.358C226.497 219.779 226.827 221.351 226.993 222.873C227.213 225.561 226.883 228.25 226.057 230.786C224.846 230.532 223.856 229.518 223.691 228.351C224.241 229.163 223.746 230.38 222.755 230.634C221.765 230.887 220.664 230.025 220.719 229.061C220.444 229.873 219.454 230.482 218.573 230.329C217.638 230.177 216.922 229.366 216.977 228.503C217.363 228.757 217.253 229.366 216.922 229.619C216.537 229.873 215.987 229.822 215.602 229.619C215.217 229.416 214.941 229.011 214.776 228.605C214.501 227.895 214.391 227.134 214.336 226.373C214.061 223.126 213.841 219.829 213.566 216.583C213.511 216.126 213.511 215.67 213.731 215.264C214.171 214.503 215.327 214.402 216.317 214.452L220.114 214.605C220.939 214.655 221.82 214.605 222.59 214.858C223.966 215.467 225.122 217.141 225.782 218.358Z" fill="#DBA17B"/>
<path d="M211.668 142.92C211.235 149.682 210.803 156.494 210.316 163.256C210.046 167.012 209.829 170.819 210.424 174.525C210.911 177.631 211.938 180.636 212.965 183.591C216.696 194.31 220.427 205.029 224.212 215.748C220.211 215.497 216.156 215.247 212.154 214.997C208.964 203.526 202.8 183.04 202.26 181.187C197.826 168.314 196.258 154.64 197.664 141.217L211.668 142.92Z" fill="#2A94F4"/>
<path d="M192.893 77.4927C192.893 64.3071 176.801 53.6094 156.948 53.6094C137.095 53.6094 121.003 64.3071 121.003 77.4927C121.003 90.6782 137.095 101.376 156.948 101.376C160.708 101.376 164.358 100.978 167.731 100.281L180.727 109.835V95.4051C188.193 91.0265 192.893 84.6079 192.893 77.4927Z" fill="#FFBE55"/>
<path d="M172.251 54.0949C172.251 43.3766 159.208 34.6523 143.068 34.6523C126.929 34.6523 113.885 43.3267 113.885 54.0949C113.885 64.8132 126.929 73.5374 143.068 73.5374C146.108 73.5374 149.093 73.2383 151.856 72.6401L162.358 80.4171V68.7017C168.438 65.0625 172.251 59.8778 172.251 54.0949Z" fill="white"/>
<path d="M157.909 47.2574H126.804C126.367 47.2574 125.985 46.9093 125.985 46.5115C125.985 46.1137 126.367 45.7656 126.804 45.7656H157.909C158.345 45.7656 158.727 46.1137 158.727 46.5115C158.727 46.9093 158.345 47.2574 157.909 47.2574ZM157.909 52.6276H126.804C126.367 52.6276 125.985 52.2795 125.985 51.8817C125.985 51.4839 126.367 51.1358 126.804 51.1358H157.909C158.345 51.1358 158.727 51.4839 158.727 51.8817C158.727 52.2795 158.345 52.6276 157.909 52.6276ZM157.909 58.0475H126.804C126.367 58.0475 125.985 57.6994 125.985 57.3016C125.985 56.9039 126.367 56.5558 126.804 56.5558H157.909C158.345 56.5558 158.727 56.9039 158.727 57.3016C158.727 57.6994 158.345 58.0475 157.909 58.0475ZM157.909 63.4177H126.804C126.367 63.4177 125.985 63.0697 125.985 62.6719C125.985 62.2741 126.367 61.926 126.804 61.926H157.909C158.345 61.926 158.727 62.2741 158.727 62.6719C158.727 63.0697 158.345 63.4177 157.909 63.4177Z" fill="#FFBE55"/>
</svg>
