<svg width="15" height="15" viewBox="0 0 15 15" fill="none" xmlns="http://www.w3.org/2000/svg">
<path d="M4.36251 3.99965C4.36263 3.36896 4.54169 2.75125 4.87886 2.21826C5.21604 1.68527 5.69751 1.25888 6.26734 0.988598C6.83718 0.718318 7.472 0.615246 8.09808 0.691353C8.72416 0.76746 9.3158 1.01962 9.80429 1.41855C10.2928 1.81748 10.6581 2.34681 10.8577 2.94506C11.0574 3.54331 11.0832 4.18593 10.9323 4.79827C10.7813 5.41062 10.4597 5.96758 10.0048 6.40445C9.54993 6.84132 8.98045 7.14018 8.36251 7.26631V11.333H7.02917V7.26631C6.27626 7.11263 5.59958 6.70353 5.11364 6.10825C4.62769 5.51297 4.36235 4.76808 4.36251 3.99965ZM1.76584 7.33298H5.02917V8.66631H2.95917L2.44051 13.333H12.9512L12.4325 8.66631H10.3625V7.33298H13.6258L14.4405 14.6663H0.951172L1.76584 7.33298Z" fill="#007BFF"/>
</svg>
