<svg width="185" height="33" viewBox="0 0 185 33" fill="none" xmlns="http://www.w3.org/2000/svg">
<circle cx="12" cy="12" r="12" transform="matrix(-1 0 0 1 60 1)" stroke="url(#paint0_linear_58352_2714)" stroke-width="1.92"/>
<circle cx="12" cy="12" r="12" transform="matrix(-1 0 0 1 48 1)" stroke="url(#paint1_linear_58352_2714)" stroke-width="1.92"/>
<path d="M38.1602 13.3492V12.6511H40.2547V13.3492H38.1602ZM40.5165 12.0052L39.7834 11.2722L40.2722 10.7834L41.0052 11.5165L40.5165 12.0052ZM41.6511 11.2547V9.16016H42.3492V11.2547H41.6511ZM43.4838 12.0052L42.9951 11.5165L43.7282 10.7834L44.2169 11.2722L43.4838 12.0052ZM43.7456 13.3492V12.6511H45.8402V13.3492H43.7456ZM42.0002 14.0474C41.7092 14.0474 41.462 13.9456 41.2583 13.742C41.0547 13.5383 40.9529 13.2911 40.9529 13.0002C40.9529 12.7092 41.0547 12.462 41.2583 12.2583C41.462 12.0547 41.7092 11.9529 42.0002 11.9529C42.2911 11.9529 42.5383 12.0547 42.742 12.2583C42.9456 12.462 43.0474 12.7092 43.0474 13.0002C43.0474 13.2911 42.9456 13.5383 42.742 13.742C42.5383 13.9456 42.2911 14.0474 42.0002 14.0474ZM43.7282 15.2169L42.9951 14.4838L43.4838 13.9951L44.2169 14.7282L43.7282 15.2169ZM40.2722 15.2169L39.7834 14.7282L40.5165 13.9951L41.0052 14.4838L40.2722 15.2169ZM41.6511 16.8402V14.7456H42.3492V16.8402H41.6511Z" fill="#F6C648"/>
<path d="M73.9059 19.7878L68.6252 6.10679C68.5743 5.9644 68.3312 5.9644 68.2803 6.10679L63.0166 19.7878C62.9658 19.8961 63.0336 19.9986 63.1919 19.9986H65.5722C65.64 19.9986 65.7248 19.9644 65.7418 19.8961L68.4556 12.0873L71.1977 19.8961C71.2147 19.9644 71.2995 19.9986 71.356 19.9986H73.7532C73.8719 19.9986 73.9567 19.8961 73.9059 19.7878Z" fill="#004085"/>
<path d="M83.8756 17.3914H76.373V19.8405C76.373 19.9146 76.4579 20 76.5653 20H83.8756C84 20 84.0679 19.9146 84.0679 19.8405V17.5679C84.0679 17.4825 84 17.3914 83.8756 17.3914ZM79.0303 14.7144V6.15948C79.0303 6.09113 78.9625 6 78.8551 6H76.5653C76.4579 6 76.373 6.09113 76.373 6.15948V14.7144H79.0303Z" fill="#004085"/>
<path d="M92.0364 17.6021H90.6512V6H87.9939V17.6021H86.5692C86.4618 17.6021 86.377 17.6705 86.377 17.7616V19.8405C86.377 19.9146 86.4618 20 86.5692 20H92.0364C92.1608 20 92.2286 19.9146 92.2286 19.8405V17.7616C92.2286 17.6705 92.1608 17.6021 92.0364 17.6021Z" fill="#004085"/>
<path d="M105.033 8.57445V6.15948C105.033 6.09113 104.965 6 104.84 6H102.585C99.1245 6 94.4375 7.01953 94.4375 13C94.4375 19.214 99.181 20 102.585 20H104.84C104.965 20 105.033 19.9146 105.033 19.8405V11.2685H99.7012V13.9455H102.375V17.4426C99.3507 17.6021 97.1117 16.3263 97.1117 13C97.1117 8.67697 100.691 8.5061 102.375 8.57445H105.033Z" fill="#004085"/>
<path d="M118.98 6H116.736C116.617 6 116.532 6.09113 116.532 6.15948V15.2783L110.121 6.05696C110.104 6.01709 109.996 6 109.962 6H107.656C107.565 6 107.48 6.09113 107.48 6.15948V16.6395H110.138V10.7274L116.532 19.9487C116.549 19.9829 116.651 20 116.685 20H118.98C119.099 20 119.167 19.9146 119.167 19.8405V6.15948C119.167 6.09113 119.099 6 118.98 6Z" fill="#004085"/>
<path d="M124.54 11.0749V19.8405C124.54 19.9146 124.608 20 124.733 20H126.971C127.09 20 127.181 19.9146 127.181 19.8405V11.0749H124.54ZM121.866 8.39788H129.838C129.957 8.39788 130.03 8.32954 130.03 8.2441V6.15948C130.03 6.09113 129.957 6 129.838 6H121.866C121.759 6 121.674 6.09113 121.674 6.15948V8.2441C121.674 8.32954 121.759 8.39788 121.866 8.39788Z" fill="#007BFF"/>
<path d="M141.837 19.7722C140.972 17.8299 140.033 15.9048 139.163 13.9284C140.553 13.4215 141.718 12.2994 141.718 10.1692C141.718 6.03987 137.811 6 137.026 6H132.531C132.44 6 132.355 6.09113 132.355 6.15948V8.54028H137.026C137.444 8.54028 139.078 8.62571 139.078 10.1692C139.078 11.7071 137.602 11.7754 137.026 11.7754H132.355V19.8405C132.355 19.9146 132.44 20 132.531 20H134.804C134.911 20 134.996 19.9146 134.996 19.8405V14.3499H136.488L139.027 19.8975C139.044 19.9487 139.146 20 139.197 20H141.684C141.82 20 141.893 19.8975 141.837 19.7722Z" fill="#007BFF"/>
<path d="M155.16 19.7878L149.879 6.10679C149.828 5.9644 149.585 5.9644 149.534 6.10679L144.271 19.7878C144.22 19.8961 144.288 19.9986 144.446 19.9986H146.826C146.894 19.9986 146.979 19.9644 146.996 19.8961L149.71 12.0873L152.452 19.8961C152.469 19.9644 152.553 19.9986 152.61 19.9986H155.007C155.126 19.9986 155.211 19.8961 155.16 19.7878Z" fill="#007BFF"/>
<path d="M163.286 17.6021H161.901V6H159.244V17.6021H157.819C157.712 17.6021 157.627 17.6705 157.627 17.7616V19.8405C157.627 19.9146 157.712 20 157.819 20H163.286C163.411 20 163.479 19.9146 163.479 19.8405V17.7616C163.479 17.6705 163.411 17.6021 163.286 17.6021Z" fill="#007BFF"/>
<path d="M168.552 11.0749V19.8405C168.552 19.9146 168.62 20 168.744 20H170.983C171.102 20 171.192 19.9146 171.192 19.8405V11.0749H168.552ZM165.878 8.39788H173.85C173.968 8.39788 174.042 8.32954 174.042 8.2441V6.15948C174.042 6.09113 173.968 6 173.85 6H165.878C165.77 6 165.686 6.09113 165.686 6.15948V8.2441C165.686 8.32954 165.77 8.39788 165.878 8.39788Z" fill="#007BFF"/>
<path d="M182.739 12.2311C181.75 11.7583 180.777 11.7583 180.692 11.7583C179.805 11.7583 178.957 11.2343 178.957 10.2205C178.957 9.09845 179.737 8.52319 180.692 8.52319C181.597 8.52319 182.36 8.99593 182.394 9.99268C182.394 10.0439 182.479 10.1294 182.586 10.1294H184.757C184.876 10.1294 184.967 10.0439 184.95 9.99268C184.91 7.61188 183.073 6 180.692 6C178.47 6 176.367 7.59479 176.367 10.2205C176.367 11.8438 177.181 13.0911 178.623 13.7518C179.635 14.2246 180.568 14.2246 180.692 14.2246C181.473 14.2587 182.428 14.891 182.428 15.9219C182.428 16.8503 181.614 17.4825 180.692 17.4825C180.692 17.4825 180.692 17.4825 180.675 17.4825V20C180.692 20 180.692 20 180.692 20C182.914 20 185.001 18.5476 185.001 15.9219C185.001 14.2758 184.198 12.9146 182.739 12.2311Z" fill="#007BFF"/>
<defs>
<linearGradient id="paint0_linear_58352_2714" x1="14.25" y1="12" x2="18" y2="12" gradientUnits="userSpaceOnUse">
<stop stop-color="#007AFF"/>
<stop offset="1" stop-color="#F6C648"/>
</linearGradient>
<linearGradient id="paint1_linear_58352_2714" x1="9.75" y1="12" x2="6" y2="12" gradientUnits="userSpaceOnUse">
<stop stop-color="#004085"/>
<stop offset="1" stop-color="#F6C648"/>
</linearGradient>
</defs>
</svg>
