<svg width="242" height="40" viewBox="0 0 242 40" fill="none" xmlns="http://www.w3.org/2000/svg">
<circle cx="17.8882" cy="17.8882" r="17.8882" transform="matrix(-1 0 0 1 55.665 2.11182)" stroke="url(#paint0_linear_58553_1890)" stroke-width="2.86211"/>
<circle cx="17.8882" cy="17.8882" r="17.8882" transform="matrix(-1 0 0 1 37.7764 2.11182)" stroke="url(#paint1_linear_58553_1890)" stroke-width="2.86211"/>
<path d="M23.1084 20.5209V19.4801H26.2307V20.5209H23.1084ZM26.621 18.5174L25.5282 17.4246L26.2567 16.6961L27.3495 17.7889L26.621 18.5174ZM28.3122 17.3986V14.2763H29.353V17.3986H28.3122ZM31.0443 18.5174L30.3157 17.7889L31.4085 16.6961L32.1371 17.4246L31.0443 18.5174ZM31.4345 20.5209V19.4801H34.5568V20.5209H31.4345ZM28.8326 21.5617C28.399 21.5617 28.0304 21.4099 27.7268 21.1063C27.4232 20.8028 27.2715 20.4342 27.2715 20.0005C27.2715 19.5669 27.4232 19.1983 27.7268 18.8947C28.0304 18.5912 28.399 18.4394 28.8326 18.4394C29.2663 18.4394 29.6349 18.5912 29.9384 18.8947C30.242 19.1983 30.3938 19.5669 30.3938 20.0005C30.3938 20.4342 30.242 20.8028 29.9384 21.1063C29.6349 21.4099 29.2663 21.5617 28.8326 21.5617ZM31.4085 23.305L30.3157 22.2122L31.0443 21.4836L32.1371 22.5764L31.4085 23.305ZM26.2567 23.305L25.5282 22.5764L26.621 21.4836L27.3495 22.2122L26.2567 23.305ZM28.3122 25.7248V22.6024H29.353V25.7248H28.3122Z" fill="#F6C648"/>
<path d="M76.3949 30.1201L68.5231 9.72603C68.4473 9.51377 68.0848 9.51377 68.009 9.72603L60.1625 30.1201C60.0867 30.2814 60.1878 30.4343 60.4238 30.4343H63.972C64.0731 30.4343 64.1995 30.3833 64.2248 30.2814L68.2703 18.641L72.3579 30.2814C72.3831 30.3833 72.5096 30.4343 72.5938 30.4343H76.1673C76.3443 30.4343 76.4707 30.2814 76.3949 30.1201Z" fill="#004085"/>
<path d="M91.2572 26.5478H80.0732V30.1987C80.0732 30.309 80.1997 30.4364 80.3598 30.4364H91.2572C91.4426 30.4364 91.5438 30.309 91.5438 30.1987V26.811C91.5438 26.6836 91.4426 26.5478 91.2572 26.5478ZM84.0344 22.5572V9.80457C84.0344 9.70268 83.9333 9.56683 83.7731 9.56683H80.3598C80.1997 9.56683 80.0732 9.70268 80.0732 9.80457V22.5572H84.0344Z" fill="#004085"/>
<path d="M103.423 26.8619H101.358V9.56683H97.3967V26.8619H95.2729C95.1127 26.8619 94.9863 26.9638 94.9863 27.0996V30.1987C94.9863 30.309 95.1127 30.4364 95.2729 30.4364H103.423C103.608 30.4364 103.709 30.309 103.709 30.1987V27.0996C103.709 26.9638 103.608 26.8619 103.423 26.8619Z" fill="#004085"/>
<path d="M122.793 13.4045V9.80457C122.793 9.70268 122.692 9.56683 122.507 9.56683H119.144C113.986 9.56683 106.999 11.0866 106.999 20.0016C106.999 29.2647 114.07 30.4364 119.144 30.4364H122.507C122.692 30.4364 122.793 30.309 122.793 30.1987V17.4205H114.846V21.411H118.832V26.6242C114.323 26.8619 110.985 24.96 110.985 20.0016C110.985 13.5574 116.32 13.3026 118.832 13.4045H122.793Z" fill="#004085"/>
<path d="M143.586 9.56683H140.24C140.063 9.56683 139.937 9.70268 139.937 9.80457V23.3978L130.379 9.65174C130.354 9.5923 130.194 9.56683 130.143 9.56683H126.705C126.57 9.56683 126.443 9.70268 126.443 9.80457V25.427H130.405V16.6139L139.937 30.36C139.962 30.4109 140.114 30.4364 140.164 30.4364H143.586C143.763 30.4364 143.864 30.309 143.864 30.1987V9.80457C143.864 9.70268 143.763 9.56683 143.586 9.56683Z" fill="#004085"/>
<path d="M151.874 17.1318V30.1987C151.874 30.309 151.975 30.4364 152.16 30.4364H155.498C155.675 30.4364 155.809 30.309 155.809 30.1987V17.1318H151.874ZM147.887 13.1413H159.771C159.948 13.1413 160.057 13.0394 160.057 12.9121V9.80457C160.057 9.70268 159.948 9.56683 159.771 9.56683H147.887C147.727 9.56683 147.601 9.70268 147.601 9.80457V12.9121C147.601 13.0394 147.727 13.1413 147.887 13.1413Z" fill="#007BFF"/>
<path d="M177.658 30.0968C176.369 27.2015 174.97 24.3318 173.672 21.3856C175.745 20.6299 177.481 18.9573 177.481 15.7819C177.481 9.62627 171.657 9.56683 170.486 9.56683H163.786C163.651 9.56683 163.524 9.70268 163.524 9.80457V13.3536H170.486C171.11 13.3536 173.545 13.4809 173.545 15.7819C173.545 18.0743 171.346 18.1762 170.486 18.1762H163.524V30.1987C163.524 30.309 163.651 30.4364 163.786 30.4364H167.174C167.334 30.4364 167.46 30.309 167.46 30.1987V22.0139H169.685L173.469 30.2836C173.495 30.36 173.646 30.4364 173.722 30.4364H177.431C177.633 30.4364 177.742 30.2836 177.658 30.0968Z" fill="#007BFF"/>
<path d="M197.517 30.1201L189.645 9.72603C189.569 9.51377 189.207 9.51377 189.131 9.72603L181.285 30.1201C181.209 30.2814 181.31 30.4343 181.546 30.4343H185.094C185.195 30.4343 185.322 30.3833 185.347 30.2814L189.392 18.641L193.48 30.2814C193.505 30.3833 193.632 30.4343 193.716 30.4343H197.289C197.466 30.4343 197.593 30.2814 197.517 30.1201Z" fill="#007BFF"/>
<path d="M209.632 26.8619H207.567V9.56683H203.606V26.8619H201.482C201.322 26.8619 201.195 26.9638 201.195 27.0996V30.1987C201.195 30.309 201.322 30.4364 201.482 30.4364H209.632C209.817 30.4364 209.918 30.309 209.918 30.1987V27.0996C209.918 26.9638 209.817 26.8619 209.632 26.8619Z" fill="#007BFF"/>
<path d="M217.481 17.1318V30.1987C217.481 30.309 217.582 30.4364 217.768 30.4364H221.105C221.282 30.4364 221.417 30.309 221.417 30.1987V17.1318H217.481ZM213.495 13.1413H225.378C225.555 13.1413 225.665 13.0394 225.665 12.9121V9.80457C225.665 9.70268 225.555 9.56683 225.378 9.56683H213.495C213.334 9.56683 213.208 9.70268 213.208 9.80457V12.9121C213.208 13.0394 213.334 13.1413 213.495 13.1413Z" fill="#007BFF"/>
<path d="M238.629 18.8554C237.154 18.1507 235.705 18.1507 235.578 18.1507C234.255 18.1507 232.991 17.3696 232.991 15.8583C232.991 14.1856 234.154 13.3281 235.578 13.3281C236.927 13.3281 238.065 14.0328 238.115 15.5187C238.115 15.5951 238.242 15.7224 238.402 15.7224H241.638C241.815 15.7224 241.95 15.5951 241.925 15.5187C241.866 11.9696 239.126 9.56683 235.578 9.56683C232.266 9.56683 229.131 11.9442 229.131 15.8583C229.131 18.2781 230.344 20.1375 232.494 21.1224C234.002 21.8271 235.393 21.8271 235.578 21.8271C236.741 21.878 238.166 22.8204 238.166 24.3572C238.166 25.7412 236.952 26.6836 235.578 26.6836C235.578 26.6836 235.578 26.6836 235.553 26.6836V30.4364C235.578 30.4364 235.578 30.4364 235.578 30.4364C238.891 30.4364 242 28.2713 242 24.3572C242 21.9035 240.804 19.8743 238.629 18.8554Z" fill="#007BFF"/>
<defs>
<linearGradient id="paint0_linear_58553_1890" x1="21.2422" y1="17.8882" x2="26.8323" y2="17.8882" gradientUnits="userSpaceOnUse">
<stop stop-color="#007AFF"/>
<stop offset="1" stop-color="#F6C648"/>
</linearGradient>
<linearGradient id="paint1_linear_58553_1890" x1="14.5342" y1="17.8882" x2="8.9441" y2="17.8882" gradientUnits="userSpaceOnUse">
<stop stop-color="#004085"/>
<stop offset="1" stop-color="#F6C648"/>
</linearGradient>
</defs>
</svg>
