<svg width="385" height="346" viewBox="0 0 385 346" fill="none" xmlns="http://www.w3.org/2000/svg">
<g clip-path="url(#clip0_61458_12186)">
<path d="M9.86468 148.124C7.04818 99.8014 35.5765 56.1067 73.7054 41.8972C98.1959 32.7702 129.693 35.659 152.098 48.979C185.971 69.1165 173.645 97.9841 205.142 116.048C236.721 134.159 260.78 111.833 297.617 129.378C336.885 148.081 346.638 191.114 347.845 196.864C357.119 241.051 332.164 287.929 288.698 311.423C227.251 344.637 146.229 321.7 122.525 286.428C109.372 266.856 116.797 247.847 95.768 232.273C76.0987 217.707 57.6184 225.462 40.3768 212.277C29.0926 203.648 13.1506 187.283 9.86468 148.124Z" fill="#F5F8FC"/>
</g>
<g clip-path="url(#clip1_61458_12186)">
<path d="M207.405 83.0157C207.405 83.0157 203.253 91.2433 189.9 93.4537C176.55 95.6642 182.969 87.1295 182.969 87.1295L185.028 83.0271L186.946 79.2053L198.745 70.8223C198.738 70.8943 198.738 70.9626 198.738 71.0346C198.688 75.5541 207.405 83.0157 207.405 83.0157Z" fill="#FF9996"/>
<path d="M198.746 70.8223C198.738 70.8943 198.738 70.9626 198.738 71.0346C197.646 75.5768 194.871 81.6925 187.803 83.0536C186.639 83.2774 185.725 83.2546 185.028 83.0271L186.946 79.2053L198.746 70.8223Z" fill="black"/>
<path d="M160.392 167.027C160.392 167.027 113.31 212.241 111.621 214.641L111.601 214.661L111.604 214.664C108.902 218.514 107.311 223.2 107.311 228.26C107.311 241.347 117.92 251.957 131.008 251.957C137.611 251.957 143.581 249.254 147.879 244.896L147.88 244.897L209.682 186.364C216.127 135.179 160.392 167.027 160.392 167.027Z" fill="#112E5B"/>
<path d="M178.591 86.2677L174.3 167.377L201.157 167.027L206.2 81.0566L189.811 89.2432L178.591 86.2677Z" fill="#F2F2F2"/>
<path d="M186.944 167.348L180.487 159.572L188.146 96.125H190.629L196.925 159.951L186.944 167.348Z" fill="#F90065"/>
<path d="M91.7659 93.4716L85.566 86.0318C80.324 79.7414 80.1422 70.658 85.1283 64.1629L86.3785 62.5343C87.6892 60.827 87.7679 58.4749 86.5743 56.6838L79.2539 45.6987L103.14 37.3574L110.942 60.5016C111.57 62.3639 111.272 64.4139 110.138 66.0196L103.99 74.7319C102.851 76.3452 103.079 78.5513 104.522 79.8985L107.69 82.8554C114.136 88.9218 98.2114 101.055 91.7659 93.4716Z" fill="#FF9996"/>
<path d="M205.489 67.1792C204.797 65.9527 203.539 65.2244 202.142 65.0805C201.63 59.0233 197.74 55.2334 192.486 55.1841C186.798 55.1307 181.669 59.4787 181.604 66.4304C181.539 73.3821 182.187 79.0242 187.875 79.0776C191.06 79.1075 195.149 77.3779 198.143 74.6299C199.972 74.6878 202.057 74.2109 203.353 73.479C205.737 72.132 206.694 69.3115 205.489 67.1792Z" fill="#FF9996"/>
<path d="M204.096 70.8626C203.532 69.6348 202.592 68.5616 201.449 67.8405L201.665 67.498C202.874 68.2606 203.868 69.3955 204.464 70.6938L204.096 70.8626Z" fill="black"/>
<path d="M203.384 69.3105L202.601 71.0662L203.384 69.3105Z" fill="white"/>
<path d="M202.786 71.1489L202.416 70.9844L203.199 69.2285L203.568 69.3931L202.786 71.1489Z" fill="black"/>
<path d="M192.341 66.001C192.346 65.5052 192.062 65.1005 191.706 65.0972C191.351 65.0938 191.058 65.4931 191.054 65.9889C191.049 66.4848 191.334 66.8894 191.689 66.8928C192.045 66.8961 192.337 66.4969 192.341 66.001Z" fill="black"/>
<path d="M185.657 65.7217C185.661 65.2259 185.377 64.8212 185.021 64.8179C184.666 64.8146 184.374 65.2138 184.369 65.7096C184.364 66.2055 184.649 66.6101 185.004 66.6135C185.36 66.6168 185.652 66.2176 185.657 65.7217Z" fill="black"/>
<path d="M185.139 70.3352L184.998 69.9557C186.084 69.5531 186.983 68.7181 187.464 67.6653C187.946 66.6122 187.99 65.3865 187.585 64.302L187.964 64.1602C188.407 65.3448 188.359 66.6837 187.832 67.8337C187.306 68.9836 186.325 69.8954 185.139 70.3352Z" fill="black"/>
<path d="M187.773 73.4158L187.762 73.0111C189.408 72.9685 191.014 71.8844 191.669 70.375L192.04 70.5361C191.314 72.2111 189.599 73.3684 187.773 73.4158Z" fill="black"/>
<path d="M187.959 79.281C187.93 79.281 187.902 79.281 187.873 79.2806L187.877 78.8759C187.903 78.8761 187.929 78.8763 187.956 78.8763C191.107 78.8763 195.134 77.1177 198.006 74.4814L198.068 74.4257L198.15 74.4283C199.909 74.4844 201.963 74.0323 203.253 73.3034C204.363 72.6766 205.188 71.702 205.575 70.5592C205.96 69.4247 205.867 68.2599 205.313 67.2794C204.677 66.1538 203.514 65.4259 202.122 65.2826L201.955 65.2654L201.94 65.0982C201.447 59.2484 197.735 55.4365 192.484 55.3871L192.488 54.9824C197.913 55.0333 201.761 58.9196 202.329 64.8996C203.78 65.0962 204.99 65.8843 205.666 67.0802C206.277 68.1625 206.381 69.4442 205.959 70.6894C205.539 71.9264 204.649 72.98 203.453 73.6559C202.125 74.4064 200.037 74.8759 198.22 74.8352C195.239 77.5446 191.23 79.281 187.959 79.281Z" fill="black"/>
<path d="M255.559 167.026L205.208 166.291L180.487 229.586C179.349 233.377 178.591 236.11 178.591 239.633C178.591 249.58 186.654 257.643 196.601 257.643C203.817 257.643 210.04 253.396 212.913 247.267L248.227 204.028C255.967 194.551 258.925 182.044 256.248 170.104L255.559 167.026Z" fill="#112E5B"/>
<path d="M185.298 92.5863L188.243 96.1686H190.725L194.552 91.2225L189.811 89.2441L185.298 92.5863Z" fill="#F90065"/>
<path d="M184.657 81.3379L189.811 89.2424L183.899 99.9162L179.349 85.1294L184.657 81.3379Z" fill="#F2F2F2"/>
<path d="M195.577 99.9162L189.811 89.2424L203.236 78.3047L206.2 81.0558L195.577 99.9162Z" fill="#F2F2F2"/>
<path d="M205.335 81.0977C202.236 94.3241 189.984 151.266 201.157 181.184C201.157 181.184 202.147 188.819 212.715 181.434C223.282 174.048 247.976 166.647 257.075 171.197L229.397 81.7173L213.439 81.0678L208.688 79.301C207.257 78.7687 205.684 79.6107 205.335 81.0977Z" fill="#B8C2D8"/>
<path d="M205.963 173.505C202.78 153.751 208.739 111.479 209.213 108.189L202.813 107.257L210.731 103.637C209.765 91.9982 210.955 85.9555 211.404 83.6748C211.444 83.4719 211.478 83.2995 211.504 83.1562L211.902 83.2281C211.876 83.373 211.842 83.5476 211.801 83.7529C211.354 86.0276 210.164 92.07 211.147 103.745L211.159 103.887L204.231 107.054L209.672 107.847L209.642 108.047C209.576 108.495 203.076 153.044 206.363 173.44L205.963 173.505Z" fill="black"/>
<path d="M212.336 137.073C212.336 137.073 198.686 135.178 192.999 140.486C192.999 140.486 181.245 144.146 176.695 148.448C172.146 152.749 161.28 160.926 161.28 160.926L180.108 162.097L193.378 159.822L213.931 156.367C227.122 155.272 225.985 135.178 212.336 137.073Z" fill="#FF9996"/>
<path d="M228.113 242.447C216.507 237.96 158.923 215.659 145.984 209.871L145.972 209.888C141.892 206.56 136.684 204.562 131.008 204.562C117.92 204.562 107.311 215.172 107.311 228.259C107.311 239.955 115.786 249.665 126.928 251.599C142.443 256.904 177 267.492 225.227 266.364C231.927 266.364 237.36 260.932 237.36 254.231C237.36 248.525 233.42 243.742 228.113 242.447Z" fill="#112E5B"/>
<path d="M214.584 239.61C214.576 229.663 206.507 221.606 196.561 221.613C189.542 221.618 183.467 225.641 180.5 231.503L180.454 231.483L180.143 232.25C179.951 232.68 179.772 233.117 179.612 233.563L147.932 311.474C146.947 313.371 146.391 315.506 146.393 317.764C146.398 325.616 153.108 331.977 161.379 331.971C166.971 331.967 171.841 329.052 174.411 324.74L174.455 324.758L211.776 249.274C212.456 248.205 213.029 247.063 213.474 245.858L213.475 245.856C214.193 243.909 214.585 241.806 214.584 239.61Z" fill="#112E5B"/>
<path d="M181.145 84.5513C180.357 92.0502 175.332 142.718 180.016 172.447C180.43 175.072 177.819 177.144 175.351 176.159C168.81 173.547 158.524 170.384 153.567 173.85L172.146 86.2667L177.454 84.7501L180.339 83.8845C180.769 83.7556 181.192 84.1049 181.145 84.5513Z" fill="#B8C2D8"/>
<path d="M174.112 171.678L169.973 112.609L174.062 111.469L170.294 108.341L178.254 89.0332L178.627 89.1875L170.782 108.22L174.916 111.651L170.4 112.91L174.516 171.65L174.112 171.678Z" fill="black"/>
<path d="M153.377 167.04L149.596 167.342C146.62 167.579 143.673 166.619 141.408 164.675L138.34 162.042L150.322 161.719L154.099 164.051C155.429 164.873 154.936 166.916 153.377 167.04Z" fill="#FF9996"/>
<path d="M202.539 158.282L177.438 167.567C175.726 168.2 173.854 168.261 172.104 167.74L162.667 163.993L173.964 163.413L195.465 156.416L202.539 158.282Z" fill="#FF9996"/>
<path d="M168.922 167.798L165.141 168.099C162.165 168.337 159.218 167.377 156.953 165.433L153.885 162.799L165.867 162.477L169.644 164.809C170.974 165.631 170.481 167.674 168.922 167.798Z" fill="#FF9996"/>
<path d="M160.96 167.04L157.179 167.342C154.203 167.579 151.256 166.619 148.991 164.675L145.923 162.042L157.905 161.719L161.682 164.051C163.012 164.873 162.519 166.916 160.96 167.04Z" fill="#FF9996"/>
<path d="M148.723 167.579C146.013 167.579 143.34 166.6 141.276 164.828L137.81 161.853L145.912 161.635L145.922 162.039L138.87 162.23L141.54 164.521C143.748 166.417 146.678 167.371 149.58 167.14L153.361 166.838L153.393 167.242L149.612 167.543C149.316 167.567 149.019 167.579 148.723 167.579Z" fill="black"/>
<path d="M181.675 162.484L137.529 165.258L160.712 145.784L204.858 143.01L181.675 162.484Z" fill="#B7B7B7"/>
<path d="M174.508 168.291C173.677 168.291 172.845 168.172 172.046 167.934L162.592 164.182L162.742 163.805L172.178 167.552C173.859 168.052 175.707 167.992 177.368 167.378L193.39 161.451L193.531 161.831L177.509 167.757C176.548 168.112 175.528 168.291 174.508 168.291Z" fill="black"/>
<path d="M164.268 168.337C161.558 168.337 158.886 167.359 156.821 165.587L153.753 162.954L154.017 162.646L157.085 165.28C159.294 167.175 162.226 168.131 165.125 167.898L168.906 167.597C169.384 167.559 169.777 167.316 170.011 166.913L170.361 167.117C170.062 167.63 169.544 167.952 168.938 168.001L165.157 168.302C164.861 168.326 164.564 168.337 164.268 168.337Z" fill="black"/>
<path d="M156.306 167.578C153.596 167.578 150.923 166.599 148.859 164.827L145.791 162.194L146.054 161.887L149.123 164.52C151.331 166.415 154.259 167.37 157.163 167.139L159.63 166.942L159.662 167.346L157.195 167.542C156.899 167.566 156.602 167.578 156.306 167.578Z" fill="black"/>
<path d="M180.953 161.083L141.133 163.79L155.454 152.066L195.274 149.359L180.953 161.083Z" fill="#B8C2D8"/>
<path d="M179.718 149.779L165.042 150.452L170.157 146.171L184.833 145.498L179.718 149.779Z" fill="#B8C2D8"/>
<path d="M172.725 146.186L172.704 145.781L179.907 145.402L179.929 145.807L172.725 146.186Z" fill="black"/>
<path d="M181.184 161.306L180.927 160.993L193.818 150.377L194.076 150.689L181.184 161.306Z" fill="black"/>
<path d="M181.789 162.433L137.482 165.262L117.927 135.177L118.306 134.419L161.69 131.531L181.789 162.433Z" fill="#E5E5E5"/>
<path d="M182.383 163.614L137.67 166.614L137.515 165.248L181.789 162.42L182.383 163.614Z" fill="#4F4F4F"/>
<path d="M181.789 162.421L204.858 143.01L205.132 144.658L182.383 163.615L181.789 162.421Z" fill="#4F4F4F"/>
<path d="M198.212 68.7363C198.053 68.9539 197.7 68.8254 197.726 68.5571C197.844 67.3208 197.622 66.0714 198.307 65.035C198.853 64.2081 199.53 62.5245 198.686 61.6226C198.048 60.9408 196.647 61.2038 195.274 61.2435C191.192 61.3615 183.596 61.4535 180.487 57.452C179.535 56.2265 178.581 53.3414 178.579 51.7895C178.576 50.2375 178.948 48.7123 179.319 47.2051C182.493 49.5935 186.241 51.2137 190.156 51.8897C192.685 52.3264 195.33 52.3898 197.667 53.451C200.003 54.5122 201.983 56.9981 201.389 59.4945C203.163 59.0259 205.203 59.9537 206.016 61.5983C206.813 63.2104 204.753 66.1724 204.753 66.1724C203.686 65.4617 202.302 65.0087 200.961 65.7933C199.824 66.4584 199.014 67.6379 198.212 68.7363Z" fill="black"/>
<path d="M234.705 307.69C234.705 307.69 240.393 308.828 242.288 305.415L256.317 250.439C256.317 247.785 256.277 246.705 253.11 246.037C252.716 245.954 252.295 245.874 251.843 245.797C251.843 245.797 243.805 289.524 234.705 307.69Z" fill="black"/>
<path d="M198.307 137.832C198.307 137.832 187.575 141.547 182.233 143.388C177.454 145.036 181.955 147.17 185.795 148.069C189.736 148.992 200.019 143.621 200.019 143.621L198.307 137.832Z" fill="#FF9996"/>
<path d="M107.654 309.723C107.654 309.723 109.965 302.383 132.335 309.587C137.531 311.26 147.092 312.901 147.122 312.999C150.808 325.268 164.432 325.896 171.387 323.615C173.452 322.938 174.421 324.753 174.421 324.753L170.629 340.298C147.622 336.282 125.933 327.298 107.654 309.723Z" fill="#56576B"/>
<path d="M106.967 316.531C105.036 311.103 109.586 303.141 117.006 310.168C122.028 314.923 127.182 319.486 132.664 323.692C141.584 330.537 152.943 333.486 164.128 335.035C165.94 335.286 167.865 335.549 169.273 336.706C170.68 337.862 171.016 340.02 169.871 341.435C163.425 349.398 147.122 341.815 144.534 340.388C135.046 335.157 131.577 333.852 121.776 329.968C115.934 327.653 109.253 322.958 106.967 316.531Z" fill="black"/>
<path d="M222.952 266.363C222.952 266.363 230.535 295.937 230.914 301.624C231.209 306.052 233.189 308.922 237.359 307.311C240.898 305.945 250.166 262.836 252.896 249.794C253.321 247.764 253.883 246.167 251.843 245.797L227.881 242.477C227.881 242.477 240.013 254.989 222.952 266.363Z" fill="#56576B"/>
<path d="M172.146 86.2676C172.146 86.2676 122.856 105.225 116.185 111.975C110.087 118.146 117.655 129.078 125.737 131.841C130.501 133.47 135.523 132.603 139.419 129.937L169.492 115.083L172.146 86.2676Z" fill="#B8C2D8"/>
<path d="M84.1826 89.3013L104.588 77.6367L109.628 83.4688L91.0073 97.2634L84.1826 89.3013Z" fill="#F2F2F2"/>
<path d="M135.9 102.116C135.163 101.864 109.628 81.0566 109.628 81.0566L87.2161 96.1253L118.814 127.005C120.567 129.169 122.92 130.878 125.737 131.841C133.819 134.604 142.645 130.19 145.452 121.982C148.258 113.773 143.982 104.879 135.9 102.116Z" fill="#B8C2D8"/>
<path d="M135.835 102.308C135.7 102.262 135.29 102.121 119.581 89.4007L119.835 89.0859C133.319 100.004 135.733 101.818 135.972 101.927L135.835 102.308Z" fill="black"/>
<path d="M218.402 103.709C218.781 104.088 210.061 86.647 222.573 82.8555C235.085 79.064 239.255 83.2347 244.563 91.576C249.871 99.9173 270.579 133.478 270.579 133.478C270.579 133.478 278.308 147.69 262.004 152.24C247.206 156.37 241.53 140.865 241.53 140.865L218.402 103.709Z" fill="#B8C2D8"/>
<path d="M238.295 136.051L218.23 103.816L218.574 103.602L238.639 135.837L238.295 136.051Z" fill="black"/>
<path d="M205.132 135.556L210.44 158.305L221.056 156.03L213.186 134.146L205.132 135.556Z" fill="#F2F2F2"/>
<path d="M210.2 134.654L214.99 158.307L260.267 152.464C261.65 152.286 262.987 151.854 264.205 151.175C267.706 149.224 273.881 144.574 271.104 137.074C267.312 126.837 260.675 126.568 255.084 127.271C249.492 127.975 210.2 134.654 210.2 134.654Z" fill="#B8C2D8"/>
<path d="M183.846 100.43L180.471 89.4631L180.858 89.344L183.953 99.4017L189.575 89.2507L185.696 83.3011L186.035 83.0801L190.047 89.2337L183.846 100.43Z" fill="black"/>
<path d="M195.574 100.335L189.633 89.3391L189.989 89.1465L195.581 99.4973L200.98 89.9105L201.333 90.1095L195.574 100.335Z" fill="black"/>
<path d="M210.234 134.853L210.202 134.661L210.005 134.712L209.961 134.505L210.166 134.454L213.15 133.948C220.295 132.738 238.011 129.747 248.219 128.111L248.283 128.511C238.076 130.146 220.362 133.137 213.219 134.347L210.234 134.853Z" fill="black"/>
<path d="M127.832 105.292L127.654 104.928C144.148 96.8384 171.795 86.1848 172.073 86.0781L172.218 86.4558C171.941 86.5624 144.31 97.2099 127.832 105.292Z" fill="black"/>
<path d="M186.842 148.377C186.442 148.377 186.075 148.342 185.749 148.266C183.126 147.652 180.038 146.441 179.966 145.051C179.929 144.326 180.65 143.72 182.167 143.196C184.13 142.52 186.82 141.591 189.439 140.686L189.571 141.068C186.952 141.973 184.262 142.903 182.299 143.579C181.012 144.023 180.345 144.525 180.371 145.03C180.424 146.067 183.163 147.245 185.841 147.872C189.666 148.77 199.823 143.495 199.926 143.441L200.113 143.8C199.725 144.003 191.294 148.377 186.842 148.377Z" fill="black"/>
<path d="M163.221 129.315L162.825 129.231L170.34 93.8047L170.736 93.8889L163.221 129.315Z" fill="black"/>
<path d="M224.494 157.368L224.442 156.967L262.133 152.104L262.185 152.505L224.494 157.368Z" fill="black"/>
<path d="M174.799 245.773L174.422 245.627L196.791 187.617L197.169 187.763L174.799 245.773Z" fill="black"/>
<path d="M180.223 223.897L150.649 212.144L150.798 211.768L180.372 223.521L180.223 223.897Z" fill="black"/>
<path d="M151.35 153.085C152.763 151.847 152.607 149.358 151.002 147.525C149.396 145.692 146.95 145.21 145.537 146.447C144.124 147.684 144.28 150.173 145.886 152.006C147.491 153.839 149.938 154.322 151.35 153.085Z" fill="white"/>
<path d="M176.716 154.815L161.55 131.687L161.888 131.465L177.054 154.593L176.716 154.815Z" fill="black"/>
<path d="M82.594 66.6284L53.8828 38.0427L94.8246 0.21875L123.536 28.8044L82.594 66.6284Z" fill="#FFCC83"/>
<path d="M82.5899 66.8481L53.6543 38.039L94.8289 0L123.764 28.8089L82.5899 66.8481ZM54.1116 38.0476L82.598 66.4097L123.307 28.8004L94.8208 0.438392L54.1116 38.0476Z" fill="black"/>
<path d="M114.81 22.5304L101.775 9.55238C101.111 8.89122 101.096 7.52689 101.746 6.92627L102.279 6.43331C102.659 6.08271 103.163 6.10595 103.551 6.4919L116.586 19.4699C117.25 20.131 117.265 21.4954 116.615 22.096L116.081 22.589C115.702 22.9396 115.197 22.9163 114.81 22.5304Z" fill="black"/>
<path d="M83.2249 63.2034L57.4768 37.5675L94.1937 3.64648L119.942 29.2823L83.2249 63.2034Z" fill="white"/>
<path d="M83.2214 63.3992L57.272 37.5629L94.1975 3.44922L120.147 29.2855L83.2214 63.3992ZM57.6819 37.5707L83.2288 63.0059L119.737 29.2777L94.1901 3.84244L57.6819 37.5707Z" fill="black"/>
<path d="M90.2572 38.1054L89.4037 33.358L79.5765 37.8453L78.5119 30.7438L70.3526 34.0538L70.0728 33.3641L79.1075 29.6992L80.1657 36.7579L89.9664 32.2827L90.8411 37.1484L104.327 33.0168L106.314 36.6972L105.659 37.0506L103.962 33.9066L90.2572 38.1054Z" fill="#F90065"/>
<path d="M88.3287 55.9126L66.5386 34.2177L66.6345 34.1293L88.7905 13.6602L88.9604 13.8437L66.8999 34.2245L88.505 55.7352L88.3287 55.9126Z" fill="black"/>
<path d="M88.3534 61.243L85.1441 48.9894C84.5416 46.6892 85.1007 44.2397 86.6415 42.4287C87.4255 41.5073 88.9031 41.7146 89.3996 42.8178C91.5496 47.5941 96.5302 57.8307 99.7279 57.8307L88.3534 61.243Z" fill="#FF9996"/>
<path d="M99.728 58.0341C96.5076 58.0341 91.7592 48.5535 89.2153 42.9022C89.0111 42.4484 88.5949 42.1359 88.1019 42.066C87.6076 41.9954 87.1194 42.1809 86.796 42.561C85.299 44.3203 84.7549 46.7048 85.3401 48.9393L87.1372 55.8011L86.7455 55.9036L84.9484 49.0419C84.3297 46.6794 84.9051 44.1587 86.4876 42.2987C86.9017 41.8123 87.5275 41.5755 88.1588 41.6651C88.79 41.7547 89.323 42.155 89.5844 42.7359C95.6353 56.1782 98.6939 57.6294 99.728 57.6294V58.0341Z" fill="black"/>
</g>
<g clip-path="url(#clip2_61458_12186)">
<path d="M333.317 59.6337C328.473 45.9864 313.482 38.85 299.835 43.694C286.188 48.538 279.051 63.5282 283.895 77.1754C286.278 83.8873 291.117 89.0192 297.041 91.9308L297.038 91.9313C297.038 91.9313 297.057 91.9401 297.085 91.9531C297.215 92.0166 297.344 92.0807 297.475 92.142C299.026 92.9158 304.267 95.7617 305.594 99.5013L330.481 90.6677C329.32 87.3962 330.915 82.768 331.812 80.603C335.094 74.3548 335.864 66.8096 333.317 59.6337Z" fill="#F2F2F2"/>
<path d="M313.586 98.688C310.534 95.0131 307.11 91.6101 303.408 88.574C301.829 87.2787 300.541 86.3044 299.405 85.4447C296.797 83.4714 295.222 82.2803 293.661 79.8321C289.905 73.9447 290.026 67.2235 293.936 64.5302C295.594 63.3883 298.194 63.1886 300.803 63.983C301.765 61.5505 303.535 59.6326 305.692 58.6961C307.766 57.7948 310.359 57.7466 312.812 58.5324C313.906 56.5667 315.506 55.078 316.983 54.6887C318.989 54.1574 321.623 54.872 323.694 56.5092C326.137 58.441 327.435 61.3164 327.349 64.6056C327.214 69.7795 326.761 72.1229 325.766 77.257C325.589 78.1698 325.396 79.1702 325.184 80.2904C323.802 87.5946 324.479 91.2968 325.292 94.463L324.789 94.5919C323.962 91.3693 323.272 87.6029 324.674 80.1938C324.886 79.0729 325.08 78.0717 325.257 77.1583C326.245 72.0531 326.696 69.723 326.83 64.5921C326.912 61.4703 325.683 58.7444 323.371 56.9166C321.454 55.4009 318.94 54.7073 317.116 55.1904C315.788 55.5429 314.335 56.8974 313.311 58.7043C313.519 58.7813 313.725 58.8642 313.93 58.9533C315.896 59.8077 317.295 61.0631 317.769 62.3978C318.479 64.398 318.216 66.9221 316.554 67.5121C314.404 68.2753 312.381 65.6958 311.9 64.4915C311.316 63.028 311.559 61.0288 312.567 58.9991C310.259 58.2794 307.84 58.332 305.899 59.1723C303.876 60.0506 302.212 61.8538 301.297 64.1453C303.752 65.0115 305.529 66.5291 306.06 68.2167C306.586 69.8907 306.05 72.3422 304.677 72.8297C304.673 72.831 304.67 72.8324 304.666 72.8335C303.37 73.2822 301.496 71.7849 300.686 70.1464C299.942 68.6412 299.922 66.5348 300.624 64.4709C298.173 63.731 295.754 63.9086 294.231 64.9577C290.552 67.4916 290.494 73.9025 294.099 79.5529C295.61 81.9225 297.156 83.0924 299.718 85.0306C300.858 85.8932 302.15 86.8708 303.737 88.1726C307.465 91.2296 310.913 94.6558 313.986 98.3562L313.586 98.688ZM301.117 64.6323C300.457 66.5696 300.467 68.5311 301.152 69.9164C301.837 71.3027 303.481 72.6941 304.496 72.3429L304.503 72.3405C305.495 71.9886 306.05 69.9167 305.565 68.3725C305.089 66.8613 303.389 65.433 301.117 64.6323ZM313.063 59.1667C313.061 59.1708 313.059 59.1748 313.057 59.1789C312.108 61.0661 311.856 62.9801 312.382 64.2988C312.795 65.3316 314.59 67.6584 316.38 67.0229C317.697 66.5554 317.908 64.3439 317.279 62.5715C316.86 61.3896 315.53 60.2149 313.723 59.4294C313.505 59.3346 313.285 59.2471 313.063 59.1667Z" fill="#F90065"/>
<path d="M330.55 90.6437L331.852 94.3117C331.881 94.3929 331.911 94.4769 331.937 94.5591C334.21 101.382 330.613 108.8 323.804 111.217C316.991 113.635 309.522 110.145 306.985 103.415C306.954 103.335 306.924 103.251 306.895 103.17L305.593 99.502L330.55 90.6437Z" fill="#FFCC83"/>
<path d="M331.766 94.0675L331.852 94.3111C331.881 94.3923 331.911 94.4763 331.937 94.5585L306.985 103.415C306.954 103.335 306.924 103.251 306.895 103.169L306.809 102.926L331.766 94.0675Z" fill="#112E5B"/>
<path d="M323.89 111.465C319.657 112.967 314.969 112.27 311.35 109.6L311.658 109.182C315.138 111.75 319.646 112.42 323.716 110.975C326.321 110.051 328.521 108.361 330.078 106.087L330.506 106.381C328.887 108.745 326.598 110.503 323.89 111.465Z" fill="black"/>
<path d="M330.394 90.4219L310.607 97.4453L310.781 97.9345L330.568 90.9111L330.394 90.4219Z" fill="black"/>
<path d="M297.364 92.3771C297.259 92.3276 297.155 92.2763 297.05 92.2252L296.93 92.1673L296.195 91.8307L296.251 91.8199C290.348 88.7106 285.888 83.5672 283.651 77.2623C282.956 75.3044 282.491 73.2739 282.27 71.2267L282.786 71.171C283.003 73.1779 283.459 75.1688 284.14 77.0886C286.417 83.5035 291.039 88.6918 297.155 91.6977L297.443 91.8391C297.49 91.862 297.537 91.8847 297.585 91.9069L297.584 91.9085L297.848 92.0381L297.491 92.1076L297.364 92.3771Z" fill="black"/>
<path d="M324.039 47.5244C317.078 42.3898 308.062 41.0491 299.922 43.9384L299.748 43.4492C308.051 40.5021 317.247 41.8693 324.347 47.1066L324.039 47.5244Z" fill="black"/>
<path d="M329.286 58.7001C328.612 57.2564 327.794 55.8787 326.854 54.6051L327.272 54.2967C328.232 55.598 329.068 57.0056 329.757 58.4804L329.286 58.7001Z" fill="white"/>
<path d="M332.079 68.7925L331.56 68.7944C331.55 66.0975 331.082 63.4263 330.169 60.8548L330.658 60.6811C331.591 63.3079 332.069 66.037 332.079 68.7925Z" fill="white"/>
<path d="M285.8 66.1238L285.282 66.0802C285.424 64.3933 285.744 62.7183 286.235 61.1018L286.731 61.2524C286.252 62.834 285.938 64.4731 285.8 66.1238Z" fill="white"/>
<path d="M287.792 58.4265L287.318 58.2131C288.771 54.9888 290.952 52.1057 293.626 49.8756L293.958 50.2742C291.345 52.4544 289.212 55.2734 287.792 58.4265Z" fill="white"/>
</g>
<g clip-path="url(#clip3_61458_12186)">
<path d="M334.392 219.594L331.363 219.312C330.621 219.243 330.076 218.586 330.145 217.844L331.279 205.671C331.348 204.929 332.006 204.384 332.747 204.453L335.777 204.736C336.518 204.805 337.063 205.462 336.994 206.204L335.86 218.377C335.791 219.118 335.134 219.663 334.392 219.594Z" fill="#112E5B"/>
<path d="M327.933 209.075C327.692 208.902 327.547 208.61 327.576 208.295C327.62 207.821 328.04 207.473 328.513 207.517L339.372 208.529C339.846 208.573 340.194 208.993 340.149 209.466C340.105 209.939 339.685 210.288 339.212 210.244L328.354 209.232C328.196 209.217 328.052 209.16 327.933 209.075Z" fill="#FFCC83"/>
<path d="M352.176 217.594L349.843 215.922L344.493 223.385L346.825 225.057L352.176 217.594Z" fill="#B8C2D8"/>
<path d="M355.885 217.428L348.809 212.356C348.316 212.002 347.629 212.115 347.275 212.609L346.215 214.086C345.861 214.58 345.975 215.267 346.469 215.621L353.544 220.693C354.037 221.047 354.724 220.934 355.078 220.44L356.138 218.963C356.492 218.469 356.378 217.782 355.885 217.428Z" fill="#112E5B"/>
<path d="M312.402 279.477C327.473 290.282 348.449 286.823 359.254 271.752C370.059 256.681 366.6 235.704 351.529 224.9C336.458 214.095 315.481 217.554 304.676 232.625C293.872 247.696 297.33 268.673 312.402 279.477Z" fill="#F2F2F2"/>
<path d="M311.566 280.641C295.876 269.393 292.262 247.477 303.511 231.787C314.759 216.097 336.675 212.483 352.365 223.732C368.055 234.98 371.669 256.896 360.42 272.586C349.172 288.276 327.256 291.89 311.566 280.641ZM350.693 226.064C336.289 215.738 316.169 219.055 305.843 233.459C295.517 247.863 298.834 267.983 313.238 278.309C327.642 288.635 347.762 285.318 358.088 270.914C368.414 256.51 365.097 236.39 350.693 226.064Z" fill="#B8C2D8"/>
<path d="M330.336 256.895L330.077 256.383L353.283 244.644L353.541 245.156L330.336 256.895Z" fill="#FFCC83"/>
<path d="M334.78 252.267C335.4 254.694 333.935 257.165 331.508 257.785C329.08 258.405 326.61 256.94 325.989 254.513C325.369 252.085 324.078 233.837 325.309 233.522C326.539 233.208 334.16 249.839 334.78 252.267Z" fill="#F90065"/>
<path d="M322.791 224.557L322.639 224.003C329.482 222.114 336.858 222.584 343.406 225.328C349.954 228.072 355.462 232.999 358.914 239.203L358.412 239.482C355.022 233.39 349.614 228.551 343.184 225.857C336.754 223.163 329.512 222.701 322.791 224.557Z" fill="#112E5B"/>
<path d="M324.468 227.652L324.322 227.097C330.11 225.581 336.372 225.93 341.955 228.081C347.538 230.232 352.416 234.175 355.69 239.182L355.21 239.497C352.001 234.589 347.22 230.725 341.749 228.617C336.278 226.509 330.14 226.166 324.468 227.652Z" fill="#112E5B"/>
<path d="M325.822 229.825L325.749 229.256C335.584 228.008 345.748 232.35 351.644 240.321L351.183 240.662C345.409 232.858 335.453 228.603 325.822 229.825Z" fill="#112E5B"/>
<path d="M302.206 271.173C298.771 265.774 296.864 259.522 296.692 253.093L297.265 253.078C297.435 259.403 299.311 265.554 302.69 270.865L302.206 271.173ZM313.071 278.543L313.405 278.077C327.681 288.311 347.62 285.023 357.855 270.747L358.321 271.082C347.903 285.615 327.603 288.962 313.071 278.543ZM366.499 248.699C365.49 238.773 360.278 229.758 352.198 223.966L352.532 223.499C360.746 229.388 366.045 238.552 367.07 248.641L366.499 248.699Z" fill="black"/>
</g>
<g clip-path="url(#clip4_61458_12186)">
<path d="M64.9036 162.116C66.35 167.774 66.0256 173.471 64.2761 178.623C64.1917 178.873 64.1058 179.118 64.0142 179.364C61.5334 186.081 56.6067 191.792 50.0361 195.16C49.7188 195.321 49.4001 195.477 49.0725 195.622C47.4552 196.382 45.7456 196.998 43.9524 197.457C41.5034 198.083 39.044 198.377 36.6294 198.364C36.4318 198.365 36.2342 198.366 36.0352 198.361C33.1103 198.287 30.2456 197.77 27.5328 196.856L27.527 196.858C27.249 196.762 26.9637 196.662 26.6901 196.558L26.6843 196.56C18.0451 193.359 11.0653 186.104 8.61172 176.505C8.56128 176.308 8.51085 176.111 8.47202 175.91C8.4023 175.638 8.34268 175.356 8.28458 175.08C6.28 165.231 9.54629 155.419 16.2547 148.721C16.4122 148.563 16.5712 148.411 16.7302 148.26L16.736 148.258C20.2154 144.939 24.5721 142.44 29.563 141.165C31.6463 140.632 33.7354 140.339 35.8008 140.269C36.1814 140.258 36.5562 140.249 36.9281 140.253L36.9339 140.251C37.6153 140.256 38.2837 140.283 38.9581 140.333L39.5525 140.385C41.0293 140.527 42.4863 140.785 43.9076 141.146L45.3553 141.561C45.3553 141.561 45.3684 141.563 45.3699 141.569C50.2098 143.065 54.5841 145.811 58.0454 149.532L58.4852 150.019C61.4695 153.374 63.7154 157.467 64.9036 162.116Z" fill="#FFCC83"/>
<path d="M55.2604 211.568L54.6799 211.716L51.9179 200.911L52.1376 200.804C66.9988 193.567 74.8093 176.673 70.7091 160.632C67.0917 146.481 54.9536 135.993 40.4536 134.455L39.4657 140.384L36.2451 204.461C37.1691 204.448 40.0277 204.357 43.2566 203.745L43.533 203.693L46.142 213.899L45.5615 214.047L43.0916 204.385C39.2322 205.087 35.9604 205.062 35.9271 205.062L35.6154 205.059L35.6308 204.748L38.872 140.302L39.9549 133.803L40.2335 133.831C55.1063 135.288 67.5868 145.999 71.2895 160.484C75.4397 176.72 67.593 193.816 52.6191 201.235L55.2604 211.568Z" fill="#FFCC83"/>
<path d="M36.9281 140.254C32.0892 143.333 28.2525 146.923 25.4484 150.997C25.3171 151.185 25.1918 151.371 25.0678 151.564C22.9247 154.813 21.434 158.366 20.5957 162.197C19.1544 168.773 19.8419 175.429 21.3198 181.283C21.3733 181.516 21.437 181.741 21.5007 181.966C23.1816 188.3 25.7652 193.643 27.527 196.859C27.249 196.763 26.9637 196.663 26.6901 196.559L26.6843 196.561C24.8854 193.2 22.4241 187.925 20.8211 181.75C20.7632 181.524 20.7054 181.298 20.6533 181.07C19.2074 175.22 18.5754 168.612 20.0067 162.069C20.845 158.238 22.3284 154.681 24.4438 151.42C24.5677 151.228 24.6931 151.041 24.8186 150.855C27.5215 146.868 31.1914 143.327 35.8009 140.27C36.1815 140.259 36.5562 140.25 36.9281 140.254Z" fill="#F2F2F2"/>
<path d="M57.7163 162.321C58.8164 168.971 57.83 175.585 56.0723 181.382C56.0066 181.609 55.9352 181.837 55.8623 182.06C54.1876 187.36 51.8931 191.928 50.0361 195.16C49.7188 195.321 49.4 195.477 49.0724 195.623C50.9386 192.475 53.3893 187.768 55.1732 182.242C55.2461 182.02 55.319 181.797 55.3904 181.569C57.1946 175.759 58.2331 169.108 57.1226 162.418C56.4758 158.509 55.1446 154.849 53.135 151.461C53.028 151.285 52.9195 151.102 52.8052 150.921C50.5999 147.349 47.6263 144.084 43.9076 141.146L45.3553 141.561C45.3553 141.561 45.3684 141.564 45.3699 141.57C48.6999 144.366 51.3893 147.438 53.4248 150.781L53.4306 150.78C53.5376 150.957 53.6461 151.139 53.7487 151.323C55.7425 154.721 57.0651 158.395 57.7163 162.321Z" fill="#F2F2F2"/>
<path d="M39.5525 140.385L38.9438 152.492L38.9151 153.105L37.362 183.864L37.3302 184.466L36.6294 198.364C36.4318 198.365 36.2342 198.366 36.0351 198.361L36.7389 184.45L36.7648 183.85L38.3151 153.104L38.3439 152.49L38.3497 152.489L38.9581 140.333L39.5525 140.385Z" fill="#F2F2F2"/>
<path d="M58.0454 149.532C56.4818 150.018 54.9426 150.43 53.4306 150.78L53.4248 150.781C53.2159 150.835 53.0113 150.881 52.8052 150.921C47.8368 152.043 43.1888 152.483 38.9438 152.492C38.7463 152.493 38.5487 152.494 38.3496 152.49L38.3438 152.491C33.4492 152.45 29.1123 151.834 25.4483 150.996C25.233 150.952 25.0221 150.901 24.8185 150.854C21.499 150.058 18.7685 149.099 16.736 148.258L16.7302 148.26C16.5712 148.412 16.4122 148.564 16.2547 148.722C18.3004 149.59 21.066 150.589 24.4437 151.42C24.6474 151.467 24.8583 151.518 25.0677 151.563C25.2918 151.617 25.5216 151.67 25.7514 151.722C29.1389 152.47 33.3856 153.072 38.3151 153.104C38.5142 153.109 38.7117 153.108 38.9151 153.105C43.2022 153.091 47.9766 152.638 53.135 151.461C53.3411 151.421 53.5457 151.375 53.7488 151.323C54.1333 151.231 54.5236 151.137 54.9182 151.036C56.0905 150.737 57.2785 150.402 58.4852 150.019L58.0454 149.532Z" fill="#F2F2F2"/>
<path d="M64.2759 178.622C64.1916 178.873 64.1057 179.117 64.014 179.363C61.2087 180.457 58.4879 181.351 55.8622 182.059C55.6315 182.124 55.4009 182.189 55.1731 182.241C55.0585 182.277 54.9424 182.307 54.8264 182.336C48.4253 183.972 42.5722 184.56 37.3301 184.465C37.1311 184.461 36.932 184.456 36.7387 184.45C30.844 184.293 25.7379 183.28 21.5005 181.965C21.272 181.893 21.0435 181.822 20.8209 181.749C20.0932 181.514 19.3873 181.268 18.7104 181.015C14.6056 179.492 11.1774 177.642 8.47187 175.91C8.40215 175.637 8.34253 175.356 8.28443 175.08C11.0339 176.887 14.6094 178.854 18.9473 180.466C19.4946 180.672 20.0651 180.872 20.6531 181.068C20.8685 181.137 21.0911 181.21 21.3196 181.281C25.579 182.635 30.758 183.691 36.7646 183.85C36.9652 183.86 37.1642 183.865 37.3618 183.864C42.7405 183.96 48.775 183.333 55.3903 181.568C55.6167 181.51 55.8415 181.446 56.0721 181.381C58.7182 180.655 61.4533 179.746 64.2759 178.622Z" fill="#F2F2F2"/>
<path d="M39.2625 210.402L58.9266 205.376C60.7067 204.92 62.5214 205.996 62.9764 207.776L63.6354 210.354L37.5206 217.03L36.8616 214.452C36.4065 212.672 37.4823 210.857 39.2625 210.402Z" fill="#112E5B"/>
<path d="M71.1798 208.425L29.9763 218.957L30.8664 222.439L72.0698 211.906L71.1798 208.425Z" fill="#F90065"/>
<path d="M65.196 162.04L64.6155 162.188C62.5877 154.255 57.2521 147.544 49.9765 143.775L50.2523 143.243C57.679 147.091 63.126 153.942 65.196 162.04Z" fill="black"/>
<path d="M41.7953 198.226C34.5339 199.499 27.1077 197.996 20.8836 193.995C14.6273 189.974 10.1668 183.788 8.32373 176.578L8.90423 176.43C10.7096 183.493 15.0792 189.552 21.2078 193.492C27.3045 197.41 34.5793 198.882 41.6922 197.636L41.7953 198.226Z" fill="black"/>
<path d="M56.9812 215.764L31.4465 222.291L31.5949 222.872L57.1296 216.344L56.9812 215.764Z" fill="black"/>
</g>
<defs>
<clipPath id="clip0_61458_12186">
<rect width="340.098" height="290.943" fill="white" transform="translate(9.67285 36.6074)"/>
</clipPath>
<clipPath id="clip1_61458_12186">
<rect width="218.755" height="345.02" fill="white" transform="translate(53.6543)"/>
</clipPath>
<clipPath id="clip2_61458_12186">
<rect width="52.7015" height="72.1728" fill="white" transform="translate(274.793 52.3066) rotate(-19.542)"/>
</clipPath>
<clipPath id="clip3_61458_12186">
<rect width="70.0236" height="77.1981" fill="white" transform="translate(328.09 197.502) rotate(35.637)"/>
</clipPath>
<clipPath id="clip4_61458_12186">
<rect width="64.9903" height="84.2244" fill="white" transform="translate(0 144.016) rotate(-14.339)"/>
</clipPath>
</defs>
</svg>
