<svg width="440" height="336" viewBox="0 0 440 336" fill="none" xmlns="http://www.w3.org/2000/svg">
<path d="M212.07 335.389C304.685 335.389 379.764 260.31 379.764 167.695C379.764 75.0795 304.685 0 212.07 0C119.454 0 44.375 75.0795 44.375 167.695C44.375 260.31 119.454 335.389 212.07 335.389Z" fill="#DBE8EC"/>
<path d="M439.167 132.597V114.488C439.167 111.034 437.795 107.723 435.353 105.281C432.911 102.839 429.599 101.467 426.146 101.467H380.187C376.733 101.467 373.422 100.095 370.98 97.6532C368.538 95.2113 367.166 91.8994 367.166 88.4461V70.3363C367.166 66.883 368.538 63.5711 370.98 61.1292C373.422 58.6873 376.733 57.3155 380.187 57.3155H381.638C385.091 57.3155 388.403 55.9436 390.845 53.5018C393.287 51.0599 394.659 47.748 394.659 44.2946V26.1849C394.659 22.7316 393.287 19.4197 390.845 16.9778C388.403 14.5359 385.091 13.1641 381.638 13.1641H67.7187C64.2653 13.1641 60.9534 14.5359 58.5115 16.9778C56.0696 19.4197 54.6978 22.7316 54.6978 26.1849V44.2946C54.6978 47.748 56.0696 51.0599 58.5115 53.5018C60.9534 55.9436 64.2653 57.3155 67.7187 57.3155C71.172 57.3155 74.4839 58.6873 76.9258 61.1292C79.3677 63.5711 80.7395 66.883 80.7395 70.3363V88.4461C80.7395 91.8994 79.3677 95.2113 76.9258 97.6532C74.4839 100.095 71.172 101.467 67.7187 101.467H17.3658C13.9125 101.467 10.6006 102.839 8.15868 105.281C5.7168 107.723 4.34496 111.034 4.34496 114.488V132.597C4.34496 136.051 5.7168 139.363 8.15868 141.805C10.6006 144.246 13.9125 145.618 17.3658 145.618H37.1235C38.8334 145.618 40.5266 145.955 42.1064 146.609C43.6862 147.264 45.1216 148.223 46.3307 149.432C47.5398 150.641 48.4989 152.077 49.1533 153.656C49.8076 155.236 50.1444 156.929 50.1444 158.639V176.749C50.1444 180.202 48.7726 183.514 46.3307 185.956C43.8888 188.398 40.5769 189.77 37.1236 189.77H37.0758C33.6225 189.77 30.3106 191.142 27.8687 193.584C25.4268 196.025 24.055 199.337 24.055 202.791V220.9C24.055 224.354 25.4268 227.666 27.8687 230.107C30.3106 232.549 33.6225 233.921 37.0758 233.921H39.9343C41.6443 233.921 43.3374 234.258 44.9172 234.912C46.497 235.567 47.9324 236.526 49.1415 237.735C50.3506 238.944 51.3097 240.379 51.964 241.959C52.6184 243.539 52.9552 245.232 52.9552 246.942V265.052C52.9552 268.505 51.5833 271.817 49.1414 274.259C46.6995 276.701 43.3876 278.073 39.9343 278.073H13.0209C9.56751 278.073 6.25561 279.445 3.81372 281.886C1.37184 284.328 0 287.64 0 291.094V309.203C1.32608e-05 312.657 1.37185 315.968 3.81374 318.41C6.25562 320.852 9.56752 322.224 13.0209 322.224H388.628C392.082 322.224 395.394 320.852 397.836 318.41C400.277 315.968 401.649 312.657 401.649 309.203V291.094C401.649 287.64 400.277 284.328 397.836 281.886C395.394 279.444 392.082 278.073 388.628 278.073H377.339C373.885 278.073 370.573 276.701 368.132 274.259C365.69 271.817 364.318 268.505 364.318 265.052V246.942C364.318 243.489 365.69 240.177 368.132 237.735C370.573 235.293 373.885 233.921 377.339 233.921H403.959C407.412 233.921 410.724 232.549 413.166 230.107C415.608 227.666 416.98 224.354 416.98 220.9V202.791C416.98 199.337 415.608 196.025 413.166 193.584C410.724 191.142 407.412 189.77 403.959 189.77H395.883C392.43 189.77 389.118 188.398 386.676 185.956C384.234 183.514 382.863 180.202 382.863 176.749V158.639C382.863 155.186 384.234 151.874 386.676 149.432C389.118 146.99 392.43 145.618 395.883 145.618H426.146C429.599 145.618 432.911 144.246 435.353 141.805C437.795 139.363 439.167 136.051 439.167 132.597Z" fill="#CCE9FF"/>
<path d="M269.358 3.85352H301.661" stroke="#3086A3" stroke-width="3" stroke-miterlimit="10" stroke-linecap="round"/>
<path d="M269.358 13.1641H301.661" stroke="#3086A3" stroke-width="3" stroke-miterlimit="10" stroke-linecap="round"/>
<path d="M269.358 22.4746H301.661" stroke="#3086A3" stroke-width="3" stroke-miterlimit="10" stroke-linecap="round"/>
<path d="M18.5959 201.603H50.8988" stroke="#3086A3" stroke-width="3" stroke-miterlimit="10" stroke-linecap="round"/>
<path d="M18.5959 210.913H50.8988" stroke="#3086A3" stroke-width="3" stroke-miterlimit="10" stroke-linecap="round"/>
<path d="M18.5959 220.224H50.8988" stroke="#3086A3" stroke-width="3" stroke-miterlimit="10" stroke-linecap="round"/>
<path d="M379.765 289.33H412.067" stroke="#3086A3" stroke-width="3" stroke-miterlimit="10" stroke-linecap="round"/>
<path d="M379.765 298.641H412.067" stroke="#3086A3" stroke-width="3" stroke-miterlimit="10" stroke-linecap="round"/>
<path d="M379.765 307.951H412.067" stroke="#3086A3" stroke-width="3" stroke-miterlimit="10" stroke-linecap="round"/>
<path d="M388.639 107.114C396.265 107.114 402.447 100.932 402.447 93.3063C402.447 85.6807 396.265 79.499 388.639 79.499C381.014 79.499 374.832 85.6807 374.832 93.3063C374.832 100.932 381.014 107.114 388.639 107.114Z" fill="#B9D4DB"/>
<path d="M367.552 131.806C371.506 131.806 374.712 128.601 374.712 124.647C374.712 120.693 371.506 117.487 367.552 117.487C363.598 117.487 360.393 120.693 360.393 124.647C360.393 128.601 363.598 131.806 367.552 131.806Z" fill="#B9D4DB"/>
<path d="M352.75 89.8703C358.399 89.8703 362.978 85.2912 362.978 79.6427C362.978 73.9941 358.399 69.415 352.75 69.415C347.102 69.415 342.522 73.9941 342.522 79.6427C342.522 85.2912 347.102 89.8703 352.75 89.8703Z" fill="#B9D4DB"/>
<path d="M122.159 297.332C131.232 297.332 138.587 289.976 138.587 280.904C138.587 271.831 131.232 264.476 122.159 264.476C113.086 264.476 105.731 271.831 105.731 280.904C105.731 289.976 113.086 297.332 122.159 297.332Z" fill="#B9D4DB"/>
<path d="M89.6755 297.656C94.4014 297.656 98.2325 293.825 98.2325 289.099C98.2325 284.373 94.4014 280.542 89.6755 280.542C84.9495 280.542 81.1184 284.373 81.1184 289.099C81.1184 293.825 84.9495 297.656 89.6755 297.656Z" fill="#B9D4DB"/>
<path d="M79.6259 265.629C82.3519 265.629 84.5618 263.419 84.5618 260.693C84.5618 257.967 82.3519 255.757 79.6259 255.757C76.8998 255.757 74.6899 257.967 74.6899 260.693C74.6899 263.419 76.8998 265.629 79.6259 265.629Z" fill="#B9D4DB"/>
<path d="M104.1 259.883C110.635 259.883 115.933 254.585 115.933 248.05C115.933 241.515 110.635 236.218 104.1 236.218C97.565 236.218 92.2673 241.515 92.2673 248.05C92.2673 254.585 97.565 259.883 104.1 259.883Z" fill="#B9D4DB"/>
<path d="M127.126 67.647C136.199 67.647 143.554 60.2919 143.554 51.219C143.554 42.1461 136.199 34.791 127.126 34.791C118.053 34.791 110.698 42.1461 110.698 51.219C110.698 60.2919 118.053 67.647 127.126 67.647Z" fill="#B9D4DB"/>
<path d="M127.793 26.2811C132.519 26.2811 136.35 22.45 136.35 17.7241C136.35 12.9981 132.519 9.16699 127.793 9.16699C123.067 9.16699 119.236 12.9981 119.236 17.7241C119.236 22.45 123.067 26.2811 127.793 26.2811Z" fill="#B9D4DB"/>
<path d="M184.787 30.1296C188.878 30.1296 192.194 26.8138 192.194 22.7235C192.194 18.6332 188.878 15.3174 184.787 15.3174C180.697 15.3174 177.381 18.6332 177.381 22.7235C177.381 26.8138 180.697 30.1296 184.787 30.1296Z" fill="#B9D4DB"/>
<path d="M157.844 20.4627C160.57 20.4627 162.78 18.2528 162.78 15.5267C162.78 12.8007 160.57 10.5908 157.844 10.5908C155.118 10.5908 152.908 12.8007 152.908 15.5267C152.908 18.2528 155.118 20.4627 157.844 20.4627Z" fill="#B9D4DB"/>
<path d="M163.58 54.3019C170.115 54.3019 175.412 49.0043 175.412 42.4693C175.412 35.9344 170.115 30.6367 163.58 30.6367C157.045 30.6367 151.747 35.9344 151.747 42.4693C151.747 49.0043 157.045 54.3019 163.58 54.3019Z" fill="#B9D4DB"/>
<path d="M220.507 275.694C280.154 275.694 328.507 227.341 328.507 167.694C328.507 108.048 280.154 59.6943 220.507 59.6943C160.861 59.6943 112.507 108.048 112.507 167.694C112.507 227.341 160.861 275.694 220.507 275.694Z" fill="#004085"/>
<path d="M224.587 85.1344C222.637 88.4844 219.157 94.4444 212.587 96.6544C206.747 98.6144 202.947 96.0944 193.867 97.1344C188.377 97.7644 184.927 98.1544 181.387 100.494C176.247 103.894 176.557 107.624 172.747 111.534C164.527 119.974 149.117 116.994 148.267 116.814C141.71 115.334 135.759 111.891 131.207 106.944C141.103 92.3765 154.416 80.4535 169.983 72.217C185.549 63.9805 202.896 59.6811 220.507 59.6944C223.207 59.6944 225.898 59.7944 228.547 59.9844C229.607 66.5744 229.777 76.2444 224.587 85.1344Z" fill="#F6C648"/>
<path d="M191.467 126.894C199.007 117.573 206.767 107.979 216.427 109.134C224.044 110.045 231.13 117.433 232.747 124.974C234.767 134.391 227.113 138.716 229.868 147.534C231.741 153.53 235.636 152.669 241.388 161.454C244.105 165.604 248.693 172.611 248.108 181.614C247.974 183.673 246.883 196.389 236.108 201.774C229.026 205.313 220.159 204.489 214.507 200.334C207.98 195.535 210.076 189.477 203.947 186.414C198.359 183.621 195.106 187.901 185.707 185.934C182.243 185.209 175.848 183.87 172.747 179.214C168.488 172.817 172.623 163.428 178.987 148.974C182.573 140.832 185.416 134.376 191.467 126.894Z" fill="#F6C648"/>
<path d="M328.507 167.695C328.511 176.816 327.366 185.901 325.097 194.735C315.167 197.075 303.467 196.675 294.187 190.735C291.447 188.985 284.447 184.505 282.667 176.815C281.327 171.015 284.247 168.995 284.587 158.575C284.737 153.845 284.937 147.745 282.187 141.295C278.977 133.765 275.077 133.595 272.587 127.855C268.867 119.285 272.647 108.425 276.907 102.415C281.447 96.0148 288.497 92.3748 296.207 90.6748C306.452 100.712 314.587 112.697 320.134 125.923C325.681 139.15 328.528 153.352 328.507 167.695Z" fill="#F6C648"/>
<path d="M254.347 226.735C252.027 222.905 252.676 216.489 255.787 214.255C258.643 212.204 261.94 214.85 265.867 212.335C268.747 210.491 268.135 208.325 270.667 207.055C274.162 205.302 279.922 207.118 282.667 210.895C286.202 215.758 284.03 222.899 280.747 226.735C274.089 234.514 258.571 233.705 254.347 226.735Z" fill="#F6C648"/>
<path d="M222.367 275.665C221.747 275.685 221.127 275.695 220.507 275.695C203.164 275.707 186.073 271.537 170.684 263.538C155.296 255.539 142.063 243.947 132.107 229.745C133.581 225.79 135.809 222.16 138.667 219.055C139.547 218.105 150.547 206.635 163.627 209.455C168.164 210.563 172.312 212.886 175.627 216.175C179.847 220.475 178.847 222.885 182.347 225.775C186.938 229.565 190.887 227.255 200.587 229.135C206.067 230.195 213.777 231.695 218.827 237.295C224.007 243.035 224.057 250.495 224.107 257.935C224.137 261.525 224.188 268.955 222.367 275.665Z" fill="#F6C648"/>
<path d="M325.088 141.736L331.053 142.401C331.08 142.404 331.105 142.418 331.121 142.439C331.138 142.46 331.146 142.487 331.143 142.514C331.14 142.541 331.126 142.565 331.105 142.582C331.084 142.599 331.058 142.607 331.031 142.604L331.026 142.603L325.088 141.736Z" fill="#25788E"/>
<path d="M342.727 143.9L354.356 145.753C354.416 145.762 354.473 145.782 354.524 145.813C354.576 145.844 354.621 145.885 354.656 145.933C354.692 145.982 354.718 146.037 354.732 146.095C354.746 146.154 354.748 146.214 354.739 146.274C354.729 146.333 354.708 146.39 354.677 146.441C354.645 146.492 354.604 146.537 354.555 146.572C354.506 146.606 354.45 146.631 354.392 146.645C354.333 146.658 354.273 146.66 354.213 146.65L354.204 146.648L354.188 146.645L342.633 144.497L342.625 144.496C342.546 144.481 342.477 144.437 342.432 144.371C342.386 144.306 342.368 144.226 342.382 144.147C342.395 144.069 342.439 143.999 342.504 143.953C342.569 143.907 342.649 143.888 342.727 143.9Z" fill="#25788E"/>
<path d="M365.926 147.993L377.401 150.755C377.497 150.778 377.588 150.819 377.668 150.878C377.747 150.936 377.815 151.009 377.867 151.093C377.918 151.177 377.953 151.271 377.968 151.369C377.983 151.466 377.979 151.566 377.956 151.662C377.933 151.758 377.891 151.848 377.833 151.928C377.775 152.008 377.702 152.076 377.618 152.127C377.534 152.179 377.44 152.213 377.342 152.229C377.245 152.244 377.145 152.24 377.049 152.217L377.034 152.213L376.989 152.201L365.658 149.169L365.629 149.161C365.476 149.121 365.345 149.021 365.265 148.884C365.185 148.747 365.162 148.584 365.201 148.431C365.24 148.277 365.338 148.145 365.474 148.063C365.609 147.981 365.772 147.956 365.926 147.993Z" fill="#25788E"/>
<path d="M388.691 154.302C392.455 155.625 396.08 157.313 399.516 159.341C399.632 159.411 399.732 159.504 399.812 159.614C399.891 159.723 399.948 159.847 399.98 159.979C400.012 160.111 400.017 160.247 399.996 160.381C399.974 160.515 399.927 160.643 399.856 160.758C399.786 160.874 399.693 160.974 399.583 161.053C399.474 161.133 399.35 161.19 399.218 161.222C399.086 161.253 398.95 161.259 398.816 161.237C398.682 161.216 398.554 161.169 398.439 161.098L398.433 161.095L398.422 161.088C395.125 159.077 391.653 157.369 388.048 155.985C387.827 155.898 387.649 155.728 387.553 155.51C387.457 155.293 387.451 155.047 387.535 154.825C387.62 154.603 387.789 154.423 388.006 154.325C388.222 154.227 388.469 154.219 388.691 154.302Z" fill="#25788E"/>
<path d="M407.358 168.871C407.462 170.025 407.303 171.187 406.892 172.27C406.489 173.297 405.929 174.255 405.233 175.111C403.894 176.707 402.328 178.098 400.585 179.24C400.454 179.331 400.307 179.395 400.151 179.428C399.995 179.462 399.834 179.464 399.678 179.436C399.521 179.407 399.371 179.348 399.238 179.261C399.104 179.175 398.988 179.063 398.898 178.932C398.807 178.801 398.743 178.653 398.71 178.498C398.676 178.342 398.674 178.181 398.702 178.024C398.731 177.868 398.79 177.718 398.877 177.584C398.963 177.45 399.075 177.335 399.206 177.244L399.218 177.236L399.236 177.224C400.795 176.24 402.203 175.034 403.417 173.644C404.564 172.407 405.178 170.767 405.124 169.08L405.123 169.073C405.097 168.777 405.19 168.483 405.381 168.255C405.571 168.028 405.844 167.885 406.14 167.858C406.436 167.831 406.73 167.923 406.958 168.113C407.187 168.303 407.33 168.576 407.358 168.871Z" fill="#25788E"/>
<path d="M389.885 184.689C386.195 186.169 382.437 187.424 378.652 188.558C378.297 188.663 377.916 188.623 377.591 188.447C377.266 188.272 377.024 187.974 376.918 187.62C376.812 187.266 376.851 186.885 377.026 186.559C377.201 186.234 377.497 185.991 377.851 185.884L377.873 185.878C381.615 184.821 385.32 183.646 388.93 182.262C389.251 182.138 389.608 182.146 389.924 182.285C390.239 182.424 390.487 182.681 390.613 183.002C390.739 183.322 390.733 183.679 390.596 183.996C390.46 184.312 390.204 184.561 389.885 184.689Z" fill="#25788E"/>
<path d="M367.213 191.614L355.667 194.14C355.259 194.228 354.833 194.15 354.482 193.924C354.131 193.698 353.884 193.342 353.795 192.935C353.706 192.527 353.782 192.101 354.006 191.749C354.23 191.397 354.585 191.149 354.992 191.058L355.008 191.055L355.072 191.042L366.542 188.718L366.6 188.706C366.985 188.629 367.384 188.706 367.711 188.921C368.039 189.137 368.268 189.473 368.349 189.856C368.43 190.24 368.356 190.64 368.143 190.969C367.93 191.298 367.596 191.53 367.213 191.614Z" fill="#25788E"/>
<path d="M344.054 196.277L332.39 198.073C332.166 198.108 331.937 198.098 331.717 198.045C331.496 197.991 331.289 197.894 331.106 197.761C330.923 197.627 330.768 197.458 330.651 197.264C330.533 197.071 330.454 196.855 330.42 196.631C330.385 196.407 330.396 196.179 330.449 195.959C330.503 195.738 330.6 195.531 330.734 195.348C330.869 195.165 331.038 195.011 331.232 194.894C331.425 194.776 331.641 194.698 331.865 194.664L331.881 194.662L331.92 194.656L343.522 192.983L343.562 192.977C343.999 192.914 344.443 193.027 344.796 193.29C345.15 193.553 345.385 193.946 345.451 194.382C345.516 194.819 345.405 195.263 345.143 195.618C344.882 195.973 344.49 196.21 344.054 196.277Z" fill="#25788E"/>
<path d="M320.695 199.603L308.974 200.913C308.496 200.965 308.017 200.825 307.641 200.524C307.266 200.223 307.025 199.785 306.972 199.307C306.919 198.829 307.057 198.349 307.356 197.973C307.656 197.596 308.093 197.354 308.571 197.299L308.585 197.297L308.616 197.294L320.283 196.084L320.315 196.081C320.781 196.032 321.247 196.171 321.612 196.465C321.976 196.76 322.209 197.187 322.259 197.653C322.309 198.119 322.173 198.585 321.88 198.951C321.586 199.316 321.16 199.551 320.695 199.603Z" fill="#25788E"/>
<path d="M297.236 202.027L285.486 202.962C285.235 202.982 284.983 202.953 284.744 202.876C284.504 202.799 284.282 202.675 284.091 202.512C283.899 202.349 283.742 202.15 283.628 201.927C283.513 201.703 283.444 201.458 283.424 201.208C283.404 200.957 283.434 200.705 283.511 200.466C283.589 200.227 283.713 200.005 283.876 199.814C284.04 199.623 284.239 199.466 284.463 199.352C284.687 199.238 284.932 199.169 285.182 199.15L285.197 199.149L285.225 199.147L296.927 198.309L296.955 198.307C297.447 198.272 297.932 198.434 298.306 198.756C298.679 199.078 298.91 199.535 298.947 200.027C298.984 200.519 298.825 201.005 298.504 201.38C298.183 201.755 297.727 201.987 297.236 202.027Z" fill="#25788E"/>
<path d="M273.721 203.702L261.948 204.285C261.693 204.299 261.437 204.262 261.196 204.177C260.954 204.091 260.732 203.959 260.542 203.788C260.352 203.616 260.198 203.409 260.088 203.178C259.978 202.946 259.915 202.696 259.902 202.44C259.89 202.184 259.928 201.929 260.014 201.688C260.1 201.447 260.233 201.225 260.406 201.036C260.578 200.846 260.786 200.693 261.018 200.584C261.249 200.475 261.5 200.413 261.756 200.401L261.761 200.401L261.786 200.4L273.51 199.85L273.535 199.849C274.046 199.824 274.546 200.004 274.925 200.347C275.304 200.691 275.53 201.172 275.555 201.683C275.579 202.194 275.4 202.693 275.056 203.072C274.712 203.451 274.232 203.677 273.721 203.702Z" fill="#25788E"/>
<path d="M250.169 204.721L238.388 205.014C238.129 205.02 237.871 204.976 237.629 204.883C237.386 204.789 237.165 204.649 236.977 204.471C236.789 204.292 236.638 204.078 236.533 203.84C236.427 203.603 236.37 203.348 236.363 203.088C236.357 202.829 236.402 202.571 236.495 202.328C236.588 202.086 236.729 201.865 236.908 201.677C237.086 201.489 237.301 201.338 237.538 201.233C237.775 201.128 238.031 201.07 238.29 201.064L238.296 201.064L238.319 201.063L250.054 200.803L250.077 200.802C250.597 200.79 251.1 200.985 251.476 201.344C251.852 201.702 252.07 202.196 252.083 202.716C252.095 203.235 251.9 203.738 251.541 204.115C251.183 204.491 250.689 204.709 250.169 204.721Z" fill="#25788E"/>
<path d="M226.604 205.167C222.675 205.192 218.746 205.194 214.818 205.172C214.291 205.168 213.787 204.955 213.416 204.581C213.045 204.206 212.838 203.699 212.84 203.172C212.842 202.645 213.052 202.14 213.425 201.768C213.799 201.395 214.304 201.186 214.831 201.186H226.591C227.118 201.186 227.622 201.395 227.995 201.767C228.368 202.139 228.578 202.644 228.579 203.17C228.581 203.697 228.374 204.202 228.004 204.577C227.634 204.951 227.13 205.163 226.604 205.167Z" fill="#25788E"/>
<path d="M203.033 205.023L191.249 204.735C190.991 204.729 190.738 204.672 190.502 204.567C190.267 204.463 190.054 204.313 189.876 204.127C189.517 203.75 189.323 203.246 189.336 202.726C189.342 202.468 189.399 202.214 189.503 201.979C189.608 201.743 189.757 201.53 189.944 201.353C190.321 200.994 190.825 200.799 191.345 200.812L191.363 200.812L203.101 201.068L203.124 201.069C203.648 201.081 204.146 201.3 204.509 201.679C204.871 202.058 205.068 202.565 205.057 203.089C205.045 203.613 204.826 204.111 204.448 204.474C204.069 204.837 203.562 205.034 203.038 205.023L203.033 205.023Z" fill="#25788E"/>
<path d="M179.469 204.304L167.695 203.725C167.183 203.7 166.703 203.473 166.359 203.094C166.015 202.714 165.836 202.214 165.861 201.702C165.886 201.191 166.113 200.71 166.493 200.366C166.872 200.022 167.373 199.843 167.884 199.869L167.904 199.87L179.63 200.414L179.655 200.415C180.17 200.44 180.655 200.668 181.002 201.05C181.349 201.431 181.531 201.935 181.507 202.45C181.483 202.965 181.256 203.45 180.874 203.798C180.493 204.145 179.99 204.328 179.474 204.304L179.469 204.304Z" fill="#25788E"/>
<path d="M155.927 202.992L144.171 202.064C143.677 202.027 143.218 201.794 142.895 201.419C142.572 201.043 142.411 200.554 142.448 200.06C142.485 199.565 142.717 199.106 143.092 198.783C143.468 198.459 143.956 198.298 144.451 198.334L144.479 198.336L156.187 199.17L156.214 199.172C156.721 199.208 157.192 199.444 157.525 199.828C157.858 200.212 158.024 200.712 157.988 201.219C157.952 201.725 157.716 202.197 157.333 202.53C156.949 202.862 156.449 203.029 155.942 202.993L155.927 202.992Z" fill="#25788E"/>
<path d="M132.428 200.956L120.702 199.652C120.236 199.6 119.808 199.366 119.514 198.999C119.22 198.633 119.083 198.165 119.133 197.698C119.183 197.232 119.416 196.803 119.781 196.508C120.146 196.212 120.613 196.073 121.08 196.121L121.113 196.124L132.786 197.327L132.817 197.331C133.298 197.38 133.739 197.619 134.044 197.994C134.35 198.369 134.493 198.85 134.443 199.331C134.394 199.812 134.155 200.254 133.78 200.559C133.405 200.864 132.924 201.007 132.443 200.958L132.428 200.956Z" fill="#25788E"/>
<path d="M109.003 198.129L97.3355 196.345C96.8973 196.278 96.5034 196.041 96.2401 195.684C95.9767 195.327 95.8653 194.881 95.9302 194.443C95.9951 194.004 96.231 193.609 96.5864 193.344C96.9418 193.079 97.3877 192.966 97.8264 193.029L97.8678 193.035L109.471 194.703L109.511 194.708C109.962 194.777 110.368 195.02 110.64 195.387C110.912 195.753 111.028 196.212 110.963 196.664C110.898 197.115 110.657 197.523 110.293 197.798C109.929 198.073 109.471 198.192 109.019 198.131L109.003 198.129Z" fill="#25788E"/>
<path d="M85.7178 194.218L74.1657 191.705C73.7811 191.621 73.4451 191.389 73.2309 191.058C73.0168 190.728 72.9418 190.327 73.0223 189.941C73.1028 189.556 73.3323 189.218 73.6608 189.001C73.9893 188.784 74.3902 188.706 74.7762 188.783L74.8359 188.795L86.3115 191.105L86.3673 191.116C86.5716 191.157 86.7657 191.238 86.9387 191.354C87.1117 191.469 87.2601 191.618 87.3755 191.792C87.491 191.965 87.5711 192.159 87.6113 192.364C87.6515 192.568 87.651 192.778 87.61 192.983C87.5689 193.187 87.4879 193.381 87.3718 193.554C87.2556 193.727 87.1065 193.875 86.9331 193.99C86.7596 194.105 86.5651 194.185 86.3607 194.225C86.1563 194.265 85.946 194.264 85.7419 194.223L85.7178 194.218Z" fill="#25788E"/>
<path d="M62.7182 188.667C58.9281 187.541 55.1649 186.295 51.4682 184.828C51.1468 184.7 50.8889 184.451 50.7507 184.134C50.6125 183.817 50.6053 183.458 50.7307 183.136C50.856 182.813 51.1037 182.554 51.4198 182.413C51.7358 182.273 52.0945 182.263 52.4176 182.387C56.0365 183.758 59.7477 184.924 63.4943 185.974C63.8523 186.074 64.156 186.312 64.3384 186.636C64.5209 186.959 64.5673 187.343 64.4674 187.701C64.3675 188.059 64.1294 188.362 63.8056 188.545C63.4818 188.727 63.0988 188.774 62.7408 188.674L62.7182 188.667Z" fill="#25788E"/>
<path d="M40.7327 179.447C38.985 178.325 37.4001 176.968 36.0231 175.414C35.3062 174.584 34.7173 173.651 34.2759 172.647C33.8105 171.591 33.5882 170.444 33.6256 169.29C33.6384 168.993 33.7681 168.713 33.9863 168.511C34.2046 168.309 34.4938 168.202 34.7908 168.213C35.0878 168.223 35.3687 168.351 35.5721 168.567C35.7755 168.784 35.885 169.072 35.8767 169.37C35.9318 171.064 36.6196 172.677 37.8046 173.89C39.0581 175.251 40.4917 176.435 42.0658 177.408L42.0806 177.418C42.3512 177.594 42.5406 177.871 42.6072 178.187C42.6737 178.503 42.612 178.833 42.4356 179.103C42.2591 179.374 41.9824 179.563 41.6662 179.63C41.3501 179.697 41.0205 179.635 40.7499 179.458L40.7327 179.447Z" fill="#25788E"/>
<path d="M41.1832 159.535C44.6004 157.475 48.2166 155.764 51.9769 154.429C52.2 154.345 52.4472 154.353 52.6648 154.45C52.8825 154.547 53.0531 154.726 53.1398 154.948C53.2266 155.17 53.2224 155.417 53.1282 155.636C53.0341 155.855 52.8575 156.028 52.6367 156.118L52.6307 156.12C49.0339 157.514 45.5752 159.24 42.2997 161.278L42.2926 161.282C42.0619 161.431 41.7816 161.481 41.5134 161.423C41.2452 161.365 41.0111 161.203 40.8626 160.972C40.7141 160.741 40.6634 160.461 40.7215 160.193C40.7796 159.925 40.9419 159.691 41.1727 159.542L41.1832 159.535Z" fill="#25788E"/>
<path d="M63.2548 150.852L74.7199 148.074C74.8747 148.036 75.0379 148.061 75.1744 148.143C75.3108 148.225 75.4095 148.358 75.4491 148.512C75.4887 148.666 75.466 148.83 75.3859 148.967C75.3058 149.105 75.1748 149.206 75.0212 149.247L74.9907 149.256L63.672 152.306L63.6298 152.318C63.4363 152.369 63.2303 152.342 63.0569 152.242C62.8835 152.142 62.7569 151.977 62.7048 151.783C62.6527 151.59 62.6793 151.384 62.7789 151.21C62.8785 151.037 63.0429 150.909 63.2361 150.857L63.2548 150.852Z" fill="#25788E"/>
<path d="M86.286 145.821L97.9122 143.958C97.9515 143.951 97.9918 143.952 98.0307 143.96C98.0697 143.969 98.1066 143.986 98.1392 144.008C98.1719 144.031 98.1997 144.061 98.2211 144.094C98.2424 144.128 98.257 144.166 98.2638 144.205C98.2707 144.244 98.2697 144.285 98.261 144.324C98.2523 144.363 98.236 144.399 98.213 144.432C98.1901 144.465 98.1609 144.492 98.1272 144.514C98.0934 144.535 98.0559 144.55 98.0165 144.557L98.0077 144.558L86.4557 146.717L86.4421 146.72C86.3831 146.731 86.3226 146.73 86.264 146.718C86.2054 146.705 86.1497 146.682 86.1003 146.648C86.0508 146.614 86.0086 146.571 85.9759 146.52C85.9431 146.47 85.9206 146.414 85.9096 146.355C85.8986 146.296 85.8993 146.236 85.9117 146.177C85.9241 146.118 85.9479 146.063 85.9817 146.013C86.0156 145.964 86.0589 145.922 86.1091 145.889C86.1593 145.856 86.2155 145.834 86.2744 145.823L86.286 145.821Z" fill="#25788E"/>
<path d="M109.615 142.447L115.58 141.779L109.642 142.651C109.629 142.653 109.615 142.652 109.602 142.649C109.589 142.646 109.576 142.641 109.565 142.633C109.554 142.625 109.545 142.615 109.538 142.603C109.531 142.592 109.526 142.579 109.524 142.565C109.522 142.552 109.522 142.538 109.526 142.525C109.529 142.512 109.535 142.499 109.543 142.488C109.551 142.478 109.561 142.468 109.572 142.461C109.584 142.454 109.597 142.45 109.61 142.448L109.615 142.447Z" fill="#25788E"/>
<path d="M393.043 183.808L366.502 191.582L314.055 206.944L293.863 224.429C293.62 224.639 293.314 224.762 292.993 224.776C292.673 224.79 292.357 224.696 292.096 224.508L292.041 224.464C291.799 224.272 291.627 224.006 291.549 223.707C291.472 223.408 291.494 223.091 291.612 222.806L301.178 202.17L304.603 194.78L392.465 181.024C392.82 180.981 393.179 181.072 393.47 181.281C393.761 181.489 393.963 181.8 394.035 182.15C394.108 182.501 394.047 182.866 393.863 183.173C393.679 183.48 393.386 183.707 393.043 183.808Z" fill="#E59413"/>
<path d="M393.771 183.311L393.757 183.329C393.525 183.62 393.187 183.809 392.817 183.854L375.36 186.016L304.598 194.786L287.596 168.347C287.449 168.117 287.371 167.849 287.371 167.576C287.371 167.302 287.449 167.035 287.597 166.805C287.745 166.574 287.955 166.391 288.204 166.277C288.452 166.164 288.729 166.123 288.999 166.162L392.81 181.022L392.853 181.026L392.932 181.041L393.014 181.06L393.087 181.082L393.175 181.113L393.248 181.145L393.257 181.152L393.326 181.187L393.4 181.229C393.447 181.258 393.491 181.29 393.536 181.324C393.593 181.37 393.646 181.42 393.696 181.474C393.719 181.498 393.741 181.524 393.761 181.551C393.784 181.578 393.806 181.607 393.826 181.637L393.887 181.734C393.9 181.754 393.911 181.775 393.92 181.797C393.926 181.804 393.93 181.812 393.932 181.821L393.963 181.886L393.973 181.895L393.997 181.956C394.016 182.01 394.032 182.064 394.044 182.12C394.051 182.146 394.057 182.172 394.06 182.198C394.074 182.283 394.079 182.369 394.077 182.455C394.077 182.495 394.074 182.535 394.07 182.575C394.067 182.61 394.061 182.645 394.055 182.679C394.05 182.714 394.038 182.767 394.028 182.812C394.017 182.85 394.005 182.887 393.991 182.924C393.976 182.97 393.957 183.015 393.936 183.058C393.921 183.084 393.907 183.11 393.894 183.137C393.857 183.198 393.816 183.256 393.771 183.311Z" fill="#F9AE2B"/>
<mask id="mask0_61433_14614" style="mask-type:luminance" maskUnits="userSpaceOnUse" x="261" y="123" width="135" height="136">
<path d="M321.709 123.797L261.099 199.789L335.306 258.975L395.916 182.984L321.709 123.797Z" fill="white"/>
</mask>
<g mask="url(#mask0_61433_14614)">
<path d="M342.434 249.926C342.319 250.076 342.174 250.201 342.01 250.295C341.845 250.389 341.664 250.449 341.476 250.471C341.288 250.494 341.097 250.479 340.915 250.427C340.733 250.375 340.563 250.287 340.415 250.169C340.294 250.072 340.19 249.957 340.105 249.828L311.192 204.893L375.36 186.018L392.241 181.072C392.432 181.015 392.633 180.999 392.831 181.024C392.861 181.029 392.892 181.034 392.922 181.041L393.004 181.061L393.078 181.082L393.166 181.114L393.239 181.145L393.248 181.152L393.317 181.188L393.391 181.23C393.437 181.259 393.482 181.291 393.525 181.325C393.583 181.371 393.636 181.421 393.686 181.475C393.709 181.499 393.731 181.525 393.751 181.552C393.775 181.579 393.797 181.608 393.817 181.638L393.878 181.735C393.89 181.755 393.902 181.776 393.911 181.798C393.916 181.805 393.92 181.813 393.922 181.822L393.953 181.888L393.964 181.896L393.988 181.957C394.007 182.011 394.023 182.065 394.035 182.121C394.042 182.147 394.047 182.173 394.051 182.199C394.064 182.284 394.07 182.37 394.067 182.456C394.067 182.496 394.065 182.536 394.06 182.577C394.058 182.611 394.052 182.645 394.046 182.68C394.041 182.714 394.029 182.768 394.018 182.813C394.008 182.851 393.996 182.889 393.982 182.925C393.966 182.971 393.948 183.015 393.927 183.058C393.911 183.084 393.898 183.11 393.886 183.138C393.851 183.199 393.813 183.258 393.77 183.314L393.757 183.33L342.434 249.926Z" fill="#F6C648"/>
<path d="M319.796 218.264L293.268 224.739C293.057 224.791 292.836 224.793 292.624 224.746C292.411 224.699 292.212 224.604 292.041 224.469C291.884 224.344 291.756 224.187 291.665 224.008C291.517 223.724 291.47 223.398 291.53 223.084C291.59 222.769 291.755 222.484 291.997 222.275L311.194 204.895L319.796 218.264Z" fill="#F6C648"/>
</g>
<path d="M311.192 204.892L319.796 218.263L315.935 219.205L309.076 206.807L311.192 204.892Z" fill="#CE800D"/>
</svg>
