<svg width="75" height="75" viewBox="0 0 75 75" fill="none" xmlns="http://www.w3.org/2000/svg">
<path d="M37.6837 0.705078C34.8069 0.705078 32.4499 3.06695 32.445 5.94378H42.9323C42.9323 3.06695 40.5655 0.705078 37.6837 0.705078ZM19.3136 8.57303C18.6245 8.58214 17.9666 8.86196 17.482 9.35206C16.9975 9.84216 16.7252 10.5032 16.7239 11.1924V21.6648C16.7239 23.076 17.8875 24.2891 19.3136 24.2891H66.4966C66.8432 24.2891 67.1749 24.1554 67.4225 23.9079L73.9684 17.3521C74.2118 17.1064 74.3484 16.7745 74.3484 16.4286C74.3484 16.0827 74.2118 15.7509 73.9684 15.5052L67.4225 8.94935C67.1756 8.70667 66.8428 8.57141 66.4966 8.57303H19.3136ZM23.2797 15.1189H48.1661C49.9486 15.0793 49.9486 17.7779 48.1661 17.7432H23.2797C21.5764 17.7036 21.5764 15.1585 23.2797 15.1189ZM53.4048 15.1189H58.6336C60.4161 15.0793 60.4161 17.7779 58.6336 17.7432H53.4048C51.6965 17.7036 51.6965 15.1585 53.4048 15.1189ZM33.7324 26.8887C33.5601 26.8919 33.3901 26.929 33.2321 26.998C33.0741 27.0669 32.9313 27.1663 32.8117 27.2904C32.6922 27.4146 32.5983 27.5611 32.5353 27.7215C32.4724 27.882 32.4417 28.0533 32.445 28.2256V30.8449C32.445 31.5926 33.0788 32.1918 33.8265 32.1472H41.5261C42.2837 32.2017 42.9274 31.6025 42.9274 30.8449V28.2206C42.9307 28.0442 42.8984 27.8688 42.8324 27.7051C42.7664 27.5414 42.6681 27.3926 42.5433 27.2678C42.4184 27.143 42.2697 27.0446 42.106 26.9786C41.9423 26.9127 41.7669 26.8804 41.5904 26.8837C38.976 26.9085 36.3567 26.9085 33.7324 26.8837V26.8887ZM8.71734 34.7764C8.41791 34.8073 8.13325 34.9402 7.92015 35.1528L1.36434 41.7086C1.12093 41.9543 0.984375 42.2862 0.984375 42.632C0.984375 42.9779 1.12093 43.3098 1.36434 43.5555L7.92015 50.1162C8.16772 50.3589 8.49947 50.4926 8.84608 50.4876H56.0142C56.7033 50.4785 57.3612 50.1987 57.8458 49.7086C58.3303 49.2185 58.6026 48.5574 58.6038 47.8683V37.3958C58.6026 36.7066 58.3303 36.0456 57.8458 35.5555C57.3612 35.0654 56.7033 34.7855 56.0142 34.7764H8.71734ZM22.0963 41.3174H22.1112C23.9135 41.357 23.765 44.0902 21.9626 43.9318H16.7289C15.1147 43.8872 14.9959 41.5204 16.6051 41.3223C16.6463 41.3204 16.6877 41.3204 16.7289 41.3223H21.9725C22.0153 41.3185 22.0534 41.3169 22.0963 41.3174ZM52.2213 41.3174H52.2362C54.0386 41.357 53.89 44.0902 52.0877 43.9318H27.2112C25.5921 43.8872 25.4782 41.5204 27.0825 41.3223C27.1254 41.3203 27.1684 41.3203 27.2112 41.3223H52.0976L52.2213 41.3174ZM33.7324 53.0921C33.387 53.0986 33.0581 53.2411 32.817 53.4886C32.576 53.7361 32.4423 54.0687 32.445 54.4142V71.4474H19.3532C17.6449 71.487 17.6449 74.0271 19.3532 74.0667H44.2346C45.9428 74.0271 45.9428 71.482 44.2346 71.4424H42.9323V54.4142C42.9317 54.2393 42.8962 54.0663 42.8278 53.9054C42.7594 53.7445 42.6595 53.5989 42.534 53.4771C42.4086 53.3553 42.26 53.2598 42.0971 53.1963C41.9342 53.1327 41.7603 53.1023 41.5855 53.107C38.976 53.0921 36.322 53.1317 33.7324 53.0921ZM49.4782 71.4474C47.765 71.487 47.765 74.0271 49.4782 74.0667H54.707C56.4153 74.0271 56.4153 71.482 54.707 71.4424L49.4782 71.4474Z" fill="#004085"/>
</svg>
