<svg width="265" height="36" viewBox="0 0 265 36" fill="none" xmlns="http://www.w3.org/2000/svg">
<circle cx="16" cy="16" r="16" transform="matrix(-1 0 0 1 49.9988 2)" stroke="url(#paint0_linear_61424_12100)" stroke-width="2.56"/>
<circle cx="16" cy="16" r="16" transform="matrix(-1 0 0 1 33.9988 2)" stroke="url(#paint1_linear_61424_12100)" stroke-width="2.56"/>
<path d="M20.8738 18.4663V17.5354H23.6665V18.4663H20.8738ZM24.0156 16.6743L23.0381 15.6969L23.6898 15.0452L24.6672 16.0227L24.0156 16.6743ZM25.5283 15.6736V12.8809H26.4592V15.6736H25.5283ZM27.972 16.6743L27.3203 16.0227L28.2978 15.0452L28.9494 15.6969L27.972 16.6743ZM28.3211 18.4663V17.5354H31.1138V18.4663H28.3211ZM25.9938 19.3972C25.6059 19.3972 25.2762 19.2615 25.0047 18.99C24.7332 18.7184 24.5974 18.3887 24.5974 18.0009C24.5974 17.613 24.7332 17.2833 25.0047 17.0118C25.2762 16.7403 25.6059 16.6045 25.9938 16.6045C26.3817 16.6045 26.7114 16.7403 26.9829 17.0118C27.2544 17.2833 27.3901 17.613 27.3901 18.0009C27.3901 18.3887 27.2544 18.7184 26.9829 18.99C26.7114 19.2615 26.3817 19.3972 25.9938 19.3972ZM28.2978 20.9565L27.3203 19.979L27.972 19.3274L28.9494 20.3049L28.2978 20.9565ZM23.6898 20.9565L23.0381 20.3049L24.0156 19.3274L24.6672 19.979L23.6898 20.9565ZM25.5283 23.1209V20.3281H26.4592V23.1209H25.5283Z" fill="#F6C648"/>
<path d="M72.8138 29.6363L63.6942 6.18308C63.6063 5.93897 63.1864 5.93897 63.0986 6.18308L54.0082 29.6363C53.9204 29.8218 54.0375 29.9976 54.3109 29.9976H58.4216C58.5388 29.9976 58.6852 29.939 58.7145 29.8218L63.4012 16.4353L68.1368 29.8218C68.1661 29.939 68.3126 29.9976 68.4102 29.9976H72.5501C72.7552 29.9976 72.9016 29.8218 72.8138 29.6363Z" fill="white"/>
<path d="M90.0379 25.532H77.0811V29.7305C77.0811 29.8574 77.2275 30.0039 77.413 30.0039H90.0379C90.2527 30.0039 90.3699 29.8574 90.3699 29.7305V25.8347C90.3699 25.6882 90.2527 25.532 90.0379 25.532ZM81.6702 20.9429V6.2773C81.6702 6.16013 81.553 6.00391 81.3675 6.00391H77.413C77.2275 6.00391 77.0811 6.16013 77.0811 6.2773V20.9429H81.6702Z" fill="white"/>
<path d="M104.136 25.8932H101.744V6.00391H97.1548V25.8932H94.6943C94.5088 25.8932 94.3623 26.0104 94.3623 26.1666V29.7305C94.3623 29.8574 94.5088 30.0039 94.6943 30.0039H104.136C104.351 30.0039 104.468 29.8574 104.468 29.7305V26.1666C104.468 26.0104 104.351 25.8932 104.136 25.8932Z" fill="white"/>
<path d="M126.582 10.4153V6.27535C126.582 6.15818 126.465 6.00195 126.25 6.00195H122.354C116.379 6.00195 108.284 7.74972 108.284 18.002C108.284 28.6545 116.476 30.002 122.354 30.002H126.25C126.465 30.002 126.582 29.8555 126.582 29.7286V15.0337H117.374V19.6228H121.993V25.6179C116.769 25.8913 112.903 23.7042 112.903 18.002C112.903 10.5911 119.083 10.2981 121.993 10.4153H126.582Z" fill="white"/>
<path d="M150.675 6.00195H146.799C146.594 6.00195 146.448 6.15818 146.448 6.27535V21.9076L135.375 6.09959C135.346 6.03125 135.16 6.00195 135.102 6.00195H131.118C130.962 6.00195 130.815 6.15818 130.815 6.27535V24.2412H135.405V14.1061L146.448 29.9141C146.477 29.9727 146.653 30.002 146.711 30.002H150.675C150.881 30.002 150.998 29.8555 150.998 29.7286V6.27535C150.998 6.15818 150.881 6.00195 150.675 6.00195Z" fill="white"/>
<path d="M160.281 14.7037V29.7305C160.281 29.8574 160.399 30.0039 160.613 30.0039H164.48C164.685 30.0039 164.841 29.8574 164.841 29.7305V14.7037H160.281ZM155.663 10.1146H169.43C169.635 10.1146 169.762 9.9974 169.762 9.85094V6.2773C169.762 6.16013 169.635 6.00391 169.43 6.00391H155.663C155.478 6.00391 155.331 6.16013 155.331 6.2773V9.85094C155.331 9.9974 155.478 10.1146 155.663 10.1146Z" fill="#F6C648"/>
<path d="M190.151 29.6133C188.657 26.2838 187.036 22.9836 185.532 19.5954C187.934 18.7264 189.946 16.8029 189.946 13.1512C189.946 6.07225 183.199 6.00391 181.841 6.00391H174.079C173.923 6.00391 173.776 6.16013 173.776 6.2773V10.3587H181.841C182.564 10.3587 185.386 10.5051 185.386 13.1512C185.386 15.7875 182.837 15.9046 181.841 15.9046H173.776V29.7305C173.776 29.8574 173.923 30.0039 174.079 30.0039H178.004C178.19 30.0039 178.336 29.8574 178.336 29.7305V20.318H180.914L185.298 29.8282C185.327 29.916 185.503 30.0039 185.591 30.0039H189.887C190.121 30.0039 190.248 29.8282 190.151 29.6133Z" fill="#F6C648"/>
<path d="M213.165 29.6363L204.046 6.18308C203.958 5.93897 203.538 5.93897 203.45 6.18308L194.36 29.6363C194.272 29.8218 194.389 29.9976 194.662 29.9976H198.773C198.89 29.9976 199.037 29.939 199.066 29.8218L203.753 16.4353L208.488 29.8218C208.518 29.939 208.664 29.9976 208.762 29.9976H212.902C213.107 29.9976 213.253 29.8218 213.165 29.6363Z" fill="#F6C648"/>
<path d="M227.191 25.8913H224.799V6.00195H220.21V25.8913H217.749C217.563 25.8913 217.417 26.0085 217.417 26.1647V29.7286C217.417 29.8555 217.563 30.002 217.749 30.002H227.191C227.406 30.002 227.523 29.8555 227.523 29.7286V26.1647C227.523 26.0085 227.406 25.8913 227.191 25.8913Z" fill="#F6C648"/>
<path d="M236.281 14.7017V29.7286C236.281 29.8555 236.399 30.002 236.613 30.002H240.48C240.685 30.002 240.841 29.8555 240.841 29.7286V14.7017H236.281ZM231.663 10.1126H245.43C245.635 10.1126 245.762 9.99544 245.762 9.84898V6.27535C245.762 6.15818 245.635 6.00195 245.43 6.00195H231.663C231.478 6.00195 231.331 6.15818 231.331 6.27535V9.84898C231.331 9.99544 231.478 10.1126 231.663 10.1126Z" fill="#F6C648"/>
<path d="M260.773 16.6838C259.064 15.8734 257.385 15.8734 257.238 15.8734C255.705 15.8734 254.24 14.9751 254.24 13.2371C254.24 11.3136 255.588 10.3274 257.238 10.3274C258.8 10.3274 260.118 11.1378 260.177 12.8465C260.177 12.9344 260.323 13.0809 260.509 13.0809H264.258C264.463 13.0809 264.62 12.9344 264.59 12.8465C264.522 8.76518 261.349 6.00195 257.238 6.00195C253.401 6.00195 249.769 8.73588 249.769 13.2371C249.769 16.0199 251.175 18.1582 253.664 19.2908C255.412 20.1012 257.023 20.1012 257.238 20.1012C258.585 20.1598 260.236 21.2436 260.236 23.0109C260.236 24.6024 258.83 25.6863 257.238 25.6863C257.238 25.6863 257.238 25.6863 257.209 25.6863V30.002C257.238 30.002 257.238 30.002 257.238 30.002C261.075 30.002 264.678 27.5121 264.678 23.0109C264.678 20.1891 263.292 17.8555 260.773 16.6838Z" fill="#F6C648"/>
<defs>
<linearGradient id="paint0_linear_61424_12100" x1="19" y1="16" x2="24" y2="16" gradientUnits="userSpaceOnUse">
<stop stop-color="#007AFF"/>
<stop offset="1" stop-color="#F6C648"/>
</linearGradient>
<linearGradient id="paint1_linear_61424_12100" x1="13" y1="16" x2="8" y2="16" gradientUnits="userSpaceOnUse">
<stop stop-color="#004085"/>
<stop offset="1" stop-color="#F6C648"/>
</linearGradient>
</defs>
</svg>
